<svg xmlns="http://www.w3.org/2000/svg" width="500" zoomAndPan="magnify" viewBox="0 0 375 375" height="500" preserveAspectRatio="xMidYMid meet" xmlns:v="https://vecta.io/nano"><defs><clipPath id="A"><path d="M0 24.301h375V350H0zm0 0" clip-rule="nonzero"/></clipPath></defs><g clip-path="url(#A)"><path fill="#f0e9dc" d="M372.598 29.254l-17.785-4.594c-.453-.262-1.023-.371-1.684-.246-.301.035-.578.117-.828.242l-3.426 1.199c-3.863 1.434-7.66 3-11.406 4.672-5.641 2.508-11.156 5.238-16.57 8.133-7.281 3.891-14.367 8.082-21.27 12.516-8.617 5.539-16.953 11.453-24.992 17.68-9.383 7.262-18.359 14.961-26.926 23.023-9.871 9.289-19.199 19.063-27.984 29.227-9.965 11.535-19.262 23.551-27.863 35.973-9.699 14.004-18.527 28.508-26.539 43.379-9.02 16.75-17.016 33.965-24.078 51.48l-4.016 10.266-13.672-10.648-35.844-27.906L54.777 198l-8.375-6.52c-.711-.555-1.336-1.086-2.219-1.418-2.77-1.043-5.637-2.395-8.516-3.125-1.094-.277-2.469.102-3.578.273l-5.781.887c-1.211.184-2.855.176-3.867.895-.559.395-.824.898-1.156 1.441l-9.234 15.09L1.75 222.348c-.797 1.309-1.715 2.398-1.437 3.977.328 1.84.723 3.668 1.082 5.5l4.125 21.02c.426 2.156.758 4.352 1.277 6.492.305 1.254 1.238 1.91 2.48 2.367l3.25 1.211 1.152.438.629.242.328.125c.016.008.027.012.043.02l3.258 1.273c6.156 2.441 12.266 4.992 18.32 7.633C54.441 280.578 72.23 289.32 89.379 299c20.184 11.391 39.641 24.109 56.902 39.043 4.141 3.582 8.141 7.297 11.973 11.152 1.324 1.34 4.078.695 4.5-1.086.535-2.258 1.141-4.5 1.75-6.742 1.695-6.23 3.535-12.426 5.473-18.598 2.949-9.402 6.133-18.742 9.523-28.016 4.301-11.777 8.938-23.453 13.906-35.008 5.711-13.277 11.875-26.395 18.523-39.305 7.297-14.172 15.172-28.098 23.707-41.68 8.895-14.152 18.504-27.934 28.949-41.168 10.629-13.465 22.148-26.348 34.664-38.379 12.531-12.055 26.063-23.285 40.676-33.184 7.383-5.004 15.027-9.676 22.922-13.965 1.813-.984 4.535-1.859 5.391-3.695.293-.625.504-1.293.75-1.93l3.398-8.758 2.09-5.395c.492-1.262-.559-2.691-1.879-3.035"/></g></svg>