<svg xmlns="http://www.w3.org/2000/svg" zoomAndPan="magnify" preserveAspectRatio="xMidYMid meet" viewBox="1 81.82 372 211.5" xmlns:v="https://vecta.io/nano"><defs><clipPath id="A"><path d="M1 81.816h104V209H1zm0 0" clip-rule="nonzero"/></clipPath><clipPath id="B"><path d="M32 82h147v211.316H32zm0 0" clip-rule="nonzero"/></clipPath><clipPath id="C"><path d="M196 81.816h104V209H196zm0 0" clip-rule="nonzero"/></clipPath><clipPath id="D"><path d="M226 82h147v211.316H226zm0 0" clip-rule="nonzero"/></clipPath></defs><g clip-path="url(#A)"><path d="M101.535 82.555l-2.785-.316c-2.707-.293-5.426-.434-8.148-.422-10.359.047-20.418 1.797-30.18 5.262a95.11 95.11 0 0 0-19.754 9.551c-6.215 3.945-11.898 8.547-17.051 13.809a87.48 87.48 0 0 0-14.195 19.047 60.83 60.83 0 0 0-7.781 23.992 44.47 44.47 0 0 0 .797 12.906 44.45 44.45 0 0 0 4.461 12.137 54.15 54.15 0 0 0 7.551 10.719c2.953 3.266 6.254 6.129 9.906 8.59a63.09 63.09 0 0 0 11.781 6.242 63.32 63.32 0 0 0 12.824 3.648 68.36 68.36 0 0 0 23.289 0c5.031-.613 9.875-1.926 14.527-3.941s8.922-4.645 12.813-7.898c1.684-1.551 3.121-3.305 4.313-5.258l1-2-1.578 1.367c-.621.582-1.285 1.109-1.996 1.578-.977.715-1.992 1.363-3.051 1.945-3.719 1.898-7.602 3.363-11.648 4.395a56.08 56.08 0 0 1-12.328 1.711 64.47 64.47 0 0 1-17.719-1.422c-6.266-1.461-11.996-4.09-17.191-7.891-2.738-2.008-5.211-4.305-7.414-6.891s-4.078-5.395-5.625-8.422a38.23 38.23 0 0 1-3.68-20.516 73.97 73.97 0 0 1 5.012-18.898 73.88 73.88 0 0 1 9.762-16.93 87.11 87.11 0 0 1 10.605-12.141 86.87 86.87 0 0 1 12.656-9.977c4.527-2.934 9.285-5.422 14.277-7.473a86.64 86.64 0 0 1 15.406-4.715c3.469-.738 6.258-1.156 8.148-1.422zm0 0"/></g><g clip-path="url(#B)"><path d="M104.641 188.461l.945-1.418c1.102 6.066 1.102 12.137 0 18.203a78.57 78.57 0 0 1-7.117 19.988c-3.273 6.34-7.336 12.129-12.18 17.367-6.824 7.805-14.867 14.031-24.133 18.676-5.258 2.895-10.832 5.684-16.773 8.68l-4.52 2.266c-2.375 1.105-4.461 2.613-6.258 4.523-.664.723-1.184 1.535-1.562 2.438s-.594 1.844-.645 2.824a8.25 8.25 0 0 0 .57 3.113 8.19 8.19 0 0 0 1.691 2.672c1.375 1.488 2.965 2.684 4.777 3.59a16.49 16.49 0 0 0 5.738 1.672c3.469.406 6.887.145 10.25-.789 2.578-.789 4.523-1.578 6.152-2.211l10.516-4.102c7.098-2.84 14.352-5.945 21.609-9.367 15.113-6.93 29.047-15.734 41.797-26.41 2.813-2.348 5.512-4.82 8.098-7.418a120.16 120.16 0 0 0 7.387-8.121c2.34-2.82 4.551-5.738 6.625-8.758a121.26 121.26 0 0 0 5.801-9.324c1.793-3.195 3.438-6.465 4.934-9.812a120.82 120.82 0 0 0 4.023-10.219 120.17 120.17 0 0 0 3.082-10.543 120.16 120.16 0 0 0 2.113-10.777c1.539-11.77 1.031-23.449-1.523-35.039a79.46 79.46 0 0 0-4.961-14.973 79.43 79.43 0 0 0-7.816-13.699 69.15 69.15 0 0 0-8.395-9.73c-3.102-2.98-6.449-5.652-10.047-8.012s-7.383-4.363-11.352-6.016-8.062-2.922-12.27-3.812c-4.754-.957-9.555-1.434-14.406-1.418h-5.258l4.313.523a82.84 82.84 0 0 1 12.145 2.738 65.06 65.06 0 0 1 16.984 8.207 58.29 58.29 0 0 1 16.191 16.781c4.918 7.816 8.195 16.27 9.832 25.359a98.32 98.32 0 0 1 0 32.094 110.94 110.94 0 0 1-12.145 35.988c-3.715 6.738-8.008 13.086-12.875 19.043s-10.234 11.43-16.094 16.414c-10.848 8.965-22.574 16.578-35.176 22.836-6.359 3.262-12.828 6.313-19.348 9.258l-9.777 4.734-4.785 2.105a24.08 24.08 0 0 1-2.945 1.105h-.316c-.262 3.895 0 1.051 0 1.895v-.473a4.04 4.04 0 0 1-.945.84c-.437.293-.91.504-1.418.633h1.102c.672.246 1.32.543 1.945.895l.578.367h.16c.992-.758 2.027-1.461 3.102-2.105l16.457-9.836a89.15 89.15 0 0 0 14.078-10.203 88.96 88.96 0 0 0 11.84-12.738c2.32-3.051 4.391-6.266 6.219-9.637a74.93 74.93 0 0 0 4.68-10.469c1.293-3.609 2.305-7.297 3.035-11.062s1.168-7.562 1.316-11.395c-.02-6.738-1.387-13.191-4.102-19.359zm0 0"/></g><g clip-path="url(#C)"><path d="M296.07 82.555l-2.84-.316c-2.687-.297-5.387-.434-8.094-.422-10.375.043-20.453 1.793-30.234 5.262-6.945 2.434-13.527 5.621-19.742 9.566a95.79 95.79 0 0 0-17.059 13.793 87.2 87.2 0 0 0-14.355 19.203 60.08 60.08 0 0 0-7.57 23.836c-.352 4.34-.078 8.641.816 12.902s2.375 8.309 4.441 12.141a54.68 54.68 0 0 0 7.563 10.707c2.953 3.266 6.25 6.133 9.891 8.602 3.695 2.488 7.605 4.566 11.734 6.234a63.6 63.6 0 0 0 12.77 3.656 68.36 68.36 0 0 0 23.289 0c5.031-.613 9.875-1.926 14.527-3.941s8.922-4.645 12.813-7.898c1.703-1.535 3.137-3.289 4.313-5.258l1.051-2-1.578 1.367a12.7 12.7 0 0 1-2.047 1.578 23.72 23.72 0 0 1-3.051 1.945 55.74 55.74 0 0 1-11.645 4.398c-4.047 1.031-8.156 1.598-12.332 1.707-5.953.344-11.844-.129-17.664-1.422-6.273-1.445-12.004-4.074-17.195-7.891-2.687-2-5.117-4.281-7.285-6.84a43.77 43.77 0 0 1-5.543-8.312 37.77 37.77 0 0 1-3.277-10c-.625-3.488-.758-6.996-.402-10.52a73.8 73.8 0 0 1 4.891-18.961 73.87 73.87 0 0 1 9.672-17.023 87.11 87.11 0 0 1 10.605-12.141 86.87 86.87 0 0 1 12.656-9.977c4.527-2.934 9.289-5.422 14.277-7.473a86.64 86.64 0 0 1 15.406-4.715 110.52 110.52 0 0 1 8.203-1.422zm0 0"/></g><g clip-path="url(#D)"><path d="M299.172 188.461l.895-1.418a51.81 51.81 0 0 1 0 18.203 79.27 79.27 0 0 1-7.141 19.973 79.33 79.33 0 0 1-12.152 17.383c-6.844 7.777-14.891 14.004-24.137 18.676-5.254 2.895-10.828 5.684-16.824 8.68l-4.469 2.266a19.62 19.62 0 0 0-6.309 4.523 8.51 8.51 0 0 0-2.207 5.262 8.25 8.25 0 0 0 .57 3.113 8.19 8.19 0 0 0 1.691 2.672c1.375 1.488 2.965 2.684 4.777 3.59a16.49 16.49 0 0 0 5.738 1.672 26.01 26.01 0 0 0 10.305-.789c2.629-.789 4.52-1.578 6.203-2.211l10.516-4.102c7.098-2.84 14.352-5.945 21.609-9.367 15.094-6.934 29.012-15.738 41.746-26.41a120.09 120.09 0 0 0 8.094-7.418c2.586-2.594 5.051-5.301 7.391-8.121s4.547-5.738 6.621-8.758 4.012-6.129 5.805-9.324 3.438-6.465 4.934-9.812a120.82 120.82 0 0 0 4.023-10.219 122.92 122.92 0 0 0 3.082-10.543c.867-3.559 1.57-7.152 2.113-10.777 1.551-11.773 1.027-23.453-1.578-35.039a79.46 79.46 0 0 0-4.961-14.973 79.43 79.43 0 0 0-7.816-13.699 68.72 68.72 0 0 0-8.387-9.742c-3.098-2.984-6.445-5.656-10.043-8.016s-7.387-4.363-11.359-6.012-8.062-2.918-12.273-3.801c-4.719-.945-9.484-1.422-14.301-1.418h-5.258l4.262.523c4.117.602 8.164 1.516 12.145 2.738a65.25 65.25 0 0 1 17.035 8.207 58.93 58.93 0 0 1 16.141 16.781 69.76 69.76 0 0 1 9.832 25.359 97.04 97.04 0 0 1 0 32.094c-1.961 12.691-5.992 24.688-12.094 35.988a127.96 127.96 0 0 1-12.918 19.035c-4.875 5.957-10.242 11.434-16.105 16.422-10.848 8.965-22.57 16.578-35.172 22.836-6.309 3.262-12.828 6.313-19.348 9.258l-9.73 4.734-4.781 2.105c-.961.426-1.945.793-2.945 1.105h-.316c-.316 3.895 0 1.051 0 1.895v-.473a2.56 2.56 0 0 1-.895.84c-.449.305-.941.516-1.473.633h1.16a11 11 0 0 1 1.891.895l.578.367c.969-.723 1.984-1.371 3.051-1.945l16.457-9.84a89.15 89.15 0 0 0 14.078-10.203c4.363-3.859 8.309-8.105 11.84-12.734a75.07 75.07 0 0 0 6.234-9.629 75 75 0 0 0 4.684-10.473c1.293-3.609 2.305-7.297 3.027-11.062s1.16-7.566 1.305-11.398c.082-6.789-1.23-13.297-3.945-19.52zm0 0"/></g></svg>