<svg xmlns="http://www.w3.org/2000/svg" zoomAndPan="magnify" preserveAspectRatio="xMidYMid meet" viewBox="-6.78 14.13 374.73 190.57" xmlns:v="https://vecta.io/nano"><defs><clipPath id="A"><path d="M11 33h353v161H11zm0 0" clip-rule="nonzero"/></clipPath><clipPath id="B"><path d="M-6.742 131.613L17.707 14.129l350.246 72.895-24.449 117.48zm0 0" clip-rule="nonzero"/></clipPath><clipPath id="C"><path d="M17.668 14.324L-6.781 131.809l350.246 72.891 24.449-117.48zm0 0" clip-rule="nonzero"/></clipPath><clipPath id="D"><path d="M17.668 14.324L-6.781 131.809l350.246 72.891 24.449-117.48zm0 0" clip-rule="nonzero"/></clipPath></defs><g clip-path="url(#A)"><g clip-path="url(#B)"><g clip-path="url(#C)"><g clip-path="url(#D)"><path d="M260.77 180.566c20.793-1.66 41.633-.156 61.863 4.645-23.316-39.551-56.121-73.359-94.488-98.441-40.004-26.164-86.895-43.867-134.727-47.586-25.926-2.012-53.828.68-74.852 17.496-2.762 2.207-9.504.617-5.285-2.758 19.227-15.375 43.996-20.656 68.129-20.68 24.875-.031 49.98 4.766 73.715 11.977 48.129 14.625 92.469 41.246 128.199 76.688 17.398 17.25 32.598 36.602 45.266 57.555 4.922-26.168 14.078-51.434 27.121-74.68.961-1.703 3.164-2.687 5.078-2.617 1.391.047 3.441 1.016 2.465 2.754-14.586 25.973-24.23 54.352-28.461 83.844-.051.352-.195.68-.406.98.223 2.23-4.883 3.652-6.352 3.227-21.996-6.461-44.988-9.004-67.859-7.176-5.414.434-3.687-4.879.594-5.227zm0 0"/></g></g></g></g></svg>