<svg xmlns="http://www.w3.org/2000/svg" zoomAndPan="magnify" preserveAspectRatio="xMidYMid meet" viewBox="0.3 21.09 1022.31 172.16" xmlns:v="https://vecta.io/nano"><path fill="#f9c000" d="M13.781 89.664C2.598 74.516 11.984 51.391 27.758 41.426c15.977-9.969 35.75-10.566 54.723-10.965l248.035-3.586 350.289-5.184c40.938-.598 82.078-1.195 123.02.598 27.957 1.195 55.918 3.387 83.875 5.582l122.621 9.965c2.797.199 5.992.598 7.988 2.594s2.598 5.18 2.797 7.973c1.797 16.742 3.395 34.285-3.996 49.434-2.594 5.383-6.391 10.367-7.988 16.145-1.797 6.578-.797 13.555-1.797 20.332-3.992 26.91-36.945 37.277-63.906 41.066-186.125 25.91-375.449 3.785-563.375 11.559-45.934 1.797-91.863 5.582-137.797 6.18-74.293 1.195-148.781-5.582-223.074-12.16-4.395-.398-8.988-.797-12.383-3.387C.598 172.984 0 164.016.398 156.242c1-21.328 4.195-42.461 9.586-62.992zm0 0"/></svg>