<svg xmlns="http://www.w3.org/2000/svg" zoomAndPan="magnify" preserveAspectRatio="xMidYMid meet" viewBox="4.4 99.39 369.6 153.33" xmlns:v="https://vecta.io/nano"><defs><clipPath id="A"><path d="M24 99.391h350V154H24zm0 0" clip-rule="nonzero"/></clipPath></defs><g clip-path="url(#A)"><path fill="#f9c000" d="M28.938 144.285l254.254 7.477 72.234 2.121c2.648.078 6.914-6.59 7.984-8.262 3.18-4.953 5.961-11.066 7.711-16.859 1.406-4.637 3.035-9.891 2.594-14.859-.273-3.094-1.035-4.734-3.93-4.816l-254.258-7.477-72.23-2.125c-2.652-.082-6.918 6.598-7.988 8.266-3.18 4.953-5.957 11.07-7.711 16.855-1.406 4.645-3.031 9.895-2.59 14.863.273 3.094 1.035 4.73 3.93 4.816"/></g><g fill="#f9c000"><path d="M361.359 120.27c-84.453 17.473-169.965 28.27-255.746 32.195-24.168 1.113-48.352 1.664-72.543 1.691-2.699.004-6.855 6.508-7.988 8.266-3.176 4.957-5.957 11.07-7.707 16.855-1.344 4.445-6.207 19.691 1.34 19.68 85.848-.109 171.672-6.996 256.668-20.699 23.949-3.855 47.824-8.266 71.617-13.191 3.047-.625 6.449-5.863 7.984-8.262 3.184-4.953 5.961-11.066 7.715-16.855.996-3.293 6.141-21.227-1.34-19.68"/><path d="M34.004 216.93c83.047 3.32 166.293-.266 248.867-10.828a1503.79 1503.79 0 0 0 69.176-10.492c2.996-.527 6.516-5.973 7.988-8.262 3.18-4.961 5.957-11.074 7.711-16.859 1.047-3.461 6.168-20.996-1.34-19.684-82.121 14.398-165.156 21.961-248.258 22.508a1495.69 1495.69 0 0 1-69.789-1.184c-2.633-.105-6.934 6.621-7.984 8.266-3.18 4.957-5.961 11.07-7.711 16.855-1.406 4.645-3.031 9.895-2.594 14.863.277 3.113 1.039 4.699 3.934 4.816"/><path d="M347.551 186.895l-253.27 16.391-71.434 4.621c-2.809.18-6.738 6.316-7.984 8.262-3.18 4.961-5.957 11.074-7.711 16.859-1.234 4.074-6.219 20.168 1.336 19.68l253.27-16.391 71.434-4.621c2.809-.184 6.738-6.32 7.984-8.266 3.18-4.957 5.961-11.07 7.715-16.852 1.23-4.078 6.215-20.172-1.34-19.684"/></g></svg>