<svg xmlns="http://www.w3.org/2000/svg" zoomAndPan="magnify" preserveAspectRatio="xMidYMid meet" viewBox="76 75.14 388.74 230.25" xmlns:v="https://vecta.io/nano"><style><![CDATA[.B{fill-rule:evenodd}.C{clip-rule:nonzero}.D{fill:#ece5d8}]]></style><defs><clipPath id="A"><path d="M326 178h138.742v127H326zm0 0" class="C"/></clipPath><clipPath id="B"><path d="M324.832 75.141H456V191H324.832zm0 0" class="C"/></clipPath><clipPath id="C"><path d="M214.688 170H360v134H214.688zm0 0" class="C"/></clipPath><clipPath id="D"><path d="M242 75.141h82V180h-82zm0 0" class="C"/></clipPath><clipPath id="E"><path d="M76 154h151.758v151.391H76zm0 0" class="C"/></clipPath><clipPath id="F"><path d="M97 75.141h111V229H97zm0 0" class="C"/></clipPath></defs><path d="M458.539 293.938c.168 0 .082-.082 0 0 0-.082 0 0 0 0zm-7.156 5.289c-6.734.836-13.551.082-20.285-.672-13.633-1.008-27.184 1.93-40.82 1.004-17.082-.754-34.168-2.098-51.172.168-4.711.086-12.203 1.344-10.52-5.871 2.273-18.715 5.219-37.258 8.418-55.801 2.691-10.406 2.945-28.363 10.352-35.578 1.094-1.008 4.965-4.195 6.059-4.617 5.137-1.844 14.395-3.355 18.18-7.383 3.113-5.203 1.684-12.336 6.48-16.531 4.211-3.437 13.383-2.684 17.93-.168 3.535 2.266 4.121 6.797 6.313 10.07.504.754 1.852 2.684 2.609 3.355 1.766 1.68 8.078 3.527 9.844 3.859 10.27 2.016 15.32 3.359 23.316 10.156 21.039 21.313 18.094 59.156 23.902 87.098.254 3.105 2.105 7.215-1.262 9.23-2.863 1.344-6.23 1.176-9.344 1.68zm0 0" class="B D"/><g clip-path="url(#A)" class="B"><path d="M373.949 183.344c0-.082-.168-.082-.168 0-.25 1.344-.84 2.77-1.344 3.945-.59 1.258-1.348 2.348-2.273 3.355-2.02 2.098-4.547 3.02-7.406 3.02h-.086v-.25-.168c-.25-1.93-2.609-1.848-3.027-.418l-.676.25h-.082c-.422.168-1.684.754-1.937.586-.504-.336-1.094.086-1.348.504-.336.758-.418 1.762-.504 2.602v.254c-7.406 1.93-11.613 9.313-13.719 16.191-1.18 3.695-1.937 7.555-2.691 11.328l-2.359 12.168c-1.598 7.973-3.027 16.027-4.293 24.082l-.336 2.352-3.281 22.234-1.516 12-.254 2.18-.082 1.094c-.086.922-.336 1.93.168 2.852 1.012 1.93 4.207 1.93 4.375-.586 0-.504-.168-.84-.418-1.176v-.086-.082c.082-.504.082-1.008.168-1.512.082-1.09.25-2.18.336-3.187l.758-6.125 1.598-12.418.59-4.113c1.852-13.676 3.789-27.355 6.313-40.863l2.105-11.078c.672-3.523 1.43-6.965 2.609-10.32 1.934-5.539 5.219-10.656 9.848-14.266-.086.672-.086 1.344-.172 2.098l-.504 5.289c-.672 6.375-1.516 12.836-3.113 19.047-.758 3.105-1.684 6.211-2.777 9.145-.59 1.512-1.18 2.938-1.852 4.363s-1.77 2.938-1.852 4.531c0 .758.758 1.344 1.43 1.262-.336 2.934-.504 5.871-.672 8.727l-.844 12.586-2.102 22.488-.508 4.445-.168 1.258c-.082.84-.25 1.766.168 2.52-.418.922-.672 1.844-.84 2.852-.168 1.258.504 2.602 1.938 2.52h.504c1.348.336 2.691.586 4.039.586h5.301l10.27-.082 37.203-.254 4.965-.082 13.633-.336 9.43-.336h.672c2.777-.086 5.555-.168 8.246-.59.086 0 .086-.082.086-.168h.086c.082.336 1.512-.922 1.512-1.762.59-.754.34-2.012.254-2.937-.086-.836-.168-1.762-.168-2.598-.168-1.848-.254-3.777-.422-5.625l-1.516-22.656-.418-11.41c0-1.848-.086-3.523-.254-5.285l-.086-.422c-.168-1.762-.168-3.605-.84-5.285h-.086c-.672 1.594-.672 3.441-.84 5.203h-.086c-.926-.422-1.852-.84-2.691-1.344-.086-.082-.254-.168-.336-.25-1.348-4.113-2.863-8.141-4.293-12.168-4.629-13.176-7.156-27.187-7.742-41.117 3.617 2.266 7.406 4.027 11.191 5.957l.336.168c3.621 1.93 7.156 4.027 9.766 7.301 2.273 2.855 3.785 6.293 5.133 9.652 1.516 3.605 2.863 7.215 4.125 10.906 2.523 7.469 4.461 15.105 5.977 22.824 1.516 7.637 2.523 15.27 3.281 22.992l1.012 11.832.418 6.039c.086 1.008.086 1.93.168 2.938 0 .586.086 1.176.254 1.68.168.418.422.836.672 1.172.508.758 1.684.84 2.105 0l.168-.336c.254-.5.504-1.004.504-1.508s0-1.09-.082-1.594c-.086-1.094-.086-2.184-.168-3.273l-.504-6.797c-.34-4.531-.844-9.062-1.348-13.594-2.02-15.859-4.883-31.719-10.437-46.82-1.348-3.695-2.859-7.469-4.629-10.992-1.684-3.441-3.789-6.715-6.816-9.148-2.863-2.18-6.145-3.691-9.344-5.117l-.422-.168c-3.617-1.594-7.32-3.273-11.109-4.531.086 0 .168 0 .254.082-.086-.082-.086-.168-.086-.25-.25-.254-.336-.504-.586-.754l-.508-.504-.25-.254c-.508-.418-1.012-.754-1.602-.922-.84-.168-1.262.586-1.008 1.176-.086-.168-.422-.086-.508.082-2.859 7.301-4.711 15.02-8.5 21.902-2.859 5.117-6.562 9.816-11.613 12.836-2.695 1.68-5.809 2.938-9.008 3.105-2.859.168-5.637-.586-8.078-2.012-4.715-2.937-7.828-7.973-10.016-12.926-2.441-5.199-4.207-10.992-5.219-16.863 3.199 0 6.566-1.426 8.754-3.859 1.094-1.262 1.934-2.77 2.355-4.449.422-1.594.336-2.937-.254-4.531zm26.934-4.277a1.64 1.64 0 0 0-1.934-.672c-.758.336-1.012 1.09-.926 1.844.168.926.672 1.93 1.176 2.688.508.84 1.098 1.594 1.684 2.348 1.18 1.344 2.441 2.602 3.957 3.523 1.516 1.008 3.199 1.766 4.965 2.184l.422.082c1.348.336 3.281.672 4.461-.082.082 0 .082-.086 0-.168-.59-.418-1.43-.504-2.105-.672l-2.27-.754c-1.434-.59-2.863-1.426-4.125-2.434s-2.441-2.184-3.285-3.523c-.418-.672-.754-1.43-1.094-2.098-.336-.758-.504-1.512-.926-2.266zm0 0"/></g><path d="M355.91 145.324c1.262-14.852 4.965-27.941 22.387-28.527a60.84 60.84 0 0 1 23.145 4.863c17.676 8.813 23.23 40.949 7.746 53.957.082.082.082.168 0 .25-3.199 2.184-6.734 3.945-10.355 5.371-9.508 4.027-20.703 5.789-30.383 1.426-14.812-6.293-15.066-23.746-12.539-37.34zm0 0" class="B D"/><g clip-path="url(#B)" class="B"><path d="M326.789 138.445c-.59-.59-1.094-1.262-1.262-2.098-.172-.758-.254-1.512 0-2.266s.754-1.43.672-2.266c0-.086 0-.168-.086-.254-.418-1.508-1.512-2.684-1.176-4.363.082-.504.336-.922.59-1.258 0-.336-.086-.754-.086-1.09-.672-1.512-.59-3.273.086-4.785.082-.754.168-1.508.418-2.266-.082-.672 0-1.34.254-1.93.336-1.004.84-2.012 1.348-2.937-.086-.25 0-.586.082-.754.254-.418.59-.84 1.012-1.258l.758-1.344c.082-.168.25-.418.418-.672-.418-.754-.586-1.426-.168-2.266.168-.336.59-.586.926-.504.422 0 .758 0 1.18.086.758-.84 1.598-1.68 2.441-2.098l2.691-2.266c.168-.254.422-.504.676-.672l.59-2.012c.168-.422.168-.84.586-1.094.844-.504 2.105-.504 3.117-.586l.25-.254c-.422-1.172-.336-2.43.168-3.605.168-.422.844-.59 1.18-.336.84.586 1.852.84 2.777.754 1.43-1.09 7.152-6.039 8.078-6.543v-.086c.508-.84 1.098-1.426 1.77-1.93.082-.082.168-.168.254-.336-.086-.586-.34-1.176-.676-1.676 0-.086-.082-.086-.168-.168-.672-.758.168-1.762 1.012-1.344.082 0 .168.082.168.082.672.336 1.43.672 2.188.926.254-.086.59-.168.84-.336l2.863-1.176c.504-.168 1.012-.336 1.43-.586.168-1.094 1.262-1.762 2.359-1.68-.086-.168-.172-.418-.254-.586 0-.086-.086-.086-.168-.168-.59-.672.168-1.848 1.008-1.258.086 0 .086.082.168.082.254.168.422.336.676.418.336-.168.758-.168 1.262 0 1.012.422 1.852.758 2.695 1.344l.082.086c.422-.504 1.094-.84 1.684-.84.422-.672 1.262-1.09 2.105-1.008-.086-1.008.926-1.848 1.852-2.016 1.094-.082 2.02.504 2.355 1.512.086.254.168.586.254.84.84-.418 1.684-.754 2.609-.922 2.102-.336 4.121 0 6.059.586.168.082.422.082.59.168.25-.336.59-.672.84-1.008.422-.504 1.516-.082 1.43.59-.082.5.172.836.422 1.09.336.082.676.082 1.18.082.672 0 1.008 0 1.684-.336.336-.168.758-.418.926-.754.758-1.176 2.523-1.426 3.449-.336 1.262-.25 2.355.254 2.863 1.09.25.422.84.672 1.516.84.504.168 1.094.254 1.598.336.336-.336.84-.586 1.18-.25.25.168.504.418.758.586 1.852.25 3.703.25 5.469-.418 1.516-.59 2.863 1.09 2.609 2.516.422.25.926.418 1.348.586.926.504 1.684 1.344 2.188 2.266l.254.504c.336.254.672.59 1.008.926.59-.254 1.094-.59 1.684-.84.422-.254 1.18-.086 1.18.504.168.922.504 1.676.926 2.348 1.516.84 3.027 1.68 4.461 2.688 1.598.5 3.367.836 4.797 1.172.504.086.758.758.504 1.176l-.84 1.344c.84.754 1.598 1.594 2.27 2.434 2.023 2.348 3.703 4.949 5.219 7.719l1.77.754c.59.254.84.926.336 1.344-.254.25-.422.504-.59.754.844 1.426 1.852 2.688 3.199 3.523a2.32 2.32 0 0 1 .926 1.094c.168.082.254.168.422.336.418.336.586.922.168 1.34-.336.254-.59.59-.844.926 0 .082 0 .25-.082.418 1.262 1.176 2.355 2.516 3.195 4.113.172 0 .422 0 .508.082 1.43 1.09 1.516 2.77.926 4.281.336 2.266.082 4.613-.59 6.797.84.836 1.43 2.18 1.598 3.355.422 2.18.422 5.453.508 7.637.926.922 1.684 2.098 2.02 3.438.336.168.672.336.926.504s.504.504.504.84c-.086 1.512-.672 2.77-1.516 3.859-.336.84-.758 1.594-1.348 2.352-.418.5-.758 1.004-1.094 1.508 0 .086-.082.086-.082.168.168.168.25.422.336.59.84 1.426.84 3.102-.336 4.363.418.336.418 1.09.082 1.508-2.523 2.855-4.629 6.379-8.164 7.887 0 0 0 .086-.082.086.672 1.68.84 2.602.25 4.363v.082c-.336.926-.84 2.434-1.934 2.688-.336.082-.676.168-.926.168-.844.754-1.602 1.594-2.441 2.348-.086.422-.086.758-.168 1.176 0 .672-.672 1.176-1.348 1.008-.25-.086-1.516-1.344-1.766-1.344l-.34.336c-.418.418-1.008 1.176-1.094 1.68-.082.922-.672 1.93-1.598 2.098-.336.336-.926.504-1.348 0l-.082-.086h-.168c-.168.59-.422 1.258-.676 1.848-.418 1.258-2.02 2.012-3.113 1.258-.168.082-.336.25-.504.336a7.64 7.64 0 0 1-.844.504c0 .082 0 .082-.082.168-.168.586-.926.84-1.434.504-.168.082-.25.082-.418.082-.758.168-1.602.086-2.359-.168-.504-.168-1.094-.504-1.68-.586h-.086c-.504 1.008-1.598 1.844-2.441 2.098-1.094.336-2.273.25-3.281-.254-.254.59-.59 1.094-1.012 1.512-.25.25-.672.168-.84 0-.422-.418-.926-.754-1.348-1.176-.336-.082-.672-.25-1.012-.418-1.094-.422-2.187-.586-3.195-1.258-.508-.336-.926-.672-1.262-1.094-.676-.418-1.348-.836-1.852-1.426-.254 0-.59-.082-.844-.168-1.18-.586-1.852-1.844-1.852-3.105-.926-2.262-1.516-4.695-1.684-7.129-.082-.84-.082-1.598 0-2.434.086-.59.168-.926.422-1.43.082-.164.168-.332.168-.5v-1.68c-.168-.418-.422-.922-.758-1.258-.59-.59-.84-1.68-.336-2.434.336-.422.672-.922 1.008-1.344-.082-1.93-.586-4.949.508-5.285 0-.254-.168-.59-.168-.84-.254-1.344-.086-2.602.586-3.777.168-.25.254-.504.422-.672.086-.418.168-.754.168-1.172l.254-1.848c.082-.754.082-1.594.168-2.348 0-.758.082-1.426.168-2.184 0-.336-.086-.672-.086-.922-.25-1.93-1.008-2.602-2.355-3.945-.25 0-.422-.082-.672-.082-1.012-.168-2.02-.504-2.945-.422-1.094.086-2.02.59-3.117 0-.336-.168-1.008-.668-1.008-1.09v-.082h-.254c-.84 0-1.598.336-2.441.168-1.008-.086-1.852-.59-2.437-1.176-.758.168-1.516.25-2.273.168-.676-.086-1.262-.336-1.852-.586-.422-.254-.254-.254-.758-.086-1.012.418-2.02 1.008-3.199.672-.59-.168-1.094-.504-1.598-.922l-.422-.422c-.59.254-1.937.922-2.187 1.008-.676.168-1.348.168-2.02-.086-.508-.164-1.012-.586-1.434-.668-.504-.086-1.684.586-2.355.836-1.094.422-2.273.59-3.449.086-.422-.168-1.18-.754-1.434-.754-.504.586-1.766 3.773-2.187 4.949-1.598 4.699-2.02 19.301-1.262 22.992 0 .082.086.25.086.336.926 3.27 1.852 6.543 3.363 9.566 1.434 2.852 3.453 5.453 6.23 6.961 2.945 1.598 6.395 2.016 9.68 1.848 2.102-.168 4.207-.586 6.313-1.09 1.094-.254 2.102-.59 3.195-.926.508-.164.926-.25 1.434-.418.84-.25 1.262-.336 2.02.086.672.332.84 1.34.504 1.93-.59 1.004-1.684 1.09-2.691 1.426-1.094.336-2.105.586-3.199.84-2.105.504-4.207.836-6.312 1.09-3.789.336-7.742-.168-11.195-1.848-.422-.168-.758-.418-1.094-.586.168.168.254.336.422.586.422.504.082 1.426-.422 1.68l-.504.25c0 .086-.086.086-.086.168-.504 1.008-1.516 1.594-2.609 1.848-1.262.336-2.609.082-3.953.082-1.18 0-2.359-.082-3.535-.082h-.844c-1.43-.086-2.777-.086-4.207-.168-1.262 0-1.18.082-2.355-.418-.508-.254-.926-.504-1.348-.926-.254-.082-.422-.25-.672-.336-.676-.418-1.266-1.004-1.852-1.594-.926.254-2.273 0-2.441-1.176-.254-1.844-2.695-2.684-3.871-4.027-.926-1.09-1.602-2.516-1.516-3.859-2.273-1.09-3.535-4.027-3.871-6.543-.172-1.176-.086-2.352-.34-3.523-.082-.086-.168-.168-.25-.336-.59-.926-1.094-1.93-1.516-2.855-.59-.418-1.348-.672-2.105-.754-1.852-.086-2.187-2.602-.418-3.273-.508-1.176-.422-2.602.168-3.777 0-.082-.086-.25-.086-.332-1.008-1.094-1.598-2.602-1.516-4.031-.422-.332-1.008-.586-1.516-.754-.84-.25-.84-1.258-.25-1.762.25-.168.504-.418.672-.672-.422-1.344-.254-2.852.672-3.941-.586-.758-1.176-1.43-1.68-2.184-.422-.504-.59-1.344 0-1.762.504-.336.926-.672 1.262-.922zm0 0"/></g><g class="B"><path d="M367.867 169.668h-.082c-1.012-.25-1.937-.504-2.863.082-.84.59-1.008 1.68-.336 2.434.672.84 1.598.758 2.609.758h.086l2.438-.086 2.273-.336.422-.082c.422-.086.926-.168 1.094-.672.422-.754-2.609-1.344-2.945-1.426l-2.695-.672zm-1.684-9.145a3.69 3.69 0 0 0 1.852 1.004c1.77.504 4.043.254 5.555-.25.34-.086.59-.336.758-.586.086-.336.172-.59.086-.926 0-.082-.086-.168-.086-.25-.082-.254-.336-.422-.586-.504s-.59-.168-.844-.086h-.082c-.926.254-2.441.758-3.703.672-.758-.082-1.434-.336-1.77-1.008a1.24 1.24 0 0 1 0-1.09c.254-.504.758-.922 1.094-1.258.59-.418 1.18-.586 1.852-.754.254 0 .504-.086.758-.168.086 0 .168-.086.168-.168.086-.086.086-.168.086-.254s0-.168-.086-.25c0-.086-.082-.168-.168-.168-1.262-.586-2.859-.168-4.039.672a5.13 5.13 0 0 0-1.43 1.594c-.254.586-.422 1.258-.34 1.844.168.926.508 1.43.926 1.934zm20.371-12.422c-.34-.168-.676.59-.676.758l-.168.418c-.25.672-.504 1.344-1.008 1.848-.422.418-1.094.754-1.602.25-.504-.418-.25-.922-.336-1.512-.082-1.004-1.516-2.012-2.355-.922-1.852 2.352 1.008 5.621 3.703 5.035 1.348-.25 2.441-1.344 2.859-2.684v-.086c.34-.754.59-2.684-.418-3.105zm-23.988 1.68c.926-2.016-2.273-2.937-2.523-1.09v.082c-.254 2.016.25 4.699 2.777 4.867 2.777.254 3.953-2.852 3.703-5.117-.086-.422-.508-.422-.676-.086v.086c-.422 1.172-.84 3.355-2.441 3.273-1.176.082-1.176-1.344-.84-2.016zm-2.02-5.875c-1.602-.082-1.602 2.434 0 2.434l15.906.422h.926c4.965 0 10.016.082 14.98-.336.422 0 .34-.59 0-.59-5.219-.754-10.434-.922-15.738-1.258-5.387-.336-10.687-.418-16.074-.672zm0 0"/><path d="M351.004 150.555c1.684 11.414 13.551 12.672 15.652 1.344-.336-.168-.586-.418-.504-1.008 0-2.434-.758-5.117-3.027-6.461-2.273-1.426-5.051-1.594-7.66-1.508-5.137-.168-5.051 4.109-4.461 7.633m17.508-4.949c1.598-.082 3.617 0 5.047.922.422-1.09 1.434-2.18 2.441-2.766-3.871.082-7.828-.254-11.699-.59.926.672 1.77 1.594 2.355 2.688.508-.254 1.266-.254 1.855-.254m7.066 6.125c4.461 15.273 15.488 8.645 16.75 6.715 2.188-3.273 2.527-11.16.676-13.258-2.695-1.93-6.566-1.426-9.766-1.426-5.891.082-10.098 1.844-7.66 7.969m-29.793-6.965c1.18-.168 2.523-.168 3.617.336.34-1.508 1.434-2.684 2.609-3.273.172-.168.086-.25.676-.25 3.113-.922 6.563-.418 9.594.504l14.395 1.258c4.457-2.012 17.926-2.266 18.766 2.602 1.094-.168 2.863-1.008 3.703.168 6.48-1.09 13.215.504 19.695 1.176 1.602.336 2.527 3.523.59 3.523-1.008-.254 0-2.016-1.348-2.184-6.312-.668-12.457-1.676-18.77-1.762.254 1.094-4.207 1.176-4.289.504 1.094 4.027.082 9.902-1.852 12.418-2.777 3.273-9.68 4.281-12.793 2.098-3.957-1.93-8.082-11.746-6.902-15.02-2.105-.672-4.211-.504-6.398-.168.508 1.43 1.348 4.867.086 5.203.25 6.883-6.062 11.16-11.867 8.391-5.051-2.348-6.734-9.816-6.145-14.266-.59 1.176-5.809-.164-3.367-1.258"/><path d="M327.098 209.871c-1.547-.602-3.094-1.203-4.469-2.145-3.953-3.004-6.617-7.465-9.023-11.668-3.434-6.176-5.926-12.695-7.645-19.559-.773-2.918-.945-6.352-2.664-8.922-3.781-5.492-14.863-4.719-20.707-3.777-3.953.688-4.727 5.063-5.672 8.324-.773 2.742-1.203 5.402-1.633 8.234-.945.602-2.062 1.113-3.094 1.629-11.426 3.434-13.488 9.867-17.785 19.902-7.387 14.586-27.324 20.246-30.328 37.488-1.977 11.324 3.605 22.047 9.277 31.484 5.328 10.293 12.719 15.27 24.488 12.867 11.082-2.488 21.738-6.605 32.563-9.863 5.242-1.289 10.484-4.633 16.07-3.52 11.426 2.574 23.113 3.777 34.883 3.434 16.41.684 16.41-15.102 14.777-27.281-1.289-18.957-10.824-31.141-29.039-36.629zm0 0" class="D"/></g><g clip-path="url(#C)" class="B"><path d="M328.215 237.32c1.375.945 2.492 2.316 3.434 3.688l-11.598-1.371 1.547-.941c1.891-1.031 4.469-2.746 6.617-1.375zm-64.27 11.41c-.687-.258-.945-1.371-1.289-1.973l-2.492-5.832c3.094-.859 6.188-1.891 9.363-2.316 3.438-.516 7.047-.602 10.484-.516 7.133.258 14.176 1.371 21.137 2.66l20.965 3.344c6.875.945 13.832 1.629 20.707 2.145 1.375.086 3.609.602 4.641-.43.859-.855.859-2.402-.172-3.086-.687-.43-1.633-.43-2.406-.516l-2.922-.258c-.43 0-.773-.086-1.203-.086 3.18-1.199 6.445-1.801 9.883-1.629.172 1.199 1.031 2.402 1.547 3.344.855 1.719 1.457 3.434 1.887 5.234.859 3.859.945 7.805.688 11.754-.258 3.258-.687 6.863-3.262 9.176-1.977 1.719-4.727 2.402-7.219 2.574-2.922.258-5.93 0-8.937-.426a100.66 100.66 0 0 1-12.285-2.316c-7.82-1.891-15.293-4.977-22.254-9.094-3.352-1.973-6.617-4.289-9.969-6.18-3.52-1.973-7.215-3.516-11.082-4.461-4.383-1.027-8.937-1.543-13.402-1.285-.602.172-1.719.43-2.406.172zm-5.07-1.973c.43 1.457.773 3.172 1.805 4.461.945 1.199 2.406 1.629 3.953 1.801 1.805.172 3.691.086 5.496.086 3.781.172 7.477.773 11 1.887 3.352 1.031 6.445 2.66 9.449 4.461 2.75 1.629 5.414 3.434 8.164 5.148l-2.234 1.027c-1.547.688-3.094 1.289-4.641 1.973l-9.191 3.52a255.3 255.3 0 0 1-18.988 5.918c-3.094.773-6.187 1.715-9.367 1.887-2.836.086-5.414-.684-7.73-2.316-4.727-3.516-8.508-8.492-11.516-13.469-1.805-2.914-3.352-6.004-4.727-9.262-.687-1.633-1.289-3.262-1.805-4.891-.258-.773-.516-1.543-.687-2.316l-.258-1.031c4.813-1.457 9.711-2.828 14.695-3.516 2.664-.43 5.41-.602 8.074-.602 1.375 0 2.664.086 4.039.258l2.148.258c.258.086.602.086.859.172.516 1.371.945 3.004 1.461 4.547zm99.84-6.262c.258-.516.344-1.031.43-1.633.086-.426.258-1.027.086-1.629s-.687-1.199-1.031-1.715c-.43-.602-.773-1.203-1.203-1.801-.773-1.203-1.633-2.402-2.406-3.605l-9.707-14.754-8.68-13.039c-2.492-3.687-5.238-7.293-8.762-10.121-4.383-3.605-9.539-5.32-15.039-6.691-.602-.602-1.375-.945-2.23-.859-1.203-1.371-2.148-2.316-2.578-4.031-.172-.859-.172-3.176-.945-3.605-.945-.598-1.461.172-1.719 1.031-.859 2.918.172 6.777 2.492 9.695-.945 3.43-2.32 8.234-4.641 10.895-2.492 2.914-5.93 3.773-9.625 3.859-7.043.086-14.176-2.488-19.59-7.035-1.633-1.371-3.18-2.918-4.555-4.547-1.027-1.199-2.23-3.172-3.09-4.547 0-.602-.687-1.113 6.098-1.629s7.305-9.695 7.391-10.98c.086-1.031.602-2.574-.086-3.434-.344-.34-.945-.426-1.289-.172-.773.43-.945 1.633-1.203 2.402-.344 1.117-1.375 7.98-3.352 8.75-.945.344-1.977.344-3.008.43l-3.691.258c-.43.086-.945.172-1.375.172-.258 0-.602-.172-.859-.258-.945-.344-1.891-.086-2.836.086-8.336 1.117-17.098 3.773-24.402 8.492-6.445 4.117-10.914 10.125-13.918 17.074-3.008 7.117-4.812 14.84-6.273 22.387-.516 2.574-.945 5.063-1.289 7.637-.344 2.488-.773 4.977-.945 7.465 0 1.027.172 1.887.516 2.828.43 1.031 1.375 1.461 2.32 1.891 2.063 1.027 4.211 1.887 6.445 2.398a50.63 50.63 0 0 1 3.434 7.637c-.344.688-.344 1.715-.43 2.316-.172 1.629-.258 3.258-.258 4.891 0 3.258.172 6.52.344 9.863l.773 18.016c.086 1.203 0 3.004.602 4.117 1.031 1.715 3.523 1.633 4.641.258 28.613 6.176 82.312 4.289 103.965 1.203 2.836-.43 1.891.086 2.664-.687.516-.516 1.031-1.457 1.117-2.145.172-.945-.086-1.887-.687-2.66-.602-.859-.687-2.145-.945-3.172-.516-2.316-.773-12.613-1.031-13.812-.086-.344-.172-.773-.258-1.117 3.953.344 8.078.344 11.859-.941 2.148-.773 4.121-1.973 5.668-3.605 1.891-2.059 2.922-4.633 3.438-7.289.688-3.434.859-7.035.688-10.555-.172-4.117-.859-8.406-2.578-12.18.773-.516 1.203-1.117 1.547-1.801zm0 0"/></g><path d="M269.988 91.906c11.43-.602 21.566-3.863 29.645 3.344 8.68-6.52 13.746-8.492 15.207-6.004s-.602 5.832 0 8.836c3.523 6.004 3.352 16.215 3.523 18.613.516 6.008 3.695 28.652 3.695 33.973 0 2.746-2.234 9.953-3.695 13.898-3.18 8.922-9.109 13.469-18.988 13.469s-25.863-8.238-31.02-15.441c-.43-.602-3.348 1.199-6.441-1.973-3.266-3.52-5.156-10.211-5.156-14.156 0-5.062-3.266-8.578-2.922-15.012.945-14.5 3.953-38.863 16.152-39.547zm0 0" class="B D"/><g clip-path="url(#D)" class="B"><path d="M268.699 75.176h.43c.172 0 .344 0 .516.086.859.172 1.633.602 2.148 1.203l.086.086c.258.168.516.426.773.684l.086-.086c.086-.086.258-.172.344-.258.516-.426 1.203-.77 1.891-1.027h.086.086c.516-.172 1.031-.258 1.547-.258.602 0 1.203.086 1.805.344.688.258 1.289.77 1.805 1.285.344.258.602.602.945.859.602.688 1.117 1.457 1.461 2.316.086.086.086.258.086.344l2.32-.172c.859-.086 1.719-.086 2.574 0 2.406.086 4.727.516 6.961 1.285l1.289.516c.688.258 1.289.602 1.891 1.027l.516.258c.258.172.516.344.773.43.602.344 1.117.773 1.633 1.289.516.426 1.117.941 1.547 1.457l.43.43c1.117.598 2.148 1.371 3.094 2.402l2.32-1.203c.855-.344 1.887-.77 2.746-.941.773-.258 1.547-.344 2.32-.516.344-.086.688-.086 1.117-.172.258 0 .516-.086.773-.086h.344.258c.086 0 .172.172.172.258v.086c.086.086.086.172.172.172h.172c.172 0 .344.258.43.344l.086.086a.63.63 0 0 1 .172.34l.258 2.23c0 .602 0 1.117-.086 1.719l-.258 1.629c-.086.344-.258.77-.344 1.113-.086.172-.086.258-.172.43-.258.945-.602 1.887-1.031 2.832.258.344.602.688.859 1.027l.172.172s0-.086.086-.086.172 0 .172.086c.688.344 1.117 1.031 1.375 1.719l.172.34c0 .086.086.086.086.172l.516 1.719.258 1.371c.43 1.285.688 2.66 1.031 3.945.086.172 0 .43 0 .516l.172.172.086.43c.516.512 1.031 1.027 1.375 1.543a19.33 19.33 0 0 1 .945 1.887l.086.172.172.258c.172.258.258.43.344.859.258.598.344 1.199.344 1.801.086.941.086 1.973-.344 2.828-.172.859-.602 1.633-1.375 2.059-.172.172-.344.258-.516.344-.43.258-.773.258-1.203.172h-.086-.172c.086.086.086.172 0 .172-.086.086-.172.086-.258.086v.172c-.172.086-.344.086-.43.086v.258l.602 4.375c.086 2.059.344 4.203.602 6.262l.086.773 1.117 7.203.688 3.09c.258.773.43 1.629.516 2.402.172.859.258 1.715.344 2.574.172.516.344 1.113.344 1.715l-.086 2.316-.344 2.316c-.172 1.031-.43 2.059-.859 3.09-.344 1.113-.687 2.23-1.203 3.258-.687 1.629-1.547 3.176-2.492 4.719-.859 1.457-1.891 2.746-3.008 4.031-1.461 1.629-3.094 3.176-4.812 4.375-1.031.773-2.059 1.461-3.176 1.973-1.375.688-2.75 1.375-4.211 1.801-.945.258-1.891.43-2.836.602-1.891.258-3.781.258-5.672-.086-1.203-.172-2.406-.43-3.523-.855l-2.664-1.117-1.285-.773c-.773-.512-1.375-1.027-2.062-1.629-.172-.172-.43-.344-.602-.516-.086-.086 0-.168.086-.254l-.086-.086-.086-.086c-.086-.086 0-.172.086-.258h.086c-.086-.086-.086-.172.086-.258h.258l-.086-.086c-.086-.086-.086-.172.086-.258 0 .086.172.086.258.086h.086.086l-.172-.172c-.086-.086 0-.172.086-.258.086 0 .258 0 .258.086.172 0 .344.086.43.172.258.172.43.43.688.602.172.086.258.086.344.172.258.258.516.512.77.684l.172.172.086.086 1.203.688 4.383 1.457.172.086 1.375.172a14.69 14.69 0 0 0 2.75 0c.688 0 1.375-.086 2.063-.172 1.117-.172 2.32-.512 3.438-.855 1.289-.43 2.492-1.031 3.695-1.719l1.289-.77c.172-.086.254-.172.426-.258l2.492-2.059c.344-.344.773-.687 1.117-1.117l.172-.172c.344-.34.688-.77.945-1.113l.258-.344c1.203-1.457 2.234-3.09 3.18-4.719a27.72 27.72 0 0 0 2.32-5.145l.516-1.891a10.8 10.8 0 0 0 .516-2.402c0-.168.086-.34.086-.512v-.258-.086c0-.258.086-.516.086-.773v-.77-1.547-.172-.344l-.258-2.145c0-.254-.086-.512-.086-.77 0-.172-.086-.344-.086-.516l.086-.344c-.086-.516-.172-.941-.344-1.457l-.086-.172-.344-1.543-.344-1.547c-.258-1.027-.43-2.059-.602-3.172l-.687-5.062v-.258l-.43-4.719c-.172-1.543-.172-3.172-.258-4.719 0-.086.086-.168.086-.168v-.344c0-.258 0 .086 0-.258v-.859-.086c-.945.086-1.633 0-2.578 0h-.172c-.859 0-1.719-.172-2.578-.258 0 .086 0 .086-.086.086h-.258v.086c0 .086 0 .086-.086.086h-.258-.945c-.258 0-.602-.086-.859-.172-.172 0-.344-.086-.516-.086-.426-.172-.941-.344-1.371-.426s-.945-.172-1.461 0c-.516.082-.945.34-1.547.168-.086 0-.258-.086-.344-.086h-.086-.086c-.602-.082-1.117-.426-1.633-.684-.172-.086-.344 0-.602 0h-.086l-.172.172-.258.258-.086.172c-.172.254-.43.426-.687.598-.344.258-.687.43-1.117.43-.258 0-.516-.086-.773-.086-.945.258-1.891.344-2.75.086-.344-.086-.687-.172-1.031-.344-.172-.086-.344-.172-.43-.258-.602.258-1.203.602-1.891.945l-.172.086c-.602.344-1.289.602-2.062.602l-2.66-.344h-.086l-.43-.086-.086-.172-.172.086c-1.461.516-3.008.941-4.555.602-.602-.086-1.203-.258-1.805-.687h-.086c-.086-.086-.172-.086-.258-.172-.687-.43-1.117-1.203-1.117-2.059-.086-.258-.086-.516 0-.859l-.773.945-2.836 3.602-.172.258a18.24 18.24 0 0 0-1.375 2.145l-1.289 2.145-1.719 1.973-.258.258-.773 1.031c-.516.684-1.031 1.371-1.375 2.145l-.859 1.715-.258.516c-.258.684-.43 1.371-.602 2.145-.168.516-.254 1.027-.254 1.629v.172c0 .172 0 .43-.086.602.086 0 .086.086.086.086l.168.086h.086c.172.086.43.168.344.254l-.344.688s.086.086 0 .086c-.254.43-.426.859-.684 1.371.172.086.43.172.598.344.344.258.602.43.859.773l.773.516c.258.344.516.598.773 1.027l.516 1.031c.086.172.086.43.086.602-.258 1.543-1.977.512-2.062.34-.258-.941-.516-1.543-1.113-2.23-.344-.172-.687-.34-1.117-.426h-.172c.086.086 0 .172-.086.172-.602.082-1.117.168-1.719.082l-.859-.082-1.031.512-.086.086c-.859.688-1.547 1.633-1.977 2.574 0 .086-.086.172-.086.258l-.086.172c-.602 2.316-.086 4.805 1.031 6.949l1.805 2.746.602.77 1.117 1.031.172.172c.172.086.344.258.602.34.086 0 .172.086.258.086.344.172.773.258 1.203.258.516 0 1.027 0 1.543-.172h.172c.258-.172.516-.426.773-.684.086-.086.172-.086.258 0 .086-.086.086-.172.172-.172 0-.086.086-.086.172 0 .172 0 .602.258.516.344l-.086.086c.086 0 .172.086.258.172.344.082.945.512.859.598-.086.172-.172.344-.344.43h-.086l-.086.086c.172.086.258.172.172.258 0 .086-.086.086-.086.172.344.344.602.77.945 1.113.344.688.688 1.289 1.117 1.887.344.602.859 1.203 1.375 1.719.086.086.086.086.172.086l1.203.77.172.086c.086.086.258.172.172.258v.086l.859.516c.086.086.258.172.086.258s-.516-.172-.602-.258h-.086c.086 0 .086.086.172.086l.086.086c.086 0 .344.258.172.344-.086 0-.172 0-.258-.086s-.172-.086-.344-.172c0 .086 0 .086-.086.172h-.086c.172.172.43.258.688.344.086.082.258.168.172.254s-.43-.086-.602-.172l-.258-.168h-.086c.086.086.172.086.258.168l.086.086c.172.086.344.172.258.344-.086.086-.258 0-.43-.086l-.172-.086c-.086.086-.258 0-.344 0l-.086-.086-.516-.254-.258-.172c-.859-.516-1.547-.945-2.32-1.633-.43-.344-.859-.77-1.203-1.199-.773-.859-1.289-1.801-1.891-2.832v-.086c-.086-.086-.086-.258-.172-.344-.602.172-1.203.172-1.719.172-.34 0-.598-.086-.941-.172-.945-.172-1.891-.598-2.664-1.113-.086 0-.086-.086-.172-.086-.344-.172-.687-.43-.945-.687l-1.633-1.543-1.031-1.371-1.031-1.375c-.945-1.457-1.547-3.086-1.719-4.805-.086-.598-.172-1.285-.172-1.887 0-.43.086-.941.172-1.371l-.172-.172c0 .086-.086.086-.086.086l-.43-.43c-.258-.258-.516-.516-.859-1.031-.516-.77-.945-1.629-1.203-2.484-.258-.602-.344-1.375-.43-2.059 0-.086 0-.258-.086-.344-.086-.945 0-1.887.172-2.746 0-.086 0-.086.086-.086v-.258c-1.203-1.285-2.062-2.832-1.977-4.633 0-.602.172-1.113.344-1.715v-.086c-1.031-.172-1.805-.859-2.406-1.715-.086 0-.086-.086-.172-.086-1.031-.945-1.805-2.23-2.32-3.605-.344-.77-.602-1.629-.687-2.484v-.172c-.258-1.375-.344-2.832-.172-4.203-.258-.859-.43-1.719-.602-2.574-.086-.43-.086-.859-.168-1.289v-.258-.086c-.344-3.859.598-7.719 1.973-11.32.086-.344.258-.687.43-.945l.172-.344c1.461-2.316 3.609-4.203 5.414-6.176.602-.687-.43-1.715-1.031-1.031-1.203 1.289-2.492 2.574-3.695 3.949h-.602c-.344 0-.687-.086-1.031-.172-.859-.086-1.629-.43-2.316-.945-.945-.43-1.719-1.285-1.805-2.316v-.344c-.086-.512 0-1.113.172-1.629 0-.172.086-.258.172-.43.172-.43.516-.77.859-1.027l.086-.086.172-.172c-.258-.43-.43-.859-.687-1.289-.172-.512-.344-.941-.344-1.457v-.602-.258c-.086-.684 0-1.457.344-2.145 0-.086.086-.086.086-.172.086-.168.086-.34.172-.426.258-.602.688-1.031 1.117-1.461.258-.258.512-.512.855-.684.172-.086.43-.258.602-.258.43-.172.859-.43 1.289-.43h.172c0-1.031.172-2.145.602-3.09.258-.684.602-1.285 1.117-1.715.344-.344.688-.602 1.203-.773H251c.43-.168.945-.254 1.375-.254.602 0 1.117.086 1.633.34.086.086.172.086.344.172.086-.172.172-.34.258-.426.344-.602.773-1.031 1.289-1.461l.172-.172c.258-.258.516-.43.773-.598.602-.43 1.203-.687 1.805-.859.773-.258 1.547-.43 2.32-.344h.172.086c.773.086 1.547.258 2.32.516.773.344 1.375.773 2.063 1.285l.516-.512.172-.172c.086-.086.086-.086.172-.086.254-.172.426-.344.684-.516s.602-.258.859-.344c0-.258.344-.344.688-.344zm-3.691 74.719s1.715.602 2.574 1.031c.945.516 1.461.859 2.32 1.457.086 0 .086.086.086.172 0 .859-.258 1.973-.945 1.547-.086-.086-.258-.172-.344-.172l-.172-.086a18.98 18.98 0 0 0-5.238-2.316c-.086-.086.773-1.461 1.031-1.375-.086-.172.688-.258.688-.258zm17.27-39.547c-1.117.086-2.148.258-3.266.344-.687.086-1.375.172-2.062.172-1.031.086-2.062.086-3.18-.086-.344-.086-.773-.086-1.117-.172l-.773.516-2.922 2.23c-1.977 1.543-3.863 3.09-5.496 4.891-3.008 3.086-5.414 6.691-6.961 10.723-.172.086-.258.258-.258.43-.258 1.629-1.031 3.172-1.375 4.805-.258 1.629.086 3 1.117 4.289.258.254.688.254.945.086.086.086.344.086.43-.43.43-.516.859-1.031 1.117-1.633.172-.426-.172-.77-.516-.855l.516-1.715c.602-1.719 1.375-3.348 2.406-4.891.859-1.375 1.891-2.488 2.922-3.687h.086l.258-.258h.172c.086-.172.086-.172.172-.258s.172-.086.172 0c.086 0 .344.086.344.172.086.086.172.172.086.258l-.086.086c.086.082.258.082.344.168.344.086.773.344.688.516l-.516.516c.172.086.258.172.172.258-.687.77-1.375 1.543-1.977 2.402-.43.598-.859 1.285-1.203 1.973-.516.941-1.031 1.973-1.461 2.918-.086.168-.086.34-.172.426-.602 1.719-1.031 3.434-1.203 5.234v.086c0 .602-.086 2.316-.086 2.746l1.289.512c.086 0 .172.086.258.086s.086 0 .172-.086c.43-.168.859-.254 1.203-.34.258 0 .602-.086.859-.086h.086.344v-.258l-.086-.086a12.04 12.04 0 0 1 0-2.488c.086-.43.086-.859.172-1.285l.258-1.031c.258-.945.516-1.887.945-2.832 1.117-2.574 2.66-4.973 4.207-7.289l3.438-5.148c1.031-1.457 2.063-2.832 3.18-4.203s2.32-2.66 3.609-3.859c.172-.172.43-.344.602-.602 1.203-1.117 2.578-1.973 3.953-2.832.086 0 .172 0 .258.086l.258-.172.086-.086s.086 0 .086.086c.086.172.258.086.344.086.086-.086.172-.086.172-.172l-3.008-.258zm12.715-12.094c-.859-.172-1.633-.172-2.492-.086-.344.086-.687.086-1.031.172.773.684 1.375 1.543 1.805 2.574.43 1.113-1.289 1.543-1.719.512s-1.203-1.801-2.148-2.316a2.61 2.61 0 0 0-.602.43c-.258.172-.516.344-.687.602-.512.516-.941 1.285-1.199 1.973-.172.344-.258.773-.258 1.117v.254c-.258 1.891.344 3.777 1.199 5.32.859-.43 1.719-.859 2.578-1.117.688-.512 1.461-.941 2.234-1.285 1.633-.859 3.352-1.543 5.07-1.973l.258-.086 1.289-.258.258-.086v-.258c-.172-1.027-.516-2.059-1.117-2.914-.43-.687-1.031-1.375-1.719-1.977-.344-.168-.602-.34-.945-.426l-.086-.086zm-22.082-1.633c-1.719-.168-3.437-.168-5.156 0-1.117.086-2.23.258-3.348.43l-2.234.516.43.859c.688 1.371 1.375 2.742 2.234 4.117.43.688.859 1.285 1.375 1.973.344.43.684.859 1.113 1.199.086.172.258.258.344.344.344.344.773.602 1.203.859.344.258.688.516 1.117.688l.172.082 1.375.516c.086 0 .172 0 .258.086h.086l.172.086.172-.086h.086c.086 0 .086 0 .086.086v.086l.172-.086c.344.172.688.258 1.117.344.258-.172.43-.086.602-.086h.172c1.375.172 2.75 0 4.125-.258l5.758-.602h.086.086c.172 0 .344.258.258.344l.258.258h.086c-.344-.516-.516-1.027-.687-1.629l-.172-.945c-.086-.344-.086-.684-.086-1.027v-.43-.43c-.344-.172-.773-.344-1.117-.43-1.031-.086-2.148-.254-3.18-.426-.602 0-1.289.086-1.891.172l-2.148.254c-.086 0-.172-.086-.258-.172h-.344c-.172 0-.344-.254-.086-.34.086 0 .172-.086.258-.086h.086-.086-.086c-.172 0-.344.086-.516.086s-.172-.258 0-.344h.086c-.172-.172-.258-.344-.086-.43.086 0 .172-.086.258-.086v-.086h-.258s.086-.172.172-.258h.086c0-.086.172-.172.172-.172.516-.172 1.031-.344 1.547-.43l.086-.086c.344-.082.602-.082.945-.168l.086-.086c.773-.086 1.633-.086 2.406-.086.172 0 .344 0 .43.086.258 0 .602.086.859.172.773.082 1.461.34 2.148.598l.172.086c.258 0 .43.086.602.172.086-.344.172-.687.258-.941 0-.086 0-.086.086-.172l-.172-.086c0 .086-.086.172-.172.086a22.42 22.42 0 0 0-4.039-2.145c-.773-.344-1.633-.687-2.406-.859-.43-.172-.859-.258-1.203-.344-.172-.086-.43-.086-.602-.086-1.117-.344-2.234-.602-3.352-.687zm41.586 2.918l-.516.773c-.859 1.285-1.805 2.402-2.922 3.43h.859c.516.086.945.086 1.461.258 0 0 .086-.086.086 0l.086.086c1.031.258 1.977.688 2.836 1.289v-.086-.086-.687c-.172-1.285-.602-2.488-1.117-3.687v-.086c-.172-.43-.516-.859-.773-1.203zm.172-10.293c-.344.086-.773.172-1.117.258-.687.086-1.375.258-2.062.512-.945.344-1.805.688-2.664 1.117a20.68 20.68 0 0 0-4.723 2.918l-.258.258c-.344.254-.602.598-.945.855-.344.344-.602.688-.945 1.031-.344.426-.859.77-1.203 1.199-.086.086-.172.172-.172.258l.172.086c.172.086.172.344 0 .344-.086 0-.086 0-.172-.086 0 0 0 .086.086.086 0 .086-.086.172-.172.172s-.086 0-.172-.086v.172c.086 0 .344.258.344.344s-.086.168-.172.168-.172-.082-.258-.082c.086.082.086.082.086.168s-.086.172-.172.172c-.172-.086-.344-.172-.43-.258 0 .086-.086.086-.086.086h-.086l.086.086c.516.516.945 1.117 1.289 1.805l.086-.086c.172-.172.344-.258.516-.43l.172-.172-.344.086s.086-.172.172-.172a12.28 12.28 0 0 1 1.719-1.203c.43-.254.773-.512 1.289-.684 1.031-.516 2.148-.859 3.18-1.203.172-.086.344-.086.516-.172h.086.086c.172-.086.426.258.34.344l.172.172h.086c.172 0 .344.172.516.344l.086.086c.086.086.258.258.086.344l-.258.086c0 .086 0 .086-.086.086s-.172.086-.258.086c.086 0 .086.086.172.172l.086.086c.086.086.258.254.086.34l-.258.086c0 .086 0 .086-.086.172-1.285.43-2.574.945-3.777 1.547-.945.512-1.891.855-2.922 1.113-.086 0-.258-.086-.344-.258l-.172.086h-.086c.172.516.344 1.117.43 1.629v.172h.602c1.375-.086 2.836 0 4.211.172.344-.172.859-.512 1.375-.941.172-.086.34-.258.512-.344.945-.773 1.805-1.715 2.578-2.746.688-.941 1.289-1.887 1.805-2.918.43-.941.859-1.973 1.117-3 .258-.945.344-1.887.43-2.832 0-.172 0-.344.086-.516v-.086c-.172-.34-.172-.684-.258-1.027zm-13.23 12.18h-.172c0 .086.086.086.086.172l.172-.172h-.086zm13.059-14.754c.344-.086.602-.172.773-.086-.344 0-.602.086-.773.086zm0 0"/></g><g class="B"><path d="M303.578 164.488c-1.203-.516-2.32-1.285-3.094-2.402-.258-.344-.344-.77-.258-1.113.086-.43.344-.773.602-1.031.344-.258.688-.344 1.117-.344.344.086.688.258.945.602l.086.086c.516.602 1.117 1.203 1.805 1.543s1.461.516 2.234.43c1.461-.172 2.488-.941 3.605-2.059l.43-.43c.086-.172.172-.258.344-.258h.43c.172.086.258.172.344.258s.172.258.086.43c-.086 1.117-.687 2.145-1.547 2.918-.945.855-2.145 1.457-3.348 1.715-1.203.344-2.578.172-3.781-.344zm4.469-17.5c1.371.859 3.434 2.746 1.973 4.805-1.715 1.801-4.207-.258-5.496-1.199-1.117-.687-2.406 1.199-1.375 2.059 8.934 6.605 12.543-5.406 5.586-6.605-.773-.172-1.117.684-.687.941zm-15.984-7.633c.172-1.891 3.008-2.316 3.266-.43.258 1.629-.086 3.172-.773 4.719-.687 1.457-2.492.77-2.664-.516-.172-1.801.086-2.574.172-3.773zm21.824-.859c.43-.516.945-.859 1.633-.687 2.148.602 1.547 3.691.773 5.148-.43.859-1.719 1.113-2.32.344-1.031-1.117-1.461-3.434-.258-4.633.086 0 .086-.086.172-.172zm-19.332-7.379l.344-.086c1.031-.172 2.406-.34 3.094.516.43.43.516 1.289 0 1.715-.945.773-1.977.516-3.094.516-.945.086-1.805.172-2.664.43-1.977.516-3.523 1.543-5.238 2.66-.258.172-.43-.172-.344-.344.945-1.887 2.832-3.434 4.723-4.375.945-.43 2.063-.859 3.18-1.031zm17.355-.855l.258.086c2.836.598 6.531 1.801 7.906 4.547.086.426 0 .512-.086.512-.086.086-.086.172-.258.172h-.172c-.602-.172-1.117-.344-1.547-.598l-.516-.258c-.602-.258-1.203-.602-1.805-.773-1.375-.43-2.75-.773-4.211-.945-.344 0-.602-.168-.859-.34s-.43-.43-.43-.687c-.086-.43-.086-.687.172-1.031.172-.254.43-.426.688-.598.258-.086.516-.086.859-.086zm0 0"/><path d="M150.387 148.57c2.695-.77 5.871-.676 8.66-.48 2.887.191 5.867.578 8.563 1.637 2.309.961 4.234 2.504 5.484 4.719.961 1.828 1.445 3.852 1.734 5.875l.285 2.504.195 1.73c.094.676.094 1.156.289 1.926.383 2.023.863 3.758 2.02 5.297 2.789 3.66 7.313 4.816 11.352 6.355 2.598.965 4.715 2.793 5.293 5.586s21.648 25.906 23.766 27.832l.098.094c1.633 1.445 1.441 4.141 1.633 6.164.289 2.117.484 4.238.676 6.453.48 4.332.867 8.664 1.152 13 1.348 17.043 1.926 34.09 1.828 51.133v.965l-.094 6.547c-.098 2.121-.77 4.141-2.695 5.199-1.828.965-4.039.965-6.062 1.063h-.094l-6.449.289c-8.656.289-17.414.383-26.074.289-17.223-.098-34.539-.484-51.762.48-4.43.289-18.379-1.254-22.805-.867-4.234.387-.578 2.504-3.176 2.313-8.469-.484-16.551-2.312-24.727-4.625-1.059-.289-1.828-1.25-1.828-2.309l.961-35.246 1.828-31.395 1.059-13.578.191-1.926c.195-2.504.387-5.105.867-7.512s1.637-4.523 3.176-6.453c1.441-1.637 17.703-14.926 21.648-17.43 3.754-2.406 7.695-4.43 11.547-6.645 1.633-.961 3.172-.578 4.52-1.73.676-.676 11.164-4.719 14.051-6.07h.094c2.117-1.059 4.137-2.117 5.676-3.945.484-.578 1.445-4.43 1.445-5.586 0-2.117-.191-4.43.48-6.547.77-2.504 2.598-4.336 5.195-5.105zm4.617 55.852l-16.738 32.648h10.871l-7.793 18.102h17.125l-6.062 25.328 34.734-43.527h-13.086l12.992-17.141H178l9.141-14.445zm0 0" class="D"/></g><g clip-path="url(#E)" class="B"><path d="M211.195 222.719l-.094.098s0-.098.094-.098zm-32.52-9.437c-1.539 1.926-3.078 5.875-4.523 7.801l-.578.867c-.574.867.195 2.117 1.156 2.117l5.965-.383c-4.039 4.527-7.504 10.207-11.258 15.023-.289.289-.48.672-.77.961-.961 1.254 0 1.832 1.25 1.445.289-.098.578-.098.77-.191l5.68-1.445c1.059-.289 2.117-.578 3.172-.77.484-.098.867 0 1.254 0-.195.289-.48.867-.48.961-.578.965-1.254 1.926-1.828 2.891l-3.656 5.488c-4.91 7.125-10.297 13.867-15.59 20.703l-4.039 5.105 3.656-7.223 7.023-13.676c.094-.191.289-.48.383-.672.48-.965-.289-1.926-1.344-1.734-4.91.961-9.816 2.215-14.625 3.563-.195.191-.578.289-.867.289-.191.098-.387.098-.578.191.098-.094.098-.289.191-.383-.191-.195-.289-.484-.191-.773 2.789-7.125 6.543-14.059 11.066-20.414h-.578c-4.906.098-9.816.867-14.527 2.215 0-.48.285-1.156.383-1.445.578-1.348 1.25-2.598 1.828-3.852l3.848-7.895 3.656-7.703c.578-1.352 1.254-2.699 1.828-4.141l1.348-3.371c1.25.383 16.742.383 20.59.672.965.098 1.828.098 2.793.195.77 0 1.828.191 2.309-.484l.191.195c-1.73 1.73-3.27 3.754-4.906 5.871zm-60.715-37.363c.098 0 .195-.094.195-.094 0 .094.094.094.094.191l.387.387a2.91 2.91 0 0 0-.676-.484zm108.727 114.309c-.098-2.988-.289-5.973-.48-8.859a526.91 526.91 0 0 0-1.156-17.336c-.961-11.746-1.73-23.496-3.176-35.148-.574-4.91-1.348-9.727-2.211-14.637.094-.098.191-.191.289-.289-.098 1.348 1.73 2.215 2.598.867.094-.098.094-.191.191-.289.77-1.254 2.598-7.414 2.406-7.898-.191-.961-.867-1.73-1.348-2.598-.387-.77-.867-1.445-1.25-2.121-.867-1.441-1.734-2.887-2.695-4.234-1.926-2.891-4.039-5.684-6.543-8.09-2.598-2.504-5.578-4.527-8.66-6.453-1.441-.867-2.98-1.734-4.52-2.504s-3.176-1.539-4.812-2.02c-.098 0-.191.094-.098.191.484.383.867.672 1.348.961-1.25-.48-2.598-.77-3.848-.867l-7.602-2.598c-2.5-.965-4.906-1.926-6.543-4.141-1.441-1.832-2.309-4.141-2.98-6.355-.77-2.41-1.059-5.008-1.734-7.414-.094-.195-.383-.195-.383 0-.48 2.598-.48 5.391-.195 7.992.289 2.695 1.059 5.391 2.695 7.605 1.926 2.602 4.523 3.949 7.504 5.105 2.406.961 4.813 1.828 7.219 2.695-.289.191-.676.387-.965.578-1.344.77-2.691 1.445-4.039 2.117-2.598 1.156-5.293 2.023-7.988 2.699-5 1.25-10.195 1.926-15.395 2.02-10.391.195-20.879-2.02-30.402-6.258-2.695-1.156-5.293-2.504-7.891-3.852-.77-.387-1.637-.867-2.406-1.348h.195c1.828-.195 3.559-.484 5.289-1.062 3.563-1.059 7.023-2.598 10.395-4.141 2.883-1.348 5.77-2.793 7.504-5.582.961-1.445 1.348-3.18 1.73-4.914.387-1.828.867-3.754 1.156-5.68.094-.676-.098-1.543-.77-1.832-.289-.094-.48-.191-.867-.191-.672 0-1.441.48-1.637 1.254-.383 1.73-.672 3.563-.961 5.293-.289 1.543-.578 3.18-1.348 4.527-1.441 2.406-4.234 3.563-6.637 4.719-3.082 1.445-6.062 2.891-9.238 4.047-1.348.48-2.789.961-4.234 1.348.098-.387 0-.773-.191-.965-.387-.48-.77-.77-1.156-1.156-.48-.383-1.152-.578-1.73-.383-.191-.098-.48 0-.77.094-.77.387-1.637.773-2.406 1.156-11.738 5.488-23.09 12.039-31.75 21.859-1.254 1.445-2.406 2.891-3.465 4.43s-2.406 3.082-2.695 5.008c0 .195.195.195.195.098l.285-.867c-.285.867-.191 1.734.098 2.602.387 1.059 1.156 1.73 2.117 2.02-.961 4.141-1.539 8.281-2.117 12.52-.77 6.066-1.25 12.23-1.637 18.297-.77 12.23-1.152 24.555-.863 36.785l.383 10.402.289 5.199c.098 1.734 0 3.563 1.539 4.43 0 .098 0 .098.098.191.383 1.254 1.922.867 2.117-.289 1.25-.961 1.059-2.504.961-3.945l-.289-4.816c-.191-3.082-.289-6.164-.383-9.148-.289-6.066-.387-12.133-.387-18.199-.098-12.137.578-24.27 1.445-36.305.383-5.105.77-10.113.863-15.121.676-.383.867-1.25.48-1.926 7.699 5.199 14.82 11.559 20.496 18.777.961 1.254 1.828 2.504 2.695 3.758.285.387.574.867.863 1.25-.289 1.156-.48 2.41-.77 3.566-.578 2.406-.77 4.813-1.059 7.316-.672 4.91-1.059 9.918-1.441 14.832-.77 9.727-1.348 19.547-1.539 29.371-.098 5.582-.195 11.074 0 16.656-.195 1.063.77 2.121 1.828 2.313.863.098 1.73-.383 2.117-1.059 2.789.387 5.676.48 8.367.48l11.164-.094 22.32-.578 44.645-1.348 12.414-.387c1.828-.098 4.137.48 5.676-.965.289-.289.48-.578.578-.863.48.094.961 0 1.25-.387.578-.676.961-1.254.961-2.117s-.289-1.734-.383-2.504c-.191-1.543-.48-3.082-.676-4.625l-1.152-9.148-1.828-18.68c-.965-12.328-1.25-24.75-1.25-37.172v-3.371c0 .098.094.098.191.191l.094.098c.484.48 1.348.676 2.023.289.77-.48 1.25-1.254 1.922-1.926s1.254-1.348 1.926-2.117c1.25-1.352 2.598-2.602 3.945-3.855l.289-.289.094 11.848.77 17.523 1.734 34.766.48 9.727c.098 1.637.191 3.273.191 4.816 0 .863.098 1.73.098 2.598 0 .965 0 1.926.289 2.793.77 2.023 3.848 2.313 4.426 0 .383-1.445.094-3.176 0-4.621-.191-1.156-.289-2.602-.289-4.141zm0 0"/></g><path d="M195.355 107.152c-2.117-7.609-10.102-10.883-17.32-11.363-19.531-2.117-39.352 8.762-48.012 26.48-6.926 13.387-7.121 27.543 7.699 35.152.77.48 1.633.961 2.5 1.348.77.672 1.539 1.348 2.406 1.926 8.082 5.297 18.09 7.605 27.711 7.125 14.238-.289 19.34-9.918 22.418-22.34 3.367-12.328 5.195-25.715 2.598-38.328zm0 0" class="B D"/><g clip-path="url(#F)" class="B"><path d="M204.688 178.414l-2.309-5.973c-.191-.961-.289-2.02-.289-2.984-.098-3.562.578-7.125 1.348-10.687 1.539-7.031 3.176-14.062 3.945-21.285 1.441-12.902.578-26.289-5.293-38.035-5.004-10.016-13.664-18.297-24.727-21.379-3.273-.965-6.641-1.445-10.008-1.637-.383-.098-.867-.098-1.25-.191-4.715-.676-9.527-1.062-14.242-.773-7.887.484-15.777 2.793-22.32 7.32-6.734 4.527-11.449 10.883-13.664 18.586-2.309 8.09-2.117 16.852-6.059 24.363-1.156 2.215-2.504 4.332-3.852 6.547-3.461 3.852-7.215 8.09-7.984 13.387-.961 6.547 2.789 12.035 6.254 17.141 3.176 4.621 7.602 10.977 4.234 16.66-1.539 2.695-4.043 4.719-5.965 7.125-1.926 2.504-3.465 5.395-4.234 8.57-1.445 5.875-.098 11.941 3.848 16.469 2.02 2.406 4.715 3.949 7.504 5.199 2.887 1.254 5.773 2.406 8.18 4.527 1.059.961 2.117 2.02 3.078 3.176.867 1.348 1.926 2.699 3.078 3.852 1.254 1.352 3.852-.48 2.598-2.02-.094-.098-.191-.195-.285-.387l-2.602-3.371c-2.691-4.332-3.75-9.531-2.402-14.539.383-1.348.863-2.504 1.441-3.758.098.387.289.676.387.965a26.76 26.76 0 0 0 2.402 4.141c0 .867.195 1.734.484 2.598 1.633 5.395 7.023 7.996 11.832 10.113l1.445.578c1.25.578 2.598-1.254 1.828-2.406l-.578-.867c-2.309-3.562-3.367-7.707-2.789-11.941.672-4.43 3.27-8.09 5.867-11.652 2.598-3.469 5.293-7.031 6.445-11.266 1.254-4.719.098-9.344-1.828-13.676-1.828-3.949-4.137-7.609-6.156-11.363.672.672 1.348 1.348 2.117 2.023s1.637 1.539 2.598 2.02c.672.387 1.441-.48.867-1.156-.77-.77-1.734-1.441-2.504-2.117s-1.539-1.348-2.309-2.117c-.961-.867-1.828-1.832-2.695-2.793-.672-1.734-1.25-3.562-1.73-5.297-.578-2.406-1.152-5.008-1.152-7.609s1.344-4.43 3.172-6.16c.77-.773 1.539-1.445 2.309-2.215 1.637-1.156 3.176-2.504 4.715-3.852 2.695-2.41 5.293-4.914 7.699-7.512.672-.676 1.348-1.445 1.926-2.121 2.309-2.309 4.426-4.719 6.445-7.223a32.27 32.27 0 0 0 5.773-2.887l-2.406 2.406c-1.73 1.828-3.656 3.563-5.676 5.008-.195.191-.098.48.191.387 2.598-.484 5.098-1.352 7.313-2.793 2.309-1.445 4.328-3.371 6.254-5.297 1.445-.289 2.5-.867 3.465-1.543.094 0 .094-.094.191-.094-.961 2.984-2.309 6.355-5.293 7.414-.094 0-.094.191 0 .191 2.504-.191 4.426-1.25 6.063-2.887 1.25-.867 2.504-1.832 3.656-2.891 1.059-1.059 2.117-2.117 3.078-3.273-1.441 2.793-2.98 5.488-4.52 8.184-.098.098.094.289.191.195 3.27-2.215 5.773-5.105 7.793-8.477a21.68 21.68 0 0 0 .867-1.539c-.195.77-.48 1.637-.676 2.406-.48 1.445-.863 2.891-1.348 4.238-.191.77-.574 1.539-.863 2.215-.195.48-.578 1.059-.578 1.637 0 0 0 .098.098.098 1.344-.289 2.5-1.832 3.461-2.699.48-.48.965-1.059 1.445-1.637.094 3.469.094 6.84.094 10.305-.094 6.258-.574 12.617-1.059 18.875-.48 5.586-.863 11.461-3.941 16.273-2.406 3.758-6.254 6.355-10.488 7.609l-1.156.289c-6.062 1.445-12.219-.195-17.605-3.082-1.539-.965-2.984 1.445-1.348 2.406 5.867 3.66 13.277 4.91 19.918 3.273-.195 7.801 3.656 15.313 7.504 21.957 2.117 3.758 4.328 7.414 5.773 11.461 1.25 3.465 2.117 7.027 2.5 10.59.387 4.336 0 8.668-.578 12.906 0 .191-.094.48-.094.672-.098.965.672 1.734 1.539 1.254 3.945-2.117 5.676-6.547 6.637-10.594a79.63 79.63 0 0 0 2.023-11.652c.574 1.445.961 2.984 1.344 4.527 0 .191.098.48.098.672.289 1.254 2.215 1.254 2.5 0 .098-.191.098-.48.195-.672 1.633-6.547 2.02-13.387 1.152-20.031a47.63 47.63 0 0 0-2.309-10.398"/></g><path d="M174.949 152.617c-1.348-.578-2.598-1.445-3.465-2.699-.289-.383-.383-.867-.289-1.25.098-.48.387-.867.676-1.156.383-.289.77-.387 1.25-.387.383.098.77.289 1.059.676l.094.098c.578.672 1.254 1.348 2.023 1.73.77.484 1.539.676 2.402.578 1.734-.191 2.887-1.156 4.141-2.309l.48-.484c.094-.191.191-.289.383-.289.195-.094.387-.094.48 0 .195.098.289.195.387.289s.098.289.098.484c-.098 1.25-.77 2.406-1.734 3.273-1.059.961-2.406 1.637-3.75 1.926-1.445.289-2.887.098-4.234-.48zm4.906-19.645c1.539.961 3.848 3.078 2.215 5.391-1.926 2.023-4.715-.289-6.16-1.348-1.25-.867-2.695 1.25-1.539 2.215 10.008 7.414 14.047-6.066 6.156-7.414-.672-.098-1.055.867-.672 1.156zm-17.801-8.574c.191-2.117 3.367-2.598 3.656-.48.289 1.832-.094 3.563-.863 5.297-.773 1.637-2.793.867-2.984-.578-.191-2.023.098-2.887.191-4.238zm24.441-.961c.48-.578 1.059-.965 1.828-.77 2.402.672 1.73 4.141.863 5.777-.48.867-1.922 1.156-2.598.383-1.059-1.348-1.637-3.945-.191-5.199 0 0 0-.094.098-.191zm-21.648-8.281l.383-.098c1.156-.191 2.695-.383 3.465.578.48.48.578 1.445 0 1.926-1.059.867-2.215.48-3.465.578-1.059.098-2.02.191-2.984.48-2.211.578-3.941 1.734-5.867 2.988-.289.191-.48-.195-.387-.387 1.059-2.117 3.176-3.852 5.293-4.91 1.059-.484 2.309-.867 3.563-1.156zm19.434-.867l.289.098c3.176.672 7.313 2.02 8.852 5.102.098.48 0 .578-.098.578 0 .098-.094.098-.285.191h-.195c-.672-.191-1.25-.383-1.73-.672l-.578-.387c-.672-.289-1.348-.672-2.02-.867-1.539-.48-3.078-.867-4.617-1.059-.387 0-.676-.191-.965-.383s-.48-.484-.48-.773c-.098-.48-.098-.77.191-1.152.195-.289.484-.484.77-.676.098-.098.484-.098.867 0zm0 0" class="B"/></svg>