<svg xmlns="http://www.w3.org/2000/svg" zoomAndPan="magnify" preserveAspectRatio="xMidYMid meet" viewBox="76 75.05 799 230.25" xmlns:v="https://vecta.io/nano"><style><![CDATA[.B{fill-rule:evenodd}.C{fill:#ece5d8}.D{clip-rule:nonzero}]]></style><defs><clipPath id="A"><path d="M76 167h152.41v138.305H76zm0 0" class="D"/></clipPath><clipPath id="B"><path d="M103 75.055h93V179h-93zm0 0" class="D"/></clipPath><clipPath id="C"><path d="M536 171h139v134.305H536zm0 0" class="D"/></clipPath><clipPath id="D"><path d="M534.117 75.055H662V189H534.117zm0 0" class="D"/></clipPath><clipPath id="E"><path d="M276.605 161h153v144h-153zm0 0" class="D"/></clipPath><clipPath id="F"><path d="M642.316 168H875v136H642.316zm0 0" class="D"/></clipPath><clipPath id="G"><path d="M729 75.055h73V177h-73zm0 0" class="D"/></clipPath></defs><path d="M94.855 303.531l6.789.359c29.582 1.074 59.074-2.238 88.656-3.043 10.277-.27 20.555-.18 30.742.715.984.09 2.145-.984 2.055-2.059-1.875-16.379-4.289-32.758-5.449-49.223 0-.895.09-1.703.445-2.598.09-.09.359-.805.625-.805-.09.09.27-.09.09 0 1.52-.27 2.949-1.879 1.879-3.402-11.082-17.004-26.187-32.578-31.102-52.805-1.164-5.457-5.273-5.816-9.742-8.055-1.34-.805-4.734-3.133-5.273-4.652-1.34-5.727.984-11.277-5.719-13.605-4.469-1.25-12.332-2.324-16.891-.984-5.539 1.879-5.094 8.055-8.312 12.352-1.605 2.508-4.469 5.816-7.059 6.266-1.25.18-2.145-2.328-3.484-2.238-19.574 4.742-46.293 37.32-54.785 55.313-1.875 5.637 4.199 3.938 3.844 9.664-.445 10.828-1.52 24.613-.895 35.441.535 6.266.18 12.891 2.055 18.887-.535.625.27 1.25.805 1.52.805 1.434 8.402 2.773 10.727 2.953zm0 0" class="B C"/><g clip-path="url(#A)" class="B"><path d="M145.973 168.836c.535-2.328 4.199-1.344 3.574.984-.98 3.578-2.949 6.891-5.809 9.219-2.234 1.789-5.184 3.402-8.133 3.758l.805.805c.625.629 1.34 1.254 1.965 1.793a31.18 31.18 0 0 0 4.469 3.043c6.438 3.488 13.676 4.293 20.914 3.488 3.395-.355 6.883-1.074 10.098-2.238 1.52-.535 2.949-1.34 4.203-2.324l.355-.27c.715-.539 1.609-1.254 1.965-1.969-1.25.27-2.859-1.074-3.754-1.879-.98-.895-1.785-1.969-2.41-3.133-1.164-2.238-1.789-5.191-.805-7.609.09-.18.27-.09.27 0 .266 2.863 1.07 5.461 3.035 7.52.895.895 1.969 1.699 3.129 2.238l.18.09c.535.266.984.535 1.25.984h.27c.09 0 .18 0 .18.09-.18-.27-.18-.629-.18-.984.09-1.523 2.055-1.523 2.324-.18-.09-.18-.09 0 0 .09v-.09.09-.09h.09c.086 0 .176.09.266.09l1.074.266c.715.27 1.43.629 1.875 1.254.359.449.535.984.625 1.523 3.309 1.609 6.438 3.668 9.117 6.262 5.898 5.73 9.918 12.891 13.316 20.316 1.699 3.762 3.215 7.609 4.734 11.547l.27.625c1.609 4.207 3.039 8.414 3.395 12.891 0 .355-.086.805-.355 1.074.09.355.09.715.09.984v.18c.535 0 1.07.176 1.52.805a.76.76 0 0 1 .625 0c1.34.445 1.52 1.879 1.785 3.043.27 1.25.359 2.504.359 3.758 0 .449-.27 1.074-.715 1.254-.805.355-1.699.625-2.594.984-.625.27-1.25.445-1.965.715.359.629.445 1.523.715 2.148l.805 3.133c1.43 7.25 2.414 14.59 3.664 21.836.625 3.672 1.43 7.25 2.234 10.922.359 1.789.805 3.578 1.25 5.277.27.984.449 1.883.715 2.867.09.266.18.535.18.805l.09.445c.27.18.535.359.715.719.625 1.164.27 2.594-.895 3.223-1.25.715-2.859 0-3.574-1.164-.535-.809-.625-1.969-.895-2.867l-.805-3.219c-1.785-7.25-2.949-14.59-3.754-21.93l-.086-.535c-.449-3.762-.895-7.609-1.164-11.367-.18-1.879-.266-3.758-.355-5.637 0-.984 0-1.973.09-2.867 0-.445.086-.805.086-1.25v-.09-.18-.09c-1.34.449-2.59.715-3.93 1.074-2.859.625-5.719.984-8.668.805.445 4.832.891 9.578 1.695 14.41.715 4.563 1.52 9.129 2.414 13.691.445 2.328.984 4.566 1.52 6.805.27 1.25.625 2.414.895 3.668.176.715.176 1.344-.09 1.969.355.895.625 1.789.895 2.688l.086.266c.539 1.523 1.52 3.043.449 4.566-.535.805-1.43 1.164-2.234 1.254h-.09c-.445.266-.984.266-1.52.176-.805.18-1.52.27-2.324.449-1.965.359-3.844.625-5.809.805-3.754.449-7.418.715-11.172.805-13.672.539-27.344-.355-41.02-.09-6.969.09-13.941.449-20.91.898l-10.457.625-1.074.09c-3.129.18-6.254.27-9.293 0-.09 0-.09 0-.18-.09-1.07-.09-2.145-1.074-2.055-2.238l1.43-14.59 2.504-25.953.086-1.254.715-8.77c-.715-.09-1.34-.09-2.055-.18-7.508-.805-14.656-3.043-21.535-6.086l-.27-.09c-.625-.27-1.34-.535-1.965-.805v3.938 6.535c0 4.473.176 8.949.445 13.422.355 7.879.895 15.754 1.52 23.629l.625 5.906c.09 1.164-.18 2.148-1.16 2.777-.539.266-.895.176-1.43-.09-1.254-.629-1.344-1.969-1.43-3.223l-.27-2.773-.449-5.91a208.19 208.19 0 0 1-.266-23.625c.18-3.672.355-7.43.715-11.098l.09-.809c.266-2.953.445-5.996.895-9.039-2.059-.895-4.113-2.059-5.098-4.027-1.25-2.504.09-4.742 2.059-6.176 0-.266 0-.535.09-.715.535-2.418 1.516-4.832 2.41-7.07.895-2.328 1.879-4.562 3.039-6.801 4.469-8.949 10.457-17.094 17.695-23.988 3.574-3.398 7.508-6.531 11.707-9.219 2.055-1.34 4.199-2.504 6.434-3.578l.359-.18c1.52-.715 3.219-1.52 4.914-1.969.18-.09.359-.27.539-.359.715-.445 1.605-.086 1.965.539.18-.18.445-.27.715-.359l.27-.09c1.516-.715 3.395-1.34 5.004-.895 1.07.27 1.875 1.074 2.234 1.969.805-.445 1.695-.895 2.5-1.43 1.254-.895 2.504-1.969 3.488-3.133 1.695-2.418 3.215-5.102 3.93-8.234zm73.016 73.836c-.18 0-.27.09-.445 0 .266 0-.27.18-.449.27-.27.18-.535.359-.895.445-.715.359-1.34.719-2.055.984-1.34.629-2.77 1.074-4.289 1.344-1.43.359-2.949.539-4.379.539-.984 0-2.145 0-3.129-.359.09 1.789.27 3.578.359 5.371l1.965-.449c1.965-.445 4.023-.895 5.988-1.52 1.52-.449 2.949-.895 4.379-1.523.715-.27 1.52-.625 2.234-.895l1.07-.535.27-.18c-.09-.805-.18-1.613-.355-2.328 0-.359-.18-.805-.27-1.164zm-137.359-8.414c-.27.809-.629 1.613-1.52 1.793-.359.09-.539 0-.805-.09l-.09.09c-.715 1.52-.984 3.133.715 4.293.805.539 1.609.984 2.414 1.344 1.52.715 3.125 1.344 4.734 1.879l.27.09c2.77 1.074 5.539 2.059 8.398 2.863s5.813 1.523 8.762 1.969c1.25.18 2.5.27 3.75.359v-5.102c-.445-.09-.891-.09-1.34-.18l-3.93-.535c-2.684-.449-5.363-1.164-8.043-2.059-4.648-1.523-9.207-3.758-13.316-6.715zm53.172-52.176c-1.07-1.164-3.215-.715-4.555-.18-.449.18-.805.359-1.164.539h-.09c-.445.266-.445.445-.266.895.266.715.715 1.34 1.07 1.969 1.609 2.684 3.754 5.012 6.168 7.07 8.578 7.07 21 9.484 31.727 7.16 5.184-1.164 10.188-3.402 13.941-7.16l.355-.359c1.52-1.52 3.664-3.758 3.484-5.996-.086-1.074-.98-1.164-1.875-1.344-.355-.09-.715-.18-1.074-.355.27 1.074-1.07 2.684-1.785 3.309-1.43 1.434-3.129 2.508-5.004 3.313-3.398 1.613-7.152 2.328-10.902 2.863-4.293.539-8.672.449-12.871-.266-3.664-.719-7.328-1.969-10.547-4.027-1.43-.898-2.859-1.973-4.109-3.223l-.27-.27c-.891-.895-1.875-1.969-2.41-3.133h-.629c-.176 0-.176-.18-.086-.27.176-.09.355-.176.445-.266 0-.09-.09-.18-.09-.27s.09-.18.09-.09c.18 0 .27.09.445.09zm0 0"/></g><path d="M144.039 94.094c28.598-1.43 47.992 21.211 48.887 30.25.535 6.266.176 14.59.176 20.23 0 2.863 1.43 11.543-.176 15.66-3.664 9.309-7.777 16.559-19.039 16.559s-28.598-5.906-34.496-13.426c-1.07-1.344-14.477-11.547-14.477-19.512-.09-17.004-1.34-48.687 19.125-49.762zm0 0" class="B C"/><g clip-path="url(#B)" class="B"><path d="M124.469 75.746c1.609-.535 2.68.27 3.395 1.344h.535s.18.09.27.09.09.09.18.09l.355-.359a1.72 1.72 0 0 1 .895-.27l.18-.086c1.25-.449 2.5-.27 3.305.805.18.18.27.445.359.625.266.09.445.18.715.359.18-.09.266-.09.445-.18.895-.27 1.789 0 2.594.535.355.27.625.629.805.984a4.51 4.51 0 0 1 .625.27l.535-.27c.715-.176 1.43-.266 2.145-.266 1.52.09 3.039 1.879 1.965 3.398v.09c-.086.18-.266.359-.355.539.355.18.715.355 1.07.625 1.609 1.344 1.699 3.313 1.434 5.191v.09c.801.09 1.605.984 1.07 1.789-.715 1.074-1.25 2.238-1.875 3.313a26.12 26.12 0 0 0-5.094 2.418l-2.863 2.863c-.445.535-.801 1.074-1.16 1.609.27.18.625.09.895-.18 2.68-2.414 5.809-4.207 9.293-5.367a.9.9 0 0 0 .535-.449c1.52-.449 3.039-.805 4.648-.984.449-.449.895-.805 1.34-1.164.539-.535 1.254-.535 1.699-.18l.805-.266.18-.09c.09 0 .09-.09.176-.09 1.789-.539 3.488-.359 5.273.09l.27.09c.805.176 1.34.176 2.145 0h.09c.895-.27 1.785-.359 2.68-.18.895.266 1.52.805 2.145 1.43l.09.09c.27.359.449.359.805.359h.445c1.52 0 3.039 0 4.203 1.254.445.445.895 1.074 1.16 1.609v.09.09c.18 0 .449-.09.535-.18 1.699-.359 3.129.18 4.203 1.523.266.266.625.895.805 1.16l.266.27c.449.27.984.27 1.43.359 1.254.27 2.594.715 3.219 1.879.18.715.27 1.254.355 1.789.449.27.715.629.984 1.074.27.539.449 1.164.805 1.613.27.355.625.535 1.074.805l.086.09c1.074.625 1.969 1.43 2.324 2.684v.09c.09.18.27.805.09.715.27.09.535.09.625.18.805.27 1.43.625 1.879 1.434.355.535.355 1.164.445 1.699v.27.18.086c.18.09.27.09.449.18.625.359 1.07 1.074 1.07 1.793 0 .355-.09.625-.27.895.18.176.27.445.359.625.18.449.18.984.09 1.523-.09.625-.18 1.16-.359 1.699-.09.18-.09.535-.176.715.176.27.266.539.266.805-.09.449-.266.895-.625 1.164-.18.895-.625 1.879-.984 2.598-.086.09-.086.176-.176.266.09 2.953-.18 5.996-.18 9.039 0 3.223.09 6.535.18 9.758.176 5.371.891 10.918-.715 16.199-1.344 4.297-3.934 7.965-7.418 10.828-3.574 2.863-7.867 4.566-12.422 4.746-2.324.086-4.738-.18-6.973-.719l-.27-.09c-2.145-.625-4.734-1.52-6.344-3.133-.805-.805 0-2.684 1.25-2.145 1.254.445 2.324 1.25 3.574 1.699 1.074.445 2.234.805 3.398 1.074 2.324.535 4.734.625 7.059.27 8.492-1.164 15.105-8.234 16.355-16.559.359-2.328.359-4.656.359-6.98v-2.598l.086-6.441a122.44 122.44 0 0 1 .539-8.234l.176-1.434c.18-1.699.359-3.398.629-5.012-.27 0-2.234-3.488-3.398-5.371-.445-.355-.715-.715-.895-1.25 0-.09 0-.18-.086-.359-.27-.359-.539-.715-.805-1.164h-.09c-.09 0-.09 0-.09-.09-.625-.355-1.074-.805-1.43-1.43-.09-.18-.18-.449-.27-.629-.445-.445-.98-.895-1.52-1.34-.09 0-.09-.09-.176-.09-.719-.27-1.254-.629-1.699-1.164-.18-.09-.359-.18-.535-.359-.539 0-1.074-.09-1.609-.355-.984-.449-1.789-1.254-2.77-1.613-1.074-.359-2.148.539-3.309.359-.27 0-.535-.09-.805-.27-.625.625-1.34 1.254-2.055 1.879-1.074.805-2.145 1.164-3.395 1.523-.629.625-1.344 1.164-2.148 1.25-1.875 1.523-3.93 2.867-6.164 4.027-.359.18-.715.27-.984.27-.715.449-1.43.715-2.234.984-.266.09-.535.09-.715.09l-.715.539c-.445.355-.984.535-1.43.535-.27.27-.625.449-.895.625-.355.18-.805.27-1.16.27-.625.629-1.52.715-2.234.449-.09.09-.18.09-.359.18s-.355.176-.445.176c-.715.809-1.875 1.254-2.949 1.164-.805.539-1.789.805-2.68.719-.18.715-.27 1.43-.359 2.145v.539.18l.27 6.98v.18c.09 2.059.625 5.727-2.414 5.637-1.07 0-2.234-.895-3.129-1.52l-.09-.09c-.086-.09-.176-.09-.176-.18-.625-.09-1.254-.27-1.969-.27-.805 0-1.695.09-2.41.27-1.43.359-2.773.984-3.664 2.148-.09.09-.18.18-.18.266-.09.18-.18.449-.359.629-.891 1.969-.355 4.473.625 6.266a8.78 8.78 0 0 0 5.184 4.293h.09c1.52.449 2.145 1.434 2.949 2.688s1.699 2.328 2.684 3.398c1.875 2.059 4.469 3.762 5.539 6.445.18.539-.445.984-.895.895-1.965-.355-3.305-1.789-4.645-3.133-.984-.895-1.879-1.879-2.773-2.953-.176.09-.355.18-.625.18-.891.09-1.875.09-2.68-.445-.359 0-.715-.09-1.074-.359-.266-.27-.445-.539-.715-.805h-.805c-.086 0-.266-.09-.355-.09-.18-.09-.445-.18-.625-.449-.359-.445-.535-.984-.449-1.52-.086 0-.176 0-.266-.09-.539-.18-.895-.539-1.164-.984-.445-.27-.891-.629-1.16-.984-.359-.449-.625-.895-.805-1.523l-.535-.27c-1.164-.805-1.789-2.234-1.34-3.578 0-.09.086-.18.086-.27v-.266-.27l-.266-.09c-1.164-.449-1.879-1.074-2.055-2.328 0-.27.086-.535.266-.715v-.09c-.09 0-.18-.09-.18-.09-.625-.359-.98-1.074-.98-1.879 0-.625.445-1.164.805-1.699l.09-.18-.27-.09c-.18-.09-.359-.09-.445-.18-.449-.27-.805-.625-1.074-1.074 0-.09-.09-.09-.09-.18-.266-.535-.355-1.254-.18-1.879 0-.09.09-.18.09-.18-.805-.266-1.52-.895-1.52-2.059 0-.445.09-.895.27-1.25-.09-.27-.09-.539 0-.809-.27-.266-.535-.625-.625-.984-.18-.805.18-1.52.715-2.148-.18-.535-.18-1.16 0-1.699-.09-.27-.09-.535-.18-.805 0-.625.18-1.164.535-1.613-.445-.535-.625-1.25-.355-1.969.18-.445.445-.895.625-1.34-.09-.359-.18-.629-.18-1.074 0-.715.27-1.254.625-1.703-.176-.805.18-1.879.984-2.234.27-.18.715-.27 1.16-.359.18-.535.359-.984.539-1.52.266-.809.625-1.613.895-2.328-.18.18-.359.355-.539.445-.625.809-1.52 1.523-2.145 1.969-1.43.809-3.039.359-3.664-1.07-.625.445-1.43.805-2.234.715-.98-.09-1.785-.715-2.055-1.703 0-.176-.09-.266-.09-.445-.535.359-1.07.715-1.699.984-.801.27-1.605-.359-1.695-1.164 0-.27 0-.535.176-.805h-.086c-.449-.18-.715-.539-.895-.984-.895.359-1.965-.09-2.234-1.074a6.61 6.61 0 0 1-.09-3.492c-.984-.715-1.609-1.879-1.699-3.043-.09-.895.09-1.699.539-2.414-.895-.359-1.254-1.523-.805-2.418-.539-.359-.984-.984-.984-1.699-.27-.359-.359-.895-.09-1.434.27-.715.805-1.34 1.52-1.789-.27-.539-.535-1.074-.625-1.609-.535-.18-.984-.629-1.074-1.254-.09-.805.449-1.523 1.164-1.703.09-.266.18-.535.266-.715-.355-.895-.266-1.969.18-2.863.449-.805 1.074-1.344 1.879-1.699-.18-.719.09-1.434.715-1.879.805-.629 1.695-1.164 2.68-1.434-.09-1.164.359-2.328 1.52-2.684.27-.09.625-.18.895-.18.266-.539.625-.895 1.16-1.254.805-.535 2.145-.18 2.594.625 0 .09.086.09.086.18a2.15 2.15 0 0 1 .629-1.164c.805-.805 1.605-.805 2.41-.445l.539-1.074c.805-1.164 2.145-1.344 3.039-.715.445-.359.891-.629 1.34-.809zm5.719 70.168c1.609-.625 3.574-.445 5.094.18l.09.09c1.43.535 3.664 1.789 3.934 3.402.176.805-.629 1.52-1.434 1.074-.715-.359-1.07-1.164-1.605-1.703a8.56 8.56 0 0 0-1.789-1.34c-1.34-.809-2.77-1.074-4.379-1.344-.09-.09-.09-.359.09-.359zm0 0"/></g><g class="B"><path d="M180.137 157.469c.09 0 .27.18.18.27-.449.359-.715 1.164-1.074 1.609l-.895 1.434c-.266.539-.625 1.074-.805 1.699l-.086.09c.086.18.086.359.176.449.359 1.164-.445 2.238-1.43 2.594-1.609.539-3.039-.895-3.039-2.414 0-1.254.805-2.418 1.699-3.223.715-.715 1.609-1.344 2.594-1.789.445-.18.891-.359 1.34-.449.355-.18.895-.09 1.34-.27zm-3.129 4.566a1.27 1.27 0 0 1 .27.355c0-.086-.09-.266-.27-.355zm1.074-17.453c1.43.895 3.574 2.863 2.055 5.012-1.789 1.879-4.379-.27-5.719-1.254-1.164-.805-2.504 1.164-1.43 2.059 9.293 6.895 13.047-5.637 5.809-6.891-.805-.09-1.074.805-.715 1.074zm-11.707-8.414h.266c1.074-.09 2.234-.266 3.309 0 1.43.359 1.34 2.418 0 2.867-1.164.355-2.504.176-3.754.176h-.535c0 .449-.18.895-.449 1.254-.18.27-.445.539-.625.805-.445.629-1.609.629-2.145 0-.359-.445-.625-.895-.625-1.52 0-.18 0-.27.09-.449h-.625c-1.609 0-3.309 0-4.918-.266-.535.086-1.07-.898-.266-1.254 2.145-.805 4.555-1.074 6.789-1.344l3.488-.27zm18.141-.805c1.43-.18 3.039-.359 4.469-.27 2.145.18 2.145 3.043 0 3.313-.805.09-1.609 0-2.414 0 .449.895-.09 1.969-1.07 2.059-.895.09-1.879-.805-1.609-1.789.09-.18.09-.359.18-.539h-.359c-.984-.176-2.324-.355-2.77-1.16-.09-.27 0-.449.09-.629.715-.895 2.5-.895 3.484-.984zm-15.016-6.621c.984-.359 2.059.535 2.234 1.52.18 1.164-.625 1.879-1.695 1.969l-.09.09-6.793.984-3.129.18h-.715c-.895 0-1.875 0-2.77-.27-.27-.09-.359-.355-.09-.535.895-.629 2.145-.895 3.129-1.164l3.219-.805 6.699-1.969zm9.477.266c.266-1.43 2.32-1.609 3.035-.535.449.18 1.164.359 1.609.445.805.27 1.52.449 2.324.629l4.648 1.52c.176.09.09.27 0 .27-2.145.27-4.289.449-6.523.359h-.449c-1.965 0-5.184.18-4.645-2.687zm0 0"/><path d="M539.742 248.309c1.266-3.891-.27-8.512.723-12.676.363-1.719.996-7.875 1.629-11.59.363-1.992-1.809-2.625-2.172-3.437-2.352-7.336 14.84-24.449 15.832-25.082l4.523-2.625c4.523-1.539 9.863-5.977 13.934-3.172 7.059-10.5 4.254-23.449 8.051-24.898 3.801-1.539 15.109-4.617 21.531-.633 3.891 2.898 3.621 7.785 5.34 11.859.996 1.902 1.539 4.711 2.715 5.977 4.07 4.258 9.227 4.98 14.926 5.707.453.09.906-1.09 1.355-.996 9.684 3.078 20.898 4.074 31.758 22.727 1.535 2.625 5.699 6.969 4.34 10.047 9.141 21.277 18.188 69.266-6.965 81.219-.812.543-6.242-2.266-7.148-2.172-1.445 0 1.359 3.621 0 2.984-9.949.727-64.684-1.176-85.672.727-14.387-.09-23.523 2.445-26.871-.09 1.359-3.262 1.266-6.703.816-10.051-3.078-2.266.723-18.379.359-23.09-2.805-3.531-.453-16.477.996-20.734zm0 0" class="C"/></g><g clip-path="url(#C)" class="B"><path d="M544.266 224.68c1.355 1.988 2.625 4.074 3.801 6.246.633 1.086 1.176 2.262 1.629 3.352l.449-7.516c0-.184.363-.273.363-.094.363 2.266.363 4.527.453 6.793.18 0 .27-.09.453-.09 1.629 0 3.254.09 4.883.27l2.262.184c-.633-.637-1.176-1.359-1.719-2.082s-1.176-1.902-.18-2.629c.996-.812 2.984.273 3.98.637.543.18.996.449 1.449.633.633-1.723 2.441-1.902 4.07-1.723 1.176.184 2.262.547 3.348.816l4.25 1.086 7.781 1.539c.09-.09.18-.18.27-.18.906-.18 1.902-.09 2.805 0h2.805l5.066-.09c.453-.273 1.086-.727 1.27-1.27.18-.633-.363-1.449-.633-1.992-.996-2.172-1.359-4.707-.996-7.152.09-.453.18-.906.453-1.359l-5.52.363-11.039.273h-22.074c-4.16 0-8.324-.09-12.484-.273.363.453.633.906.996 1.359.09 0 .18 0 .18.09v.09c.543 1.086 1.086 1.902 1.629 2.719m8.234 76.234c1.719-.09 3.438-.09 5.156-.18l10.039-.363 19.996-.633c6.605-.18 13.297-.363 19.902-.18 6.695.18 13.301.723 19.902 1.176 3.711.27 7.422.453 11.129.543 3.527.09 7.059-.09 10.586.18.09-.906 0-1.719 0-2.625-1.176-.633-2.262-1.359-3.437-2.082-4.07-2.535-7.961-5.434-11.582-8.602-.543-.453-1.086-.996-1.629-1.449.363.816.09 1.902-.992 2.266-1.359.449-2.715.27-4.074.27s-2.805-.09-4.16-.09l-8.141-.18-15.926-.184c-10.676-.09-21.441.09-32.113.273-2.988.09-6.062.09-9.047.09-1.539 0-2.988 0-4.523-.09-1.18-.09-2.445-.273-3.621-.363-.18 2.082-.27 4.164-.453 6.34-.09 1.355-.27 2.805-.359 4.164-.094.543-.094 1.176-.094 1.719 1.086.09 2.262.09 3.441 0m-1.18-59.305c0 1.629.094 3.258.094 4.801.18-.094.27-.184.449-.184 1.902-.27 3.891-.09 5.793 0 1.809 0 3.707 0 5.516.09l5.52.273c.906 0 1.719.09 2.535.18.543.09 1.355.09 1.988.273l-7.871-7.605c-.09-.09-.09-.184-.18-.273-1.719-1.086-3.437-2.262-4.887-3.621-1.176.453-2.531.543-3.797.633-1.629.09-3.258.273-4.887.273h-.273a49.43 49.43 0 0 0 0 5.16m68.035 31.238c-3.98 1.266-8.324 1.266-12.484 1.539l-13.301.633-26.598 1.176-15.199.727c-.359 0-.723-.09-.992-.273l-.637 10.051c0 .453-.09.816-.09 1.27l7.148-.816c2.715-.273 5.43-.453 8.051-.633 5.246-.363 10.496-.816 15.832-.996 10.766-.363 21.531-.273 32.297-.184l9.141.094c1.535 0 3.074 0 4.523.09 1.535 0 3.164-.184 4.613.363-4.344-3.984-8.234-8.602-12.305-13.039m-14.113-13.219c-6.695 1.176-13.48 1.176-20.266 1.266l-20.809.09c-3.98 0-7.871.184-11.852-.18-.453 0-.812-.18-1.086-.453l-.359 12.496c.27-.09.543-.184.813-.184l26.598-1.266c8.867-.273 17.734-.633 26.598-.543 4.344.09 8.867-.184 13.211.723-1.629-1.719-3.258-3.441-4.977-5.07-2.535-2.352-5.246-4.527-7.871-6.879m-5.066-4.891s0-.09 0 0h-.09c-6.242-.18-13.301 1.812-19.09-1.176-2.625-1.359-4.793-3.531-6.875-5.523v.09c0 .18-.09.363-.273.453-.723.27-1.535.363-2.262.453l-2.531.27c-1.898.09-3.801.273-5.699.363s-3.801.09-5.699.18-3.891.273-5.793 0c-.18 0-.359-.09-.449-.18L551.32 257v1.18c.273-.273.637-.363 1.086-.453 3.531-.273 6.969-.18 10.496-.18h10.313l20.809.18c3.348.09 6.695.363 10.043.906l-3.891-3.895m54.371 44.273c1.27.363 2.535.184 3.801.453.09 0 .18.094.18.094 3.801-1.633 6.426-4.98 8.145-8.602a53.09 53.09 0 0 0 3.98-12.316c1.719-8.691 1.719-17.746.813-26.527-.902-8.691-2.621-17.293-5.156-25.535-1.719-5.703-3.98-11.496-7.055-16.66-3.531 2.355-6.336 5.797-8.867 9.145-3.078 3.984-5.883 8.242-8.414 12.68.363.633.363 1.539.543 2.262.27 1.266.453 2.625.633 3.895l1.086 8.418c.723 5.523 1.629 11.047 2.531 16.57.094.453-.09.816-.27 1.086 1.898.996 3.801 2.082 5.609 3.168 4.07 2.535 7.871 5.434 10.766 9.238.09.09 0 .27-.18.18-6.336-5.887-14.297-9.598-22.074-13.219-3.98-1.902-7.965-3.805-11.762-5.977-3.98-2.262-7.781-4.891-11.398-7.695-4.164-3.168-8.055-6.699-11.762-10.414-.453-.453-.363-.996 0-1.355-.09 0-.184-.09-.184-.273-.09-2.445-.812-4.527-2.262-6.52-1.355-1.809-3.074-3.348-4.523-4.98-.723-.723-1.355-1.539-1.898-2.352-.633-.816-.996-1.812-1.445-2.625-.637-.996-1.086-.543-1.449.449-.363 1.09-.273 2.266-.18 3.352.18 1.176.449 2.266.992 3.352.453.996.996 1.992.727 3.078-.543 1.809-2.805 2.898-4.434 3.348-1.902.453-3.891.363-5.789.094-2.445-.273-4.797-.727-7.148-1.18-2.715-.543-5.52-1.176-8.234-1.898l-3.797-1.09c-.453-.09-1.27-.27-1.812 0 6.969 4.168 14.477 6.883 22.168 9.328.992.27.543 1.719-.453 1.539-8.234-1.992-16.016-5.797-23.434-9.871l-.27-.27c-.723-.273-1.539-.453-2.262-.633-.363-.094-2.082-.637-2.352-.453-.273.359.813 1.355 1.086 1.629 1.898 2.172 4.25 3.895 6.691 5.34 2.535 1.449 5.25 2.629 7.871 3.715 2.988 1.266 6.242 2.172 9.141 3.621 1.176.543.359 2.445-.906 2.082-1.629-.543-3.168-1.266-4.703-1.902l-3.891-1.629c-.906-.363-1.809-.816-2.715-1.176l3.98 3.801c2.352 2.176 4.523 4.711 7.328 6.156 2.805 1.539 5.973 1.723 9.047 1.633 1.539 0 3.074-.094 4.703 0s3.078.359 4.617.813c0 0 .09 0 .09.09.09-.09.18-.09.27 0 4.254 2.535 8.051 5.797 11.762 8.965 3.801 3.352 7.418 6.793 10.855 10.504 3.258 3.531 6.516 7.152 10.133 10.41 3.527 3.172 7.238 6.066 11.129 8.785 2.082 1.449 4.25 2.898 6.512 4.164 1.359.633 2.535 1.27 3.891 1.719m-.359-96.336c-1.539-1.719-3.168-3.258-4.887-4.707-.723.18-1.539.27-2.352.27-1.266 0-2.445.09-3.711.09-2.352 0-4.703-.09-7.055-.09h-14.477c-.633 0-1.086-.27-1.355-.633l-2.988 3.262c-1.625 1.719-3.437 3.348-5.336 4.887h1.086 5.066 10.043c6.695 0 13.387 0 20.082.363 1.719 0 3.621 0 5.43.18.996.09 1.988.184 2.984.363.18 0 .363.09.633.09-.996-1.449-2.078-2.805-3.164-4.074m-26.781-15.211s.09.09.184.09a.17.17 0 0 1 0 .273c-.184.09-.273.09-.453.18-.543.727-.906 1.629-1.176 2.082-.816 1.359-1.719 2.625-2.625 3.805-.18.27-.363.453-.543.723l13.48.184 6.965.359 2.895.273c-5.066-3.621-10.676-6.43-16.555-8.512.09.18-.09.363-.18.18-.727-.543-1.449-.27-1.992.363m-22.707 42.828c.09.18.27.359.363.633a1.63 1.63 0 0 1 1.266-.543l17.641-.363c2.895 0 5.883-.09 8.777 0l4.34.273c.996.09 2.082.09 3.078.453 2.352-3.984 4.883-7.879 7.598-11.59-6.332.813-12.754.723-19.09.902-7.145.273-14.383.273-21.531.453-1.988.094-3.98.094-5.879.184-.996 0-1.992.09-3.078.09h-.992c0 .09.09.09.09.18.543 1.18 1.266 2.176 2.082 3.168 1.809 2.086 3.887 3.895 5.336 6.16m7.781 12.402c.18-.633.723-1.086 1.629-.996l14.473.727 7.059.453c1.176.09 2.441.27 3.617.449.816.094 1.719.273 2.445.543-.184-1.719-.273-3.348-.363-5.07-.09-1.355-.09-2.715-.09-4.074 0-.723 0-1.355.09-2.082h-.18c-.094 0-.273 0-.363-.09-1.086.453-2.352.543-3.527.633l-4.164.273c-2.984.18-5.969.18-8.957.27l-17.551.453c.273 1.18.273 2.355-.18 3.531.273-.09.633-.09.906.273 1.629 1.539 3.348 3.078 5.156 4.707m17.008 12.406c.09-.363.363-.637.633-.816.996-.816 2.895-.363 4.16-.27 1.449.09 2.898.18 4.344.18.453 0 2.715.18 4.344.453-.363-2.625-.633-5.16-.906-7.789-.09-.543-.09-1.086-.18-1.629-.816.273-1.629.363-2.441.363-1.18.09-2.445.18-3.621.18-2.441 0-4.793-.09-7.238-.09l-13.027-.453c4.344 3.531 8.867 6.793 13.66 9.688.094.094.184.094.273.184m13.66 1.449c-.363.09-.723.09-.996.09-1.355.18-2.805.27-4.16.359-1.355 0-2.805 0-4.16.094h-.906c3.617 1.992 7.418 3.801 11.129 5.703l-.906-6.246m-39.898-45.543c-8.32 3.531-19.086 3.891-26.234-1.992-.723.18-1.539.27-2.172.359-1.445.184-2.805.273-4.25.363l-8.324.273-16.828.18c-.453 0-.812-.18-1.176-.363-.543.996-1.086 1.992-1.539 2.988-.723 1.449-1.266 2.988-1.809 4.527h.363c7.328-.09 14.746.09 22.074.09l22.074.09c2.082 0 4.07 0 6.063.184 1.086.09 2.168.09 3.164.27.09 0 .273 0 .363.094 1.445-.816 3.164-.637 4.793-.727 1.813 0 3.711-.09 5.52-.09 3.621-.09 7.238-.09 10.855-.09 7.328-.273 14.566-.09 21.715.09 3.617.09 7.145.363 10.676.906.27-.273.449-.637.723-.906 2.531-3.168 5.43-7.242 9.59-8.238-.18-.273-.363-.543-.453-.727-2.895.727-5.969.727-8.867.906-3.344.18-6.691.273-10.039.363l-20.086.359c-1.898 0-3.707.094-5.609.094-.996 0-1.988 0-2.984.09-.543 0-1.086 0-1.629-.184-.453-.18-.996-.449-1.449-.633-.18-.09-.27-.18-.449-.27-1.27.633-2.625 1.355-4.074 1.992m-32.566-11.863c-1.086.273-2.172.363-3.258.453-1.449.09-2.895.18-4.344.18-2.352 0-4.613 0-6.965-.09-.996 0-1.629-.723-1.719-1.449 0 0-.09 0-.09.09-2.805 2.355-5.43 4.98-7.602 7.969l15.742.09c2.805 0 5.52.094 8.324.184 1.355 0 2.715.18 4.07.27h.09c-.18-.18-.27-.359-.449-.543-1.723-1.992-3.078-4.527-3.801-7.152m-34.109 105.301c-.449-1.266-.27-2.625-.27-3.984s0-2.715.09-4.164l.09-8.059.363-16.297c.453-10.773 1.266-21.457 2.531-32.145.633-5.16 1.449-10.32 2.535-15.48l-.09-.09c-1.086-1.449-2.352-2.809-3.348-4.258-.09-.09-.09-.27-.09-.453 0 0-.094 0-.094-.09-.902-.543-.09-1.902.816-1.359-.09-.09 1.355-3.801 1.539-4.164.543-1.355 1.176-2.715 1.898-3.984.453-.812.906-1.539 1.355-2.262.094-.543.363-1.086.906-1.359.906-1.266 1.898-2.535 2.895-3.711 4.254-4.891 9.59-8.781 15.469-11.59l2.535-1.086c.906-.363 1.809-.906 2.715-1.27 1.445-.633 2.895-.633 4.34.094.094.09 0 .27-.09.18-.902-.273-1.898-.273-2.805 0s-1.629.813-2.441 1.266c-1.449.816-2.984 1.449-4.523 2.176-1.898 1.086-3.801 2.172-5.609 3.438 1.809.273 3.711.363 5.609.453 1.355 0 2.805 0 4.16.094.996.09 1.992 0 2.988.18-.184-1.629-.184-3.262.09-4.891.09-.359.18-.723.27-1.176.273-.816.996-.906 1.539-.633l.09-.094c.633-.543 1.176-1.176 1.719-1.809.996-1.359 1.902-2.898 2.535-4.527s1.086-3.258 1.535-4.98c.184-.812.453-1.629.727-2.535.18-.723.359-1.539.723-2.172.09-.09.27-.09.27 0 .184.813.094 1.809.094 2.625 0 .906-.094 1.902-.184 2.809-.27 1.898-.633 3.801-1.355 5.613-.633 1.719-1.449 3.348-2.625 4.887-.723.996-1.809 2.266-3.074 2.809-.18 1.809-.18 3.711.27 5.523.543 2.352 1.629 4.617 3.168 6.609 2.984 4.254 7.871 6.52 12.938 6.973 5.246.453 10.586-.727 15.289-2.988 5.246-2.535 9.59-6.52 13.48-10.777 2.262-2.441 4.613-4.887 6.695-7.512.359-.453.992-1.359 1.625-2.266-.723 0-1.445-.09-2.078-.18-1.266-.184-2.625-.453-3.891-.727-2.352-.633-4.887-1.449-6.965-2.805-4.434-2.809-6.152-6.43-6.695-11.41-.184-1.539 2.531-1.902 2.805-.359.359 2.441.992 3.621 1.719 5.883s1.809 3.078 3.891 4.258c1.898 1.176 4.07 1.809 6.242 2.535l3.527 1.086c.723.18 1.629.453 2.441.723.363-.363.816-.633 1.266-.723 0-.09 0-.09.094-.09s.27.09.359.09.273 0 .363.09c7.328 1.629 14.383 5.07 20.355 9.688.27.09.633.273.906.453.18.09.27.27.27.453.906.723 1.809 1.539 2.625 2.262 6.785 6.43 11.125 14.941 14.203 23.723 2.984 8.602 4.977 17.656 6.152 26.711 1.176 9.234 1.266 18.652-.363 27.797-.906 4.891-2.262 9.777-4.434 14.305-1.898 4.074-4.977 8.691-9.77 9.234l-.09.094c-1.902 1.539-4.707.449-6.695-.453-.273-.184-.633-.273-.906-.453a6.79 6.79 0 0 1 .273 1.902c.09 1.266-1.719 1.355-2.082.27-2.984.543-5.969.543-8.957.543-3.348 0-6.602-.09-9.949-.27l-19.723-.996c-13.391-.453-26.691.453-40.078.996l-11.219.359c-3.801.094-7.602.184-11.398.637-1.359.18-1.902-1.18-1.539-1.992-.09-.543 0-1.18.09-1.902l.273-3.805.543-7.332.902-14.941 1.266-29.789.273-7.242c-.18-.27-.273-.453-.453-.723-.453-.816-.902-1.539-1.355-2.355-.906-1.539-1.902-3.078-2.895-4.617a98.7 98.7 0 0 0-2.625-3.895c-1.176 9.688-2.172 19.379-2.625 29.066-.543 10.684-.812 21.457-.902 32.141l-.09 8.965v4.707c0 1.449.27 3.172-.273 4.527-.633.816-1.719.906-2.082 0zm0 0"/></g><path d="M574.359 111.762c12.574-10.23 32.75-13.582 46.141-3.258 10.492 9.777 14.836 37.301 13.027 51.066-.543 8.871-7.328 18.922-17.191 16.113-1.719-.18-3.348-.812-5.066-.902-2.078-.273-4.07-.273-6.152.09-4.43.633-8.32 2.988-12.664 4.074-7.961 2.082-16.918.633-23.703-3.895-22.707-15.031-12.484-48.801 5.609-63.289zm0 0" class="B C"/><g clip-path="url(#D)" class="B"><path d="M576.078 179.125l-.723-.27c0 .09 0 .09-.09.18 0 .09-.094.18-.094.273.273 0 .637-.094.906-.184m.453-99.145c.09-.27.18-.453.359-.633-.359.09-.633.273-.902.453.18.09.363.18.543.18m49.668 30.332c-.09-.453-.453-.906-.816-1.176l-.18-.18c.363.359.723.813.996 1.355m-90.922 47.535l.633-4.797c.27-1.539.453-3.172 1.266-4.437a27.48 27.48 0 0 1 2.441-3.805c-.09-.633-.27-1.176-.449-1.629-.906-2.625-1.719-5.977.09-8.418.453-.543.902-.996 1.539-1.359.27-.18.633-.363.813-.543.09-.184.09-.09.09-.184 0-.449-.996-1.355-1.176-1.719-.453-.633-.812-1.359-.996-2.082-.992-2.898-.359-6.066.273-8.965a41.43 41.43 0 0 0 .813-4.617c.09-1.449-.09-2.898-.18-4.344s-.09-2.898.543-4.258c.27-.633.723-1.266 1.355-1.629.543-.453 1.176-.727 1.719-1.086.453-.543.273-1.086.184-1.723-.184-.812-.453-1.629-.453-2.441 0-1.449.543-2.898 1.445-3.984.996-1.18 2.355-1.902 3.801-2.082.723-.094 1.359.09 1.992 0s.813-.363.902-.996c.273-1.359.184-2.809.906-4.074.633-1.18 1.719-1.992 2.895-2.445 2.172-.816 4.793-.637 7.055-.184 1.359-4.074 5.703-6.699 9.863-6.699.633-1.086 1.809-1.992 3.074-2.445 2.082-.812 4.344-.359 6.516-.359h.633c.18 0 .453 0 .633-.094 2.535-.27 4.977-1.355 7.418-.27 1.086.453 1.992 1.176 2.535 1.992.813.27 1.629.453 2.441.813 3.527.094 6.965 1.992 8.777 4.98 2.531-.27 5.156.184 6.875 2.266.453.543.723 1.176.996 1.809 1.719.543 3.254 1.539 4.25 2.988.906 1.359 1.086 3.078.453 4.527 1.539 1.086 2.715 2.625 3.258 4.527.359 1.086.359 2.266.18 3.352 1.539.359 2.984.996 4.344 1.898 1.355.996 3.074 2.535 3.164 4.438v.363c2.988-.18 6.063.27 8.145 2.715 1.535 1.813 2.172 4.168 1.809 6.25 3.617.723 6.965 2.625 9.316 5.34 1.719 1.992 3.258 4.527 3.168 7.336 0 .813-.18 1.629-.543 2.445.18.27.273.543.453.902 2.172 1.539 3.801 3.984 4.703 6.703.723 2.172 1.176 4.977.453 7.242-.09.363-.27.633-.453.906l.453.453c1.539 1.719 2.984 3.98 2.895 6.336 0 .996-.363 1.902-.996 2.715 2.082 2.086 3.711 4.711 3.531 7.699-.184 2.535-1.539 5.16-3.801 6.426.363 1.992-.09 4.074-1.629 5.613-.723.816-1.719 1.27-2.625 1.539-.18 2.355-2.262 4.168-4.43 4.711-.453.09-.816.18-1.27.18-1.988.996-4.34.816-6.332 0-.633.727-1.355 1.359-2.262 1.813-.363.18-.723.359-1.176.453-2.805.813-5.789-.273-8.234-1.633-.09 0-.27-.09-.359-.18-.363.363-.996.723-1.266.996-1.086.633-2.445.906-3.711.816-1.449-.094-2.805-.637-4.07-1.27-.184 0-.363.09-.543.09-1.176.09-2.172-.27-3.078-.906a6.44 6.44 0 0 1-1.898 0c-1.355.363-2.715-.18-3.801-1.086-.453-.359-.902-.902-1.355-1.266-.453-.453-.816-.543-1.359-.906-1.266-.723-1.445-2.625-.902-3.895-.09-.27-.18-.453-.18-.812 0-2.535 1.176-4.891 2.621-6.883.633-.906 1.359-1.809 2.082-2.625.633-.633 1.445-1.719 2.352-1.992.09 0 .09-.09.18-.09a6.95 6.95 0 0 1-.27-1.902c.09-.633.27-1.266.633-1.809-1.176-2.176-1.629-4.621-1.355-7.156-.906-1.355-1.629-2.805-1.992-4.344-.18-.996-.363-1.992-.363-3.078 0-.453.184-1.086.184-1.633 0 .184-.273-.449-.273-.543-.902-1.719-2.078-3.078-2.262-5.07-.09-1.176.184-2.441.906-3.437-.453-1.812-.453-3.715.27-5.434.184-.453.453-.906.633-1.359-.09-.363-.18-.723-.359-.996-.09-.09-.09-.27-.184-.363-.539-.449-.992-.992-1.445-1.445-.906-1.09-1.629-2.355-1.629-3.805 0-.723.09-1.449.363-2.082a15.07 15.07 0 0 0 .27-.996c.09-.18.18-.363.273-.453v-.09-.18c0-.727-.094-1.359-.094-1.992a5.21 5.21 0 0 1-2.262 1.355c-1.719.543-3.527.273-5.066-.543-1.625 1.18-3.527 2.176-5.426 2.535-1.176.273-2.352.184-3.437.273-1.176.18-2.262.633-3.348 1.086l-7.238 2.625c-1.988.727-4.07 1.27-6.152.816-.543.906-1.355 1.629-2.262 2.172-.723.363-1.445.633-2.262.816-.723.09-1.539.09-2.082.543s-.902 1.176-1.355 1.629c-.543.543-1.176 1.086-1.898 1.449-.543.27-1.176.453-1.719.633.09 1.27.09 2.625.09 3.895l.09 8.512a134.51 134.51 0 0 0 .27 8.508c.184 2.629.363 5.344.996 7.879 2.082 8.602 9.953 14.758 18.727 15.031 2.625.09 5.16-.273 7.691-1.086 2.625-.816 4.887-2.445 7.508-2.988.727-.094 1.359.543.906 1.266-.723 1.176-1.539 1.902-2.625 2.535-1.176.727-2.531 1.27-3.797 1.723-2.445.902-4.977 1.355-7.512 1.539-1.988.09-3.891 0-5.789-.363-.09.453-.363.813-.543 1.176 0 .09-.09 0-.09 0 0-.09.09-.18.09-.27-.633.813-1.629 1.449-2.625 1.719-.723.18-1.445.273-2.262.18-.27 0-.449-.09-.723-.09-.723.633-1.719 1.086-2.715 1.359.184.996-.359 2.082-1.445 2.445-.453.09-.996.09-1.449.09-.359.18-.812.27-1.176.453-.543.09-1.266 0-1.629-.453-.27.18-.453.27-.633.543-.906 1.086-2.805.18-2.895-.996h-.816c-.09 0-.09.09-.18.09-1.266.543-2.531 1.086-3.891.633-.27-.09-.453-.18-.723-.27-.996.09-1.898.09-2.895-.18-.543-.184-1.086-.453-1.539-.906-1.539.453-3.074.633-4.613.09-1.086-.363-1.992-1.086-2.625-1.902-.992 0-1.988-.18-2.805-.633-1.535-.816-2.531-2.266-3.348-3.805-1.625-3.258-2.621-6.879-2.984-10.5-.543-3.715 0-7.336.363-10.867"/></g><g class="B"><path d="M575.996 165.191c1.266 0 2.625-.453 3.527-.812l.273-.094c.813-.359 1.629-.723 2.262-1.266.18-.18.359-.453.543-.633a.41.41 0 0 0 0-.453c-.184 0-.453-.09-.633-.09h-.273c-.27 0-.543 0-.723.09h-.09c-.184 0-.363.09-.543.09-.543.09-1.086.18-1.719.18h-1.27c-1.176-.09-2.352-.18-3.164.637-.453.09-.543.359-.543.633 0 .363.18.633.359.906.453.633 1.18.813 1.992.813zm-6.695-10.32c.543.813 1.449 1.266 2.625 1.266 2.441-.09 5.246-.996 7.328-2.352.543-.363.902-.906.902-1.449l.094-1.086.539.902c.094.094.094.184.184.273.27.273.453.543.633.723l1.719 2.988c.363.727.633 1.539.906 2.355.449 1.359.902 2.809 1.809 3.805.18.18.359.18.543.18a.5.5 0 0 0 .453-.273c1.176-2.352-.363-5.16-1.629-7.152l-.094-.18c-1.176-1.812-3.074-4.074-5.246-4.437l-.27.363-.363-.273c-.633-.27-1.449-.27-2.082.09l-.723.273c-1.266.543-2.531 1.086-3.891 1.359-.09 0-.18 0-.27.09-.09 0-.184 0-.273.09 0-.09 0-.18.09-.273 0-.09.094-.18.094-.27s.09-.18.09-.273c0-.543.18-.902.27-1.266.543-1.449 1.449-2.809 2.262-4.164l.09-.184c.184-.18.363-.359.453-.543.633-.996 1.449-1.992 1.449-3.078-.906.09-1.629.633-2.262 1.086-.906.637-1.719 1.449-2.535 2.266-1.445 1.629-2.805 3.621-3.348 5.793-.27 1.18-.18 2.445.453 3.352zm23.613-12.043c0-1.266-.723-4.074-2.441-4.074-1.086 0-1.719 1.902-1.902 3.895v.09c-.09 1.176.273 3.895 1.809 3.895 1.629 0 2.445-2.535 2.535-3.805zm-25.875-.363c0-1.266.723-4.074 2.441-4.074 1.086 0 1.719 1.813 1.902 3.715v.18c.09 1.176-.273 3.895-1.902 3.895-1.535 0-2.441-2.445-2.441-3.715zm19.902-7.875c.273 0 .453.09.727.09l1.988.363c1.266.27 2.535.633 3.711 1.086 1.176.363 2.262.813 3.438 1.266.09 0 .09.09.18.09.363.184.816.363 1.176.453l1.809.727c-1.625-2.266-4.16-3.984-6.602-5.16-1.359-.727-2.895-1.27-4.344-1.723l-.812-.27c-1.176-.363-2.535-.727-3.711 0-.453.27-.723.723-.812 1.176s0 .996.359 1.359c.273.359.633.543.996.633.453.09.813 0 1.266-.18h.543zm-18.273.18c.813-.18 1.629-.27 2.441-.18.363 0 .727.09 1.086.09.543.09 1.176.18 1.719.09.363-.09.633-.27.816-.453.27-.27.453-.633.453-.996.09-.359 0-.633-.094-.906a2.11 2.11 0 0 0-.723-.812c-.996-.727-2.625-.543-3.707-.363-1.18 0-2.262.363-3.258.906s-1.809 1.266-2.535 2.172c-.543.727-.812 1.629-1.086 2.535 1.27-1.086 3.258-1.719 4.887-2.082zm0 0"/><path d="M280.867 233.07l138.543 10.996.184.914c2.285 15.121 3.477 25.387 3.477 30.793v.184c0 5.316 1.645 13.836 4.941 25.566l.184.734-147.512.273-1.738-35.187zm81.988-75.512c5.676.273 11.348 2.656 11.715 4.215 1.008 3.48 2.563 18.145 7.688 20.434s16.195.184 19.309 5.59 13.543 27.492 13.543 32.625c0 3.391-33.766 4.582-101.207 3.574.82-27.582 4.484-42.062 10.797-43.527l.547-.094c9.152-2.016 14.645-2.105 17.754-5.312 3.203-3.301 3.754-8.984 5.035-13.289.82-2.383 7.867-4.582 14.82-4.215zm0 0" class="C"/></g><g clip-path="url(#E)" class="B"><path d="M375.211 166.172c.551.184.641.641.73 1.098.184.645.461 1.285.734 1.926l1.465 3.848 1.738 3.852c.273.641.641 1.191 1.004 1.738.277.367.461 1.012.734 1.375 0-.09.09-.273.09-.363 0 0-.09 0-.09.09-.094.09-.184-.09-.094-.09.184-.277.367-.461.641-.551.641-.734 15.742 2.84 19.859 6.965 7.504 7.422 12.535 16.492 15.828 26.207l5.219 16.129 5.582 17.047c.363 1.281-.457 2.383-1.559 2.84l-6.312 2.199c1.008 3.941 1.738 7.973 2.289 12.004 1.098 8.34 1.188 16.77 2.836 25.02.367 1.926.914 3.758 1.371 5.59l.094.457c.273 1.102.547 2.199.914 3.207.367.918.73 1.836 1.008 2.75.273 1.102-.094 2.293-1.191 2.934-.824.457-2.012.273-2.562-.551-.09-.184-.184-.367-.184-.551-.09-.184-.184-.367-.184-.457s0-.09-.09-.184l-.09-.184c-.184-.457-.277-1.008-.457-1.465-.184-.734-.461-1.559-.734-2.293l-.09-.367a63.92 63.92 0 0 1-1.648-5.59c-1.738-6.781-2.012-13.836-2.562-20.711v-.363c-.457-6.234-.641-12.465-.184-18.605h-.184c-.641.184-1.371.367-2.012.641h-.09c-.461.094-.918.277-1.375.367l-.273.094-.184.09-.184.094c-.641.184-1.281.367-1.922.367-1.098.18-2.195.273-3.293.273l1.188 16.586c.461 5.59 1.102 11.09 1.742 16.68.273 2.75.641 5.496 1.004 8.156.184 1.375.367 2.75.641 4.125s.734 2.93.457 4.305c-.09.367-.363.734-.73 1.008-.824.461-1.922.184-2.379-.641 0-.09-.094-.184-.094-.184-.457.184-1.004.273-1.645.273l-8.512.094-11.621.09-36.418.551-4.578.094-20.496.184c-3.387 0-6.863 0-10.25-.094-1.645 0-3.293-.09-4.941-.184h-.273c-1.281-.09-2.746-.184-4.027.094-.363.73-1.281.824-1.738.09-1.098-1.648-1.371-3.848-1.555-5.863l-.094-.734c-.18-2.199-.457-4.398-.547-6.691l-.09-23.918c.09-4.031.457-8.062.914-12.004.09-1.281.273-2.473.457-3.758v-.457-.367-1.191c-.094-1.098-.094-2.109-.094-3.117v-1.738c-.914-.094-2.012-.367-2.836-.551l-4.023-.824c-2.656-.551-5.309-1.285-7.871-2.016l-.551-.184c-2.379-.734-4.848-1.469-7.137-2.477-.914-.367-1.828-.824-2.562-1.465-.09.641-.09 1.281-.184 1.926l-.273 3.754-.09 1.191c-.094 2.02-.277 3.941-.277 5.957-.273 8.617-.273 17.32.184 25.938.184 4.305.551 8.613 1.008 12.918.184 2.109.457 4.219.73 6.324.277 2.199.824 4.309 1.008 6.508.184 2.105-3.02 2.383-3.57.457-.641-2.289-.82-4.766-1.098-7.148v-.273c-.363-2.566-.641-5.039-.914-7.605-.914-8.707-1.098-17.504-.641-26.301.184-4.219.73-8.434 1.371-12.555l.094-.461c.273-1.832.547-3.758.914-5.59l.094-.73c.273-1.559.547-3.301 1.004-4.949l-.184-.094c-.273-.273-.547-.547-.73-.824-.73-.09-1.281-.641-1.281-1.559.273-3.113 1.371-6.23 2.379-9.07 1.008-2.934 2.195-5.773 3.477-8.613 4.668-9.715 11.348-18.605 19.492-25.754 4.301-3.758 9.059-7.055 14.367-9.437 2.563-1.191 5.309-2.109 8.051-2.566 1.375-.273 2.746-.457 4.211-.457 1.188-.641 2.469-.367 3.566.367h.094l.273.09c.094 0 .094.094 0 .184.184.184.367.273.551.457.547.551.547 1.191.273 1.742 1.648 1.465 2.652 3.484 3.75 5.406 1.191 2.109 2.656 3.848 4.484 5.406 6.68 5.59 16.563 8.066 24.984 5.406 6.223-1.922 11.438-7.145 12.902-13.469-.367.09-.734.184-1.098 0-1.648-.734-2.289-2.566-2.93-4.125v-.09c-.641-1.469-1.191-3.027-1.555-4.582-.457-1.559-.641-3.207-.734-4.859v-1.922-.551c0-.367 0-.824.367-1.191zm-27.18-4.309c0-.09.094-.09.184 0 1.465 3.023.551 7.242-.914 10.172-1.465 3.027-3.66 5.406-6.312 7.332l-1.098.824c-2.199 1.559-4.121-2.656-1.648-3.391 2.652-1.375 4.758-3.758 6.223-6.23.824-1.375 1.555-2.75 2.012-4.215.641-1.469 1.008-3.023 1.555-4.492zm0 0"/></g><g class="B"><path d="M328.211 96.059c1.004-1.102 2.285-1.926 3.66-2.109-1.281.641-2.473 1.285-3.66 2.109zm-1.922 9.254c-.184-.824-.277-1.648-.367-2.473.184.367.547.547 1.008.641-.277.641-.551 1.281-.641 1.832zm67.074 12.922c-1.191-4.855-6.59-14.113-7.871-15.855-1.371-4.398 6.133-7.973 2.105-11.453-1.832-1.559-4.301-2.109-6.59-2.656-16.012-3.852-33.215-1.926-48.039 5.129-2.289-.457-4.578.461-6.223 2.109-7.687 7.699 2.742 21.719 5.125 30.426 3.934 9.711-4.211 11.363-3.297 19.609.641 4.215 4.941 5.406 8.602 6.047.551.094 1.375.184 1.555.734.551 3.574 2.563 7.059 5.309 9.348-.273.734-.09 1.559.824 2.199 7.594 5.684 17.113 8.43 26.539 7.973 11.254-.641 17.109-7.055 18.484-8.707 7.777-10.539 6.859-24.375 5.215-36.93-1.098-8.707.273.551-1.738-7.973zm0 0" class="C"/><path d="M358.59 78.098c.367-1.102 1.371-1.742 2.469-1.652 1.008.094 2.105 1.102 2.016 2.199 0 .184-.094.461-.094.645v.09a4.54 4.54 0 0 1-.363 1.008l-.551 1.742c.273 0 .551 0 .824.09l.914-2.199c.273-.824.551-1.832 1.191-2.473.824-.824 2.195-.918 3.109-.367 1.008.551 1.375 1.648 1.191 2.75a1.5 1.5 0 0 1-1.008 1.191h-.09l-.367.824c.09-.094.184-.094.367-.094.18-.09.363-.09.547-.09l1.648-2.75c.641-1.008 2.012-1.465 3.109-.824 1.008.551 1.559 2.109.824 3.117-.547.73-1.098 1.555-1.555 2.383.09 0 .184 0 .273.09 0-.09.094-.09.094-.184.547-.734 1.188-1.191 1.828-1.742s.914-1.375 1.738-1.832c1.008-.551 2.289-.273 2.836.734 1.281 2.199-.914 3.758-2.285 5.133 1.188-.734 2.469-1.469 3.844-2.109.73-.367 1.461-.641 2.195-.918 1.098-.457 2.012-.273 2.93.461.363.367.637 1.098.457 1.648-.367 1.008-.918 1.559-1.922 1.832l-2.199.551c-1.187.367-2.379.734-3.477 1.281.094.094.184.094.277.184l2.559-.73c1.465-.367 2.93-.551 4.395-.734h.457c1.738-.184 3.844-.457 4.941 1.191.367.551.367 1.465 0 2.016-.73 1.008-1.465 1.285-2.746 1.285l3.66.457c.824.09 1.648.273 2.473.457l.457.094c1.008.184 2.105.363 3.02.914 1.922 1.285 1.008 3.758-1.098 4.031-1.008.094-2.105-.273-3.113-.547l-2.926-.551c-.551-.094-1.008-.094-1.555-.184l3.02.641.273.094c1.922.547 4.574 1.555 5.125 3.574.363 1.281-.641 2.383-1.832 2.383-1.098.09-2.012-.551-2.926-1.008-.734-.367-1.375-.645-2.199-.828-.73-.273-1.555-.457-2.379-.641l1.922 1.191.277.184c1.645 1.281 4.207 3.207 3.66 5.5-.184.73-1.008 1.465-1.832 1.375-1.922-.094-3.109-2.293-4.668-3.484l-1.281-.918c2.379 2.844 4.211 6.051 5.676 9.441 3.109 7.332 4.117 14.203 4.117 22.086v.273c0 4.398-.094 8.797-.551 13.195-.363 4.035-1.098 7.973-2.926 11.641-3.02 6.141-8.969 10.813-15.559 12.645-7.32 2.016-15.465.457-21.41-4.215-1.559-1.191.457-3.758 2.012-2.656 6.223 4.398 14.273 5.773 21.414 2.746 5.672-2.379 10.246-7.422 12.168-13.195 1.191-3.664 1.559-7.605 2.016-11.453v-.277c.457-4.031.73-8.062.73-12.094 0-7.516-1.098-13.746-4.391-20.527-1.559-3.207-3.57-6.234-5.949-8.801-.73.184-1.465-.09-2.289-.18-.363 0-.73-.094-1.098-.094.367.273.734.551 1.098.734l.457.367c1.559 1.098 3.48 2.383 3.023 4.488-.094.551-.641 1.102-1.191 1.191-2.012.457-3.387-1.465-4.758-2.656a55.29 55.29 0 0 0-3.66-2.84c-.273-.184-.551-.367-.824-.645.273.277.551.645.824.918l.367.457c1.188 1.469 2.836 3.301 1.738 5.223-.277.551-.918.918-1.465.828-2.105 0-2.836-2.383-3.844-3.852-.824-1.281-1.738-2.473-2.652-3.664-.277-.367-.551-.641-.824-1.008a106.1 106.1 0 0 0-12.812 1.922c-2.93.645-5.766 1.375-8.602 2.293l-.273.09c-1.555.461-3.113 1.102-4.211 2.199-.184.734 0 1.559.094 2.293l.09.551c.551 2.473.914 4.766.641 7.238-.273 2.566-1.008 4.855-1.922 7.238-.457 1.102-.914.918-1.098 2.109a14.04 14.04 0 0 0 0 2.75l.09.73c.184 2.02.277 4.219-1.098 5.957-.184.277-.641.184-.824-.09-.09-.094-.09-.184-.18-.273-.641-.918-1.648-1.469-2.746-1.652-.184 0-.094-.184 0-.273.914-.094 1.828.09 2.652.641-.367-1.281-3.203-.641-4.117-.367a8.07 8.07 0 0 0-3.203 1.559c-1.922 1.465-3.02 3.664-3.02 6.047.094 2.383 1.281 4.582 3.387 5.684 1.008.551 2.195.824 3.293.824 1.191 0 2.289-.551 3.477-.457.734 0 1.191.824.824 1.465-.273.457-.641.734-1.008 1.008 1.008 2.293 2.199 4.398 3.664 6.414.82 1.102 1.738 2.109 2.652 3.027.73.73 2.469 1.555 2.379 2.746 0 .461-.273.734-.641.824-1.281.551-2.746-1.281-3.57-2.105a25.48 25.48 0 0 1-2.836-3.391c-1.465-2.109-2.379-4.582-2.746-7.148-2.012.641-4.574 0-6.223-.734-5.121-2.289-6.77-9.164-3.66-13.746.641-.914 1.375-1.648 2.199-2.289-.184-.094-.367-.277-.551-.367-.824-.918-1.465-2.109-2.105-3.207l-.09-.094-1.555-2.93-.184-.367c-1.098-2.293-2.016-3.301-2.746-5.684-.73-2.289-1.281-4.672-1.648-7.148l-.09-.641c-.184-1.375-.457-2.93-.273-4.305-1.102.363-2.199.547-3.203 0-.734-.367-1.098-1.375-.824-2.109.184-.551.457-1.008.824-1.281a2.85 2.85 0 0 1-.641-.461l-.184-.184c-.641-.547-.734-1.648-.273-2.383 0-.09.09-.18.09-.18.367-.645 1.191-1.102 1.922-1.102h.367c-.367-.09-.734-.184-1.008-.367-1.465-.914-1.281-3.391.551-3.848.73-.184 1.645-.094 2.469.09 0 0-.09 0-.09-.09-.641-.367-1.191-1.191-1.102-1.926.094-.824.367-1.465 1.102-1.922.641-.367 1.555-.461 2.285 0 .551.363 1.098.824 1.648 1.191-.551-.645-1.008-1.375-1.191-2.203-.273-.914.184-2.016 1.008-2.473.641-.367 1.371-.367 2.012-.09 0-.461.094-1.008.461-1.469.641-.914 1.922-1.465 3.02-.824.18.094.363.273.547.457-.367-1.098 0-2.383 1.191-2.84.73-.273 1.738-.184 2.379.367-.367-2.199 2.836-3.848 4.117-1.559l.824 1.648.09.184-.09-.184-.094-.18c-.363-.828-.82-1.652-.914-2.566-.184-1.285.367-2.566 1.832-2.75.73-.094 1.555.273 2.102.824-.273-2.016 2.016-3.574 3.66-2.016.824.734 1.191 1.742 1.648 2.75.273.547.551 1.008.824 1.555l.273-.273c-.457-1.281-.73-2.566-1.004-3.848-.277-1.191.363-2.477 1.555-2.84 1.098-.277 2.563.363 2.836 1.555.184.824.367 1.652.641 2.566.184 0 .273-.09.457-.09v-.461l.094-.547c.09-1.285.273-2.75.914-3.852 1.098-1.832 4.023-1.098 4.117 1.102 0 1.098-.457 2.289-.641 3.391-.09.457-.09 1.008-.09 1.465.273-1.648.73-3.297 1.188-4.855.09.09.184-.094.184-.273zm-25.164 63.414c2.563-.367 4.941 1.008 6.406 3.023.273.367.09.918-.184 1.191-.184.184-.457.273-.734.273s-.73-.184-.82-.457c-.918-1.926-2.656-3.117-4.668-4.031 0 .09 0 0 0 0zm3.566-34.914c.641-.645-.18-1.469-.73-.918s-.914 1.281-1.281 1.926.641 1.281 1.008.547l.184-.273c.18-.457.457-.918.82-1.281zm-7.227-1.102c.73-.09.457-1.281-.277-1.098-.914.18-1.918.363-2.836.457-.73.09-.457 1.281.277 1.098 1.004-.184 1.922-.363 2.836-.457zm43.832-7.699c-.734-.273-1.008.918-.277 1.102 1.008.367 1.922.641 2.84 1.098.641.367 1.281-.641.547-1.008-1.004-.457-2.105-.824-3.109-1.191zm-43.926-1.465c-.73-.273-1.004.824-.273 1.102l2.473 1.008c.73.273 1.004-.824.273-1.102zm52.617-2.75c-.73-.457-1.281.551-.641.918.367.273.824.367 1.191.641l.09.094c.551.547 1.375-.277.824-.828-.457-.363-1.008-.547-1.465-.824zm2.099 58.57h.184c1.098-.094 2.195-.277 3.109.367 1.281.824 1.281 2.656 0 3.48-1.004.641-2.105.457-3.293.367-.914 0-1.922 0-2.836-.094h-5.676c-1.738 0-3.383 0-5.125-.09h-.73c-1.738-.09-3.57 0-5.309-.367h-.09c-.273-.09-.457-.551-.094-.734 1.742-.824 3.664-1.098 5.492-1.465l5.582-.914 5.766-.461 3.02-.09zm-5.676-24.379l.094-.09c1.371-.918 3.293-1.742 4.941-1.102.09 0 .184.094.273.184.367 0 .734 0 1.191.094 3.109.457 5.945 2.473 7.32 5.313 1.555 3.211.824 6.508-2.016 8.707-1.371 1.102-3.02 1.832-4.758 2.016-.547-.09-1.187 0-1.738-.184a5.67 5.67 0 0 1 .551 1.742c.363 2.016-.457 3.758-2.379 4.676-1.738.824-4.027 1.098-5.766.09-1.465-.824-.914-3.664.914-3.391 1.281.184 2.379.551 3.66.09 1.008-.457.367-1.922.094-2.746l-1.832-3.758-.09-.277-1.191-2.562a11.67 11.67 0 0 1-1.008 3.023c-1.098 2.199-3.02 3.574-5.398 4.215-2.379.734-5.215.824-7.687.824-2.469-.09-5.121-.734-6.953-2.566-3.387-3.297-2.379-9.164 1.098-12.004 2.289-1.832 5.492-3.023 8.512-2.75 1.465-.367 3.109-.184 4.668.184 2.012.457 3.934 1.465 5.215 3.023a2.67 2.67 0 0 1 .367-.73c-.094 0-.094-.094 0-.184s.18-.184.273-.277c.367-.551 1.008-1.098 1.645-1.559zm-24.34 15.672c-.09-.184.094-.367.273-.273 1.375.914 2.84 1.738 4.484 2.199 1.559.457 3.203.457 4.758.824.551.184.461.914 0 1.098-1.738.645-3.66.094-5.305-.547-1.738-.828-3.203-1.836-4.211-3.301zm9.336-14.387c-2.016.641-3.57 1.742-4.941 3.297-2.199 2.66-2.289 6.965 1.098 8.801 1.828 1.008 3.934 1.008 5.855.914h.367c1.738-.09 3.566-.273 5.215-.734 1.832-.547 3.109-1.648 3.844-3.391l.09-.18c.734-1.836 1.098-3.941-.273-5.594-2.195-2.84-7.32-3.391-10.434-2.016-.73.367-1.371-.457-.82-1.098zm20.223-.734c-.094.094-.094.094-.184.094-.641.363-1.371.363-2.012.547s-1.281.367-1.832.645c-.914.457-1.922 1.008-2.746 1.648.184.273.367.641.551.914.367.918.547 1.926.457 2.934.641.551 1.098 1.191 1.648 1.832l.457.551c.457.641 1.004 1.285 1.555 1.926.273.367.641.824.914 1.191 0-.094.094-.277.184-.367.273-.457.73-.641 1.281-.551.457.184.73.367 1.191.367.547 0 1.098-.09 1.738-.273a7.52 7.52 0 0 0 2.926-1.836c1.832-1.832.824-4.488-.547-6.23-1.375-1.832-3.477-2.934-5.582-3.391zm-15.922 4.492c.547-.184 1.461.09 1.645.641l.184.457c.094.184.094.277.184.461l.184.09c.184.184.273.367.367.551a2.06 2.06 0 0 1 .18 1.648c-.273.918-1.098 1.559-2.012 1.559-2.652 0-3.387-4.676-.73-5.406zm16.563-.824c1.281-.094 2.105 1.008 2.195 2.199.09.641-.09 1.375-.273 2.016-.277.914-1.191 1.559-2.105 1.375-.734-.094-1.465-.645-1.648-1.469-.273-.641-.363-1.281-.363-1.922-.094-1.285 1.004-2.199 2.195-2.199zm-16.746-10.449c1.281-.184 2.469.457 2.746 1.832.18 1.375-.824 2.293-2.105 2.477-2.473.273-4.941.273-7.32.457-1.008 0-2.016.094-3.02.094h-.551c-.914 0-2.195.18-3.02-.277-.09 0-.09-.09 0-.184.641-.73 1.832-1.098 2.746-1.375h.09c1.098-.457 2.289-.824 3.387-1.191l.551-.184c2.102-.641 4.301-1.281 6.496-1.648zm8.145-.641c.824-.273 1.555-.094 2.105.367 1.828.551 3.66.914 5.488 1.375l.457.09c2.289.551 4.758 1.008 6.863 2.016.184.094.094.367-.09.461-2.379.273-4.941-.184-7.23-.461-2.379-.273-4.852-.73-7.23-.914-1.645-.094-1.922-2.293-.363-2.934zm0 0"/><path d="M654.598 223.762l-6.035-3.395c-1.414-.852-.187-2.926 1.227-2.172l2.168 1.133a12.69 12.69 0 0 1-1.602-1.605c-1.793-1.602.563-4.715 2.637-3.395 1.793 1.32 3.68 2.641 5.754 3.586 4.336 1.887 9.145 2.168 13.859 2.168 1.699-.094 3.301.188 5 .473-.66-2.641-2.266-4.621-3.113-7.074-.66-2.547 3.02-4.34 4.34-1.793.281.566.66 1.227.941 1.793 2.828 2.547 7.543 2.359 10.371 5.094 1.605 1.414 2.453 3.395 2.734 5.375.191 1.32-.094 2.641.66 3.867 3.867 5.473 9.996 14.246 13.109 20.281 2.168-14.434 8.109-32.164 14.238-45.371 1.98-4.246 4.336-8.301 7.355-11.887-.379-1.223.848-3.301 1.602-2.641 2.355-2.922 6.602-3.676 9.902-5.094 4.523-1.98 8.297-6.035 10.184-10.562 2.355-8.773 8.203-9.906 16.406-9.434 7.824 0 13.578 3.301 15.273 11.227 3.492 6.035 11.602 4.996 17.445 6.602 4.34.941 8.488 2.547 12.449 4.434 4.43-4.152 20.176 13.395 21.59 17.922-.66 0-1.508.188-2.355.473-.754.188-.473 1.32.281 1.129.945-.187 1.887-.375 2.832-.469 0 .094.094.188.094.281h.281a2.89 2.89 0 0 0-.66.473c-.566.473.188 1.32.754.941s1.227-.375 1.887-.469c0 1.227 4.715-.285 5.375-.66 3.301-.379 6.602 0 9.617-1.512a247.45 247.45 0 0 0 11.977-2.828c1.035.375 2.074 1.887 1.227 2.922-.473.473.094 1.32.754.945 1.98-1.133 3.488-3.02 4.809-4.906.566-.66 1.695-.473 2.547-.754.094.188.188.379.188.66 3.488.566 1.035 4.34-.754 5.566.941.566.941 1.793.848 2.734.188.281.188.754 0 1.133-.66 1.508-2.074 2.734-3.113 3.961-1.223 1.32-2.262 2.734-3.676 3.773-5.469 4.242-12.164 6.602-19.047 7.453-2.453.375-5.941.941-7.449 3.016.375 2.453 1.035 4.813 1.695 7.168.852 3.207.852 6.512.852 9.719.094-.098.375-.098.375.094.191 1.32.379 2.734 1.133 3.773.754 2.074 1.227 4.336 1.414 6.508 1.039 10.375 1.32 21.035-1.039 31.223-.941 3.773-2.449 7.355-4.43 10.656-.566.945-1.602 1.32-2.453 1.039-2.922 1.508-6.695 1.98-9.805 1.602-10.844-3.109-7.074 4.34-22.254 2.078-26.215-3.301-52.711 3.207-78.926-.66-.66 4.996-9.051 3.582-11.973 1.414-8.77-6.508-13.203-27.262-17.539-37.73-3.02-8.301-8.109-22.922-14.805-28.488-1.98-1.602-4.434-2.355-6.789-3.016l-27.062-6.793c-1.508-.379-1.227-3.02.379-2.828 1.977.375 4.148.66 6.316.848zm0 0" class="C"/></g><g clip-path="url(#F)" class="B"><path d="M855.066 222.156c.566-.094 1.227-.281 1.793-.469l2.637-.945c1.793-.754 3.586-1.602 5.188-2.641 2.641-1.699 4.996-3.867 6.789-6.508l.094-.187c1.039-1.512 2.828-5 .754-6.133 1.32-1.133 2.641-3.113 2.547-4.715-.094-2.172-2.828-2.172-4.242-1.227-.945.566-1.602 1.508-2.262 2.355-.758.945-1.605 1.793-2.453 2.738l-.66.66-.187.188c0-.094.094-.187.094-.281.469-1.418-.094-3.305-1.508-4.059-.852-.375-1.793-.187-2.641.191l-.094.094c-1.133.469-2.359.941-3.586 1.227-4.902 1.414-10.09 1.602-15.086 2.355-1.98.285-3.961.566-5.848 1.133-.754-3.113-2.543-6.133-4.523-8.582-9.43-11.793-24.895-15.66-39.039-18.207-1.32-.187-2.355 1.512-3.113 1.039-1.414-.754-2.641-1.887-3.77-3.02-2.359-2.547-4.055-5.469-5.941-8.301-.941-1.414-3.207-.187-2.262 1.32l.469.754c1.793 3.02 3.773 6.039 6.414 8.301 1.414 1.227 2.922 2.172 4.621 2.832 1.32.469 3.203.848 4.621.375l.188-.281c-.094.094-.094.188-.187.281-3.773 5.473-8.582 10.094-13.582 14.527-5.09 4.434-10.465 8.395-15.934 12.262l-.473.285c-8.957-6.512-16.5-15-21.781-24.715 1.133-.094 2.168-.848 3.113-1.414 1.129-.66 2.168-1.414 3.016-2.453 1.793-2.266 1.602-5.094 1.887-7.828 0-.191-.187-.191-.285-.094-.941.848-1.316 2.168-1.789 3.301-.473 1.32-.945 2.355-1.98 3.207-.941.848-2.168 1.414-3.301 1.98-.566.281-3.488 1.035-3.867 1.602-5.09-1.227-9.992.852-13.766 4.34-3.676 3.395-6.316 7.734-8.676 12.074-2.547 4.621-4.621 9.434-6.316 14.336-1.793 5-3.207 10.094-3.961 15.375-.66 4.434-1.039 8.961-1.32 13.492v.563l-11.504-17.543c.848-2.359-.094-4.812-1.793-6.695-1.883-2.078-4.43-3.02-6.883-4.059l-.281-.187c-1.227-.566-2.359-1.133-3.395-1.98-.945-.754-1.699-1.887-2.734-2.547-1.508-1.039-4.242-.848-4.34 1.508 0 1.227.473 2.641 1.039 3.773.566 1.32 1.32 2.453 2.168 3.492 0 .094.094.094.094.094-1.227.188-2.449.375-3.77.469-2.547.098-5.187-.094-7.641-.66-2.543-.562-5.09-1.414-7.352-2.734-1.98-1.039-3.773-2.453-6.035-2.828-.191 0-.379-.094-.66-.094-.379 0-.754.375-.566.754l.281.566c.754 1.695 1.98 3.395 3.488 4.621l.098.094c-.566-.187-1.039-.379-1.512-.66-3.016-1.32-5.656-3.395-8.863-4.152-.187 0-.281-.094-.469-.094-1.039-.187-1.512.852-.945 1.605.094.094.188.281.285.375 1.414 1.793 3.016 3.398 4.715 4.906l1.789 1.508c.285.191.566.379.754.566l.094.094c-.281-.187-.66-.469-.941-.66-1.98-.562-3.867-1.32-5.75-2.074-.758-.281-1.32.473-1.418 1.039-.281 2.074 2.078 3.582 3.586 4.621s3.203 1.793 4.902 2.359c3.301 1.227 6.789 1.695 10.184 2.168l1.699.188c6.598.945 13.578 2.078 18.293 7.172 2.637 2.922 4.43 6.508 6.129 9.996 1.602 3.492 3.109 7.168 4.43 10.848 1.414 3.773 2.641 7.641 3.961 11.414 1.227 3.492 2.641 6.98 4.055 10.375l.188.566c3.02 7.266 6.695 14.148 11.695 20.188.848 1.035 2.168-.379 1.414-1.414-5.281-6.793-8.961-14.906-12.07-22.922-1.414-3.68-2.547-7.453-3.867-11.133l-.754-2.168-3.207-8.68c-1.414-3.676-2.922-7.262-4.715-10.75l-.187-.379c-1.699-3.395-3.773-6.699-6.602-9.246-5.09-4.621-11.879-5.656-18.48-6.602l-2.074-.281c-2.734-.379-5.562-.754-8.297-1.512-1.605-.469-3.113-.941-4.527-1.695-.566-.285-1.133-.66-1.699-.945 1.512.473 3.113.852 4.715 1.133a9.37 9.37 0 0 0 2.266.281c1.98.191 3.961.191 5.938.098.191 0 .191-.285 0-.285-1.414-.281-2.828-.566-4.242-.941l-.375-.094c0-.191-.094-.473-.285-.758-.66-.848-1.98-1.32-2.922-1.887-.941-.66-1.887-1.32-2.828-2.074-.848-.66-1.605-1.32-2.359-2.074l-.187-.187.188.188c2.074.941 3.961 2.168 6.035 2.922 1.699.566 3.488 1.039 5.188 1.133h.188c1.887.094 3.773.094 5.563.473.191 0 .285-.187.094-.281-1.602-.664-3.297-.945-4.902-1.227 0-.098-.094-.285-.281-.285l-.473-.187c-1.32-.66-2.449-1.227-3.582-2.266-.945-.848-1.699-1.887-2.359-3.016 2.359.469 4.434 2.262 6.602 3.301 2.359 1.133 4.809 1.887 7.355 2.355l.281.098c4.715.754 10.469.66 14.711-1.793.094-.094 0-.285-.094-.285-1.227.191-2.359.473-3.582.66.188-.187.375-.562.094-.941a14.15 14.15 0 0 1-2.453-4.152l-.094-.281c-.281-.754-.66-1.793-.281-2.453.375-.566 1.414-.566 1.98-.281 1.223.566 1.977 1.887 3.016 2.734 1.133.848 2.359 1.508 3.676 2.168l.285.098c2.262 1.035 4.621 1.883 6.316 3.582.945.945 1.793 2.172 1.98 3.492.094.563.094 1.227 0 1.887-.094.469-.375.754-.281 1.223.188.66.941 1.324 1.32 1.887.469.66.848 1.32 1.32 1.887l2.543 3.867 5.094 7.734c.566.852 1.133 1.699 1.602 2.547l.848 1.227.473.66.754 1.133v.285c.094.375.379.566.66.754h.094l12.637 20.281c.188 2.074.473 4.148.66 6.129.379 4.621.66 9.34.754 14.055 0 2.266-.094 4.527-.187 6.793-.094 1.035-.094 2.168-.187 3.207l-.098.754c-.094 1.039-.094 2.074.285 3.113.375.848 1.32 1.035 1.98.375l23.668-.754c14.145-.281 28.191-.187 42.336 0l21.219.566 10.465.285c1.887 0 4.809-.664 4.996-2.738v-.094c.191.094.473.094.758.188h.281.094c2.828.852 6.316-.375 9.055-1.035l.188-.094c2.547-.66 4.621-1.605 6.223-3.68 3.016-3.207 4.055-8.207 4.527-12.734.469-4.34.469-8.68-.094-13.016.375-3.492 0-7.074-.379-10.566-.187-1.699-.473-3.395-.66-5.187l-.566-2.828-.281-1.133v-.191c.281 0 .66 0 1.035-.187.754-.473 1.039-1.32 1.039-2.168 0-2.547-.285-5.187-.566-7.734s-.66-5.094-1.133-7.641l-.094-.66c-.375-1.887-.754-3.867-1.508-5.566 2.828-.473 5.656-.941 8.297-1.887 1.32-.473 2.547-1.039 3.867-1.699zm-146.723 26.789h.094l3.395.852c1.98.469 3.867 1.035 5.66 1.887.375 4.809.941 9.621 1.508 14.43l.094.945-2.547-4.527a516.58 516.58 0 0 0-8.203-13.586zm135.031.473c0 .566.094 1.133.188 1.699l.281 2.641.566 5.375c.094 1.133.188 2.266.188 3.492-1.129-4.246-2.637-8.395-4.055-12.453.285 0 .473-.094.758-.187l.375-.094c.285 0 1.133-.191 1.699-.473zm-138.613-3.961v.188c0 .66.375 1.039.848 1.133-.281-.379-.566-.848-.848-1.32zm129.277-31.789c-1.227.094-2.359.379-3.488.754h-.094c-.852.285-1.98.758-2.266 1.605-.094.281.094.473.379.473.848.094 1.98-.852 2.734-1.227.941-.379 1.887-.66 2.828-.758 2.168-.281 4.527-.094 6.508.758.094.094.188-.191.094-.191-2.074-1.129-4.34-1.602-6.695-1.414zm25.176 5.66l.379-.379c1.035-1.035 1.98-2.168 2.734-3.488l.188-.379c.566-1.129 1.227-2.641-.094-3.488-.754-.379-1.699-.285-2.641 0-.094 0-.094 0-.187.094-.379.094-.758.281-1.133.473-1.508.66-2.828 1.695-4.148 2.547-1.508.941-2.926 1.602-4.715 1.887h-.187c-1.605.281-3.395.566-4.527 1.887-.285.375 0 .941.473.754 3.109-1.039 6.41-1.32 9.238-3.02 1.227-.754 2.266-1.508 3.488-2.168a9.02 9.02 0 0 1 1.98-.852l.379-.094c.188-.094.473-.094.66-.094.375.094.188.285.094.66-.848 2.641-3.207 4.813-5.469 6.227-.473.375-1.039.66-1.602.941-3.586 1.887-7.641 2.832-11.504 3.867-1.512.379-2.547.758-3.02.852-.566-.094-1.508.188-2.168.566s-1.133.848-1.508 1.32c0 0-.379.281-.473.754-.187.473-.281.941-.379 1.414 0 .285 0 .473.191.66-.379 6.227 1.32 12.453 3.203 18.395l.191.566.094.375c2.074 6.32 4.43 12.547 5.469 19.148.66 4.434.66 8.961.188 13.395v.285c-.473 4.148-1.508 8.867-4.148 12.168-1.32 1.695-2.922 2.453-4.996 3.016h-.094c-1.887.473-3.773 1.227-5.66 1.418-1.789.188-3.301-.473-4.809-1.039-3.395-3.02-4.902-7.359-6.035-11.695-2.922-11.32-2.547-23.109-.941-34.523.848-6.039 2.074-11.98 3.203-17.922.566-3.02 1.227-5.945 1.699-8.961l.281-1.793c.191-.945.379-1.98.473-2.926.188-1.32.285-2.641.285-3.961a18.18 18.18 0 0 1 6.691-6.414c1.98-1.133 3.961-1.887 6.129-2.453 6.035-1.602 12.637-1.508 18.766-2.734 2.074-.379 3.961-1.039 5.941-1.793l.281-.094c.852-.379 1.793-.566 2.266.473.281.754.094 1.508-.379 2.168-1.133 1.512-3.488 2.266-5.281 2.832-1.035.375-2.168.563-3.203.754s-2.172.281-3.207.66c-.379.188-.473.754 0 .941 1.32.285 2.641 0 3.961-.187 1.414-.281 2.828-.66 4.242-1.227.281-.094.566-.187.754-.281l.188-.098c-.187.191-.375.285-.66.473-.094 0 0 .191.098.094 3.203-1.227 6.223-3.395 8.484-6.035l.094-.094c.848-.945 2.641-3.68 4.148-2.926 1.414.754-1.035 3.586-1.98 4.719l-.094.094c-1.035 0-2.074.66-3.016 1.227-1.508.941-3.113 1.695-4.715 2.449-3.207 1.512-6.602 2.547-9.711 4.152v.094c1.977-.281 3.957-.848 5.938-1.508h.191c1.223-.379 2.449-.852 3.582-1.32 1.32-.566 2.547-1.133 3.867-1.793 1.129-.66 2.355-1.699 3.676-1.887h.379c1.508.094.281 2.641-.191 3.301-.66 1.227-1.508 2.359-2.449 3.395-1.887 2.078-4.246 3.773-6.789 5-.66.379-1.512.852-2.453 1.133zm0 0"/></g><path d="M764.227 90.754c-11.316 0-27.91 7.543-29.137 14.809-1.508 8.582-4.715 40.844-2.922 51.313 1.695 10.563 8.676 18.395 23.949 18.395s26.688-8.395 29.324-11.227c1.793-1.887 3.68-5.848 5.754-11.789 5.563-.945 8.391-3.68 8.391-8.113s-1.414-7.355-4.242-8.773c1.699-18.488.848-29.996-2.355-34.523-4.906-6.883-17.445-10.09-28.762-10.09zm0 0" class="B C"/><g clip-path="url(#G)" class="B"><path d="M767.434 75.188l-6.223.285h-.285c-3.961-.379-7.824 0-11.785.094-3.773.188-7.734.566-11.031 2.359-.473.188-.758.469-1.133.754-.473.094-.848.188-1.227.375-1.035-.187-2.262.285-2.547 1.512a18.51 18.51 0 0 0-.281 5.563v.094c-.473 1.699-.379 3.586 0 5.379-.187 2.168-.285 4.34-.285 6.508 0 1.508-.094 3.02.098 4.527.094 1.32.66 2.359 1.508 3.301.188.191.473.191.66.191h.188c-.473 1.129-.941 2.262-1.32 3.395-.66 1.793-1.32 3.586-1.793 5.375-.941 3.68-1.508 7.453-1.883 11.227-.66 6.695-.852 13.488-.945 20.281-.094 6.414.473 13.109 4.055 18.582 3.207 4.809 8.016 8.301 13.484 10.188 3.113 1.035 6.508 1.508 9.715 1.602 1.695.094 3.395 0 4.996-.187s3.301-.191 4.43-1.414c.285-.379.285-1.039-.187-1.227-.941-.379-1.508-.473-2.547-.285l-2.543.285c-1.793.094-3.586.094-5.375 0a28.11 28.11 0 0 1-9.617-2.641c-4.715-2.266-8.676-5.852-10.941-10.66-2.543-5.566-2.355-11.98-2.262-17.922.094-6.508.379-13.02.941-19.527.285-3.113.66-6.32 1.039-9.43.188-1.699.473-3.305.754-5l.566-2.641h.375c.852 0 1.699-.191 2.359-.758a1.57 1.57 0 0 0 .941.285c3.395.188 6.887 0 10.375 0h10.371l10.371-.094c3.207-.094 6.508 0 9.715-.566 1.035 3.773 1.035 7.922-1.227 11.32-.66.941-.094 2.074.66 2.641.848.566 2.355 1.508 3.582 1.602.094.285.285.566.379.848.563 1.418 1.129 2.832 1.508 4.246.188.754.375 1.508.473 2.359v.375.191c-.098.375-.191.754-.191 1.129-.187.945-.281 1.887-.469 2.832-.191 1.793-.191 4.055 1.508 5.094.941.566 1.98.473 3.016.094a10.82 10.82 0 0 0 1.793-.941c.375-.191.754-.379 1.035-.566.098-.094.191-.094.285-.191.66.098 1.32.379 1.602.566.945.473 1.793 1.133 2.453 1.98 1.508 1.699 1.98 4.059 1.793 6.227-.191 2.074-1.039 4.34-2.641 5.754-.66.566-1.605.945-2.453.945-.473 0-.848-.098-1.32-.191s-.941-.094-1.32-.281c-.566-.285-1.32.473-1.035 1.035.188.473.281.852.469 1.227-1.602 2.738-3.488 5.285-5.375 7.832-1.695 2.262-3.77 4.148-5.656 6.223-.848.945-1.227 2.738.379 3.113 1.508.379 2.637-1.227 3.582-2.262 3.676-4.152 6.41-8.961 7.73-14.34.566.379 1.227.66 1.98.754 1.414.191 2.828-.094 4.055-.754 4.621-2.734 5.754-9.996 3.582-14.523a8.32 8.32 0 0 0-2.262-2.832c.094-.187.094-.281.094-.473-.094-.281-.187-.66-.281-.941.094-.094.188-.187.188-.285l-.281-2.734c0-1.32.094-2.734.094-4.055 0-2.172-.187-4.34-.187-6.508 0-7.547-.379-15.187-.379-22.734l.094-11.129v-.191c.094-2.922.848-6.883-2.074-8.863-.473-.285-1.035-.285-1.602-.098-1.512-1.035-3.395-1.508-5.187-1.789-3.395-.566-6.883-.852-10.277-1.133-1.793-.187-3.68-.285-5.469-.187-1.699-.098-3.488-.285-5.375-.191zm27.629 66.313c-.66-.66-1.605-.473-2.453-.285-1.133.191-2.168.66-3.113 1.324-1.035.66-2.262 1.602-2.449 2.828-.187 1.133.941 2.453 2.168 1.699 1.133-.758 1.602-2.078 2.641-3.02.473-.473.941-.848 1.508-1.227.285-.187.473-.379.754-.473 0 0 1.133-.375.945.094-.094.191.094.285.281.191.281-.379.094-.758-.281-1.133zm0 0"/></g><g class="B"><path d="M747.453 156.98c-.285-.566-1.039-1.039-1.699-.945-2.922.379-2.922 3.867-1.793 5.848.945 1.793 3.02 2.832 5.094 2.738 2.168-.191 3.961-1.418 4.809-3.398.566-1.32.754-3.773-.66-4.715h-.094c-.66.754-.66 1.98-1.32 2.828-.566.852-1.414 1.512-2.453 1.605-.754.094-1.508-.187-1.789-.848-.191-.379-.094-.566-.094-.852l.094-.187c.281-.754.375-1.32-.094-2.074zm-.758-15.375c-1.508.941-3.77 3.016-2.168 5.281 1.887 1.98 4.621-.281 6.035-1.32 1.227-.848 2.641 1.227 1.508 2.168-9.805 7.266-13.766-5.848-6.129-7.168.852-.187 1.133.754.754 1.039zm15.938-6.227c-.941-1.414-3.02-1.227-3.582.473-.285.848.094 1.695.094 2.547 0 .754 0 1.602.281 2.355.566 1.699 1.98 2.832 3.773 2.832 1.789-.187 3.301-1.227 4.055-2.832s.566-3.207 0-4.809c0-.094-.094-.094-.191-.094-.66.66-1.129 1.414-1.602 2.168l-.473.754c-.375.566-.941 1.32-1.602 1.32h-.094c-.187 0-.187 0-.285-.281-.094-.094-.094-.379-.094-.473v-.094-.473-.094c0-.941.379-2.359-.281-3.301zm-23.48.848c.191-1.789-2.355-2.168-3.109-.848-.473.66-.566 1.508-.66 2.359v.375c-.094.852-.094 1.699.188 2.453.566 1.227 1.793 1.887 3.113 1.793s2.449-.848 3.016-1.98c.566-1.039 1.133-2.926.473-4.059 0-.094-.094-.094-.191 0-.66.566-.754 1.605-1.129 2.266-.379.754-.945 1.508-1.887 1.602-.848.098-1.133-.375-.941-1.129.375-.945 1.035-1.699 1.129-2.832zm22.82-11.414l-.379-.187c-1.414-.566-3.297-1.133-4.43 0-.66.66-.848 1.699-.379 2.547.566 1.039 1.699 1.039 2.734 1.227 1.227.188 2.453.473 3.488.945a42.07 42.07 0 0 1 3.586 1.883c1.035.664 2.168 1.887 3.488 2.078.094 0 .094 0 .094-.094.281-1.227-.566-2.547-1.227-3.492-.848-1.227-1.98-2.168-3.109-3.02-1.227-.754-2.547-1.414-3.867-1.887zm-25.367 4.434h-.094c-.848-.094-1.602-.094-2.262.566-.473.473-.66 1.133-.473 1.887.191.66.66 1.227 1.414 1.414 2.359.473 4.906.379 7.262 0l3.207-.66.473-.094c.848-.281 1.883-.469 2.543-1.133.191-.187.094-.562-.187-.66-1.133-.469-2.641-.187-3.867-.281-1.414 0-2.734-.187-4.148-.281-1.32-.191-2.547-.473-3.867-.758zm-9.516 16.438c.66-.848 1.887-2.074 3.016-1.98.191 0 .191.191.094.285-.375.469-.941.848-1.316 1.32a5.67 5.67 0 0 0-1.039 1.98c-.281 1.035-.379 2.168-.094 3.207.473 1.887 2.074 3.207 3.77 3.867s3.773.941 5.375-.094c2.359-1.512 4.434-3.586 7.355-3.68.66 0 1.227.281 1.508.754.285-.473.758-.754 1.512-.754 3.395 0 5.844 2.266 8.672 3.68 1.887.941 4.34.66 6.32 0 1.887-.566 3.867-1.793 4.523-3.773.379-1.039.285-2.266-.094-3.301-.281-.66-.66-1.32-1.129-1.887s-1.227-.945-1.699-1.414c-.094-.098 0-.285.094-.285 2.266-.187 4.246 2.547 4.715 4.434a6.03 6.03 0 0 1-1.508 5.281c-2.547 2.926-7.262 3.961-10.937 3.113-3.02-.66-5.848-2.359-8.957-2.074-.66.094-1.133-.187-1.512-.66-.281.473-.754.754-1.508.66-2.922-.285-5.469 1.793-8.297 2.262-2.262.379-4.715-.094-6.602-1.32-1.98-1.227-3.395-3.301-3.488-5.754 0-1.227.379-2.734 1.227-3.867"/><path d="M732.707 145.023c3.016 1.414 7.164-.66 9.145-2.926.754-.848 1.32-3.113 1.039-4.621-.754-3.961-3.586-6.414-6.695-7.168-4.148-1.133-8.395 1.695-7.922 5.094.566 3.207 1.227 7.922 4.434 9.621m20.367-7.641c.281 4.34 3.676 8.113 7.918 9.242 6.695 1.887 9.996-2.828 11.504-7.922.191-.473.473-2.074-.469-3.395-3.68-5.187-12.73-4.34-17.164-2.926-1.32 1.32-1.883 3.113-1.789 5m-29.23-6.98c.375-4.434 14.238-2.734 15.84-2.359 4.43 1.32 8.203 4.813 13.199 3.301 5.094-5.754 22.348-4.055 26.027-1.129.66-.285 1.508-.094 2.355.094 4.527-.187 25.176 1.414 20.934 7.168-.66.473-1.32 0-1.32-.941-22.062-7.926-19.895-.473-22.535-1.418l-1.227.285c-1.98.66-2.734.473-3.016 2.734-1.605 17.543-24.988 11.508-23.102-2.926-1.887-.094-3.586-.941-5.566-.094-1.414 13.586-12.258 14.148-15.559 9.434-2.449-3.301-1.508-8.207-4.902-10.754-1.32 1.039-1.414-2.734-1.129-3.395"/></g></svg>