<svg xmlns="http://www.w3.org/2000/svg" zoomAndPan="magnify" preserveAspectRatio="xMidYMid meet" viewBox="75 75.02 585 273.75" xmlns:v="https://vecta.io/nano"><style><![CDATA[.B{fill-rule:evenodd}.C{clip-rule:nonzero}.D{fill:#ece5d8}]]></style><defs><clipPath id="A"><path d="M75 184h182v164.77H75zm0 0" class="C"/></clipPath><clipPath id="B"><path d="M108 75.02h111V198H108zm0 0" class="C"/></clipPath><clipPath id="C"><path d="M383.082 185H660v162H383.082zm0 0" class="C"/></clipPath><clipPath id="D"><path d="M486 75.02h87V197h-87zm0 0" class="C"/></clipPath></defs><path d="M98.16 346.66l8.09.426c35.238 1.277 70.367-2.66 105.605-3.617 12.242-.32 24.484-.215 36.617.852 1.172.105 2.555-1.172 2.449-2.449-2.234-19.473-5.109-38.945-6.492-58.523 0-1.062.105-2.02.531-3.086.105-.105.426-.957.746-.957-.109.105.32-.105.105 0 1.809-.32 3.512-2.234 2.234-4.043-13.199-20.219-31.191-38.73-37.047-62.781-1.383-6.488-6.277-6.914-11.602-9.574-1.598-.957-5.641-3.727-6.281-5.535-1.598-6.809 1.172-13.406-6.812-16.172-5.324-1.488-14.691-2.766-20.121-1.172-6.598 2.234-6.066 9.578-9.898 14.684-1.918 2.98-5.324 6.918-8.41 7.449-1.492.215-2.555-2.766-4.152-2.66-23.312 5.641-55.145 44.371-65.258 65.758-2.234 6.707 5.004 4.684 4.578 11.492-.531 12.875-1.809 29.262-1.062 42.137.637 7.449.211 15.324 2.445 22.453-.637.746.32 1.488.961 1.809.957 1.703 10.004 3.301 12.773 3.512zm0 0" class="B D"/><g clip-path="url(#A)" class="B"><path d="M159.051 186.52c.641-2.766 5.004-1.598 4.258 1.172-1.168 4.254-3.512 8.191-6.918 10.957-2.66 2.129-6.176 4.043-9.687 4.469l.957.957c.746.746 1.598 1.492 2.344 2.129a35.88 35.88 0 0 0 5.324 3.617c7.664 4.152 16.285 5.109 24.91 4.152 4.043-.426 8.195-1.277 12.027-2.66 1.809-.641 3.512-1.598 5.004-2.766l.426-.32c.852-.641 1.914-1.492 2.34-2.34-1.488.316-3.406-1.277-4.469-2.234-1.172-1.066-2.129-2.344-2.875-3.727-1.383-2.66-2.129-6.172-.957-9.043.105-.215.32-.109.32 0 .316 3.402 1.277 6.488 3.617 8.938 1.066 1.063 2.344 2.02 3.727 2.66l.211.105c.641.32 1.172.641 1.492 1.172h.32c.105 0 .211 0 .211.105-.211-.32-.211-.746-.211-1.172.105-1.809 2.449-1.809 2.766-.211-.105-.215-.105 0 0 .105v-.105.105-.105h.109c.105 0 .211.105.316.105l1.277.32c.852.32 1.703.746 2.238 1.488.426.531.637 1.172.742 1.809 3.941 1.918 7.668 4.363 10.859 7.449 7.027 6.809 11.816 15.324 15.863 24.156 2.023 4.469 3.832 9.043 5.641 13.727l.32.742c1.914 5 3.617 10.004 4.043 15.324 0 .426-.105.957-.426 1.277.109.426.109.852.109 1.168v.215c.637 0 1.277.211 1.809.957a.92.92 0 0 1 .746 0c1.598.531 1.809 2.234 2.129 3.617.32 1.488.426 2.98.426 4.469 0 .531-.32 1.277-.852 1.492-.957.426-2.023.742-3.086 1.168-.746.32-1.492.531-2.344.852.426.746.531 1.809.852 2.555l.957 3.723c1.703 8.621 2.875 17.344 4.367 25.965.742 4.363 1.703 8.617 2.66 12.98.426 2.129.957 4.258 1.488 6.277.32 1.172.535 2.234.852 3.406.109.32.215.637.215.957l.105.531c.32.215.641.426.852.852.746 1.383.32 3.086-1.062 3.832-1.492.852-3.406 0-4.258-1.383-.641-.957-.746-2.344-1.066-3.406l-.957-3.832c-2.129-8.617-3.512-17.344-4.473-26.066l-.105-.641c-.531-4.469-1.066-9.043-1.383-13.512-.215-2.234-.32-4.469-.426-6.703 0-1.172 0-2.344.105-3.406 0-.531.105-.957.105-1.488v-.109-.211-.105c-1.598.531-3.086.852-4.684 1.273-3.406.746-6.812 1.172-10.324.961.531 5.746 1.063 11.383 2.02 17.129.852 5.43 1.813 10.855 2.875 16.281.531 2.766 1.172 5.426 1.813 8.086.316 1.492.742 2.875 1.063 4.363.215.852.215 1.598-.105 2.34.426 1.066.746 2.129 1.063 3.195l.109.316c.637 1.809 1.809 3.617.531 5.43-.641.957-1.703 1.383-2.66 1.488h-.109c-.531.32-1.172.32-1.809.211-.957.215-1.809.32-2.77.535a77.65 77.65 0 0 1-6.918.957c-4.473.531-8.836.852-13.309.957-16.285.637-32.574-.426-48.859-.105-8.305.105-16.609.531-24.91 1.063l-12.457.746-1.277.105c-3.727.211-7.453.32-11.07 0-.105 0-.105 0-.215-.105-1.277-.109-2.555-1.277-2.449-2.66l1.707-17.344 2.98-30.859.105-1.488.852-10.43c-.852-.105-1.598-.105-2.449-.211-8.941-.961-17.457-3.621-25.656-7.238l-.32-.105c-.742-.32-1.594-.637-2.34-.957v4.68 7.77c0 5.32.211 10.641.531 15.961.426 9.363 1.066 18.727 1.809 28.09l.746 7.023c.109 1.383-.211 2.555-1.383 3.301-.641.316-1.066.211-1.703-.109-1.492-.742-1.598-2.34-1.703-3.828l-.32-3.301c-.211-2.34-.426-4.68-.531-7.023-.641-9.363-.746-18.727-.32-28.09.215-4.363.426-8.832.852-13.195l.105-.957c.32-3.512.535-7.129 1.066-10.746-2.449-1.062-4.898-2.449-6.066-4.789-1.492-2.98.105-5.641 2.445-7.34 0-.32 0-.641.109-.852.637-2.875 1.809-5.746 2.871-8.406 1.066-2.77 2.238-5.43 3.621-8.09 5.324-10.641 12.457-20.32 21.078-28.516 4.258-4.043 8.941-7.766 13.945-10.961 2.449-1.594 5.004-2.977 7.664-4.254l.426-.215c1.809-.852 3.832-1.809 5.855-2.34.215-.105.426-.32.641-.426.852-.531 1.914-.105 2.34.641.215-.215.531-.32.852-.426l.32-.109c1.809-.852 4.043-1.594 5.961-1.062 1.277.32 2.234 1.277 2.66 2.34.961-.531 2.023-1.062 2.98-1.703 1.492-1.062 2.98-2.34 4.152-3.723 2.023-2.875 3.832-6.066 4.684-9.789zm86.977 87.785c-.215 0-.32.105-.535 0 .32 0-.32.211-.531.32-.32.211-.641.426-1.066.531-.852.426-1.594.852-2.445 1.168a20.44 20.44 0 0 1-5.109 1.598 21.88 21.88 0 0 1-5.219.637c-1.172 0-2.555 0-3.727-.422l.426 6.383 2.344-.531c2.34-.531 4.789-1.066 7.133-1.809 1.809-.535 3.512-1.066 5.215-1.809.852-.32 1.809-.746 2.66-1.066l1.281-.637.316-.215c-.105-.957-.211-1.914-.426-2.766 0-.426-.211-.957-.316-1.383zM82.406 264.301c-.32.957-.746 1.918-1.812 2.129-.426.105-.637 0-.957-.105l-.105.105c-.852 1.809-1.172 3.727.852 5.109a19.35 19.35 0 0 0 2.875 1.594c1.809.852 3.727 1.598 5.641 2.234l.32.109c3.301 1.273 6.598 2.445 10.008 3.402s6.918 1.809 10.43 2.344c1.492.211 2.98.316 4.473.422v-6.062c-.531-.105-1.066-.105-1.598-.215l-4.684-.637c-3.195-.531-6.387-1.383-9.582-2.449-5.535-1.809-10.965-4.469-15.859-7.98zm63.34-62.035c-1.277-1.383-3.832-.852-5.43-.211-.531.211-.957.426-1.383.637h-.109c-.531.32-.531.535-.316 1.066.316.852.852 1.594 1.277 2.34 1.914 3.191 4.469 5.957 7.344 8.406 10.219 8.406 25.016 11.277 37.793 8.512 6.172-1.383 12.133-4.043 16.605-8.512l.426-.426c1.809-1.809 4.363-4.469 4.152-7.129-.105-1.277-1.172-1.383-2.234-1.598-.426-.105-.852-.211-1.277-.426.316 1.277-1.277 3.195-2.129 3.938-1.707 1.703-3.727 2.98-5.965 3.938-4.043 1.914-8.516 2.766-12.984 3.406-5.113.637-10.328.531-15.332-.32-4.363-.852-8.727-2.34-12.562-4.789-1.703-1.062-3.406-2.34-4.895-3.828l-.32-.32c-1.062-1.062-2.234-2.34-2.875-3.723h-.742c-.215 0-.215-.215-.109-.32.215-.105.426-.215.535-.32 0-.105-.109-.211-.109-.32s.109-.211.109-.105c.211 0 .316.105.531.105zm0 0"/></g><path d="M156.75 97.66c34.063-1.703 57.164 25.219 58.23 35.965.637 7.449.211 17.344.211 24.047 0 3.406 1.703 13.727-.211 18.621-4.367 11.066-9.262 19.688-22.676 19.688s-34.066-7.023-41.094-15.961c-1.277-1.598-17.242-13.727-17.242-23.199-.109-20.215-1.598-57.883 22.781-59.16zm0 0" class="B D"/><g clip-path="url(#B)" class="B"><path d="M133.434 75.848c1.918-.641 3.195.316 4.047 1.594h.637a1.1 1.1 0 0 0 .32.105c.105 0 .105.109.215.109l.426-.426a2.02 2.02 0 0 1 1.063-.32l.215-.105c1.488-.535 2.98-.32 3.938.957.215.211.32.531.426.746.32.105.531.211.852.422.215-.105.32-.105.531-.211 1.066-.32 2.129 0 3.09.637.426.32.742.746.957 1.172.32.105.531.215.746.32l.637-.32c.852-.211 1.703-.32 2.555-.32 1.813.109 3.621 2.234 2.344 4.043v.109c-.105.211-.32.426-.426.637.426.215.852.426 1.277.746 1.914 1.594 2.023 3.938 1.703 6.172v.105c.957.105 1.914 1.172 1.277 2.129-.852 1.277-1.492 2.66-2.234 3.938-2.129.742-4.152 1.703-6.07 2.871l-3.406 3.406c-.531.637-.957 1.277-1.383 1.914.32.215.746.105 1.063-.211 3.195-2.875 6.922-5.004 11.074-6.387a1.08 1.08 0 0 0 .637-.531c1.809-.531 3.621-.957 5.535-1.172.535-.531 1.066-.957 1.598-1.383.641-.637 1.492-.637 2.023-.211l.957-.32.215-.105c.105 0 .105-.105.211-.105 2.129-.641 4.152-.426 6.281.105l.32.105a5.14 5.14 0 0 0 2.555 0h.105c1.066-.32 2.129-.426 3.195-.211 1.063.316 1.809.957 2.555 1.703l.105.105c.32.426.531.426.957.426h.535c1.809 0 3.617 0 5 1.488a7.94 7.94 0 0 1 1.387 1.914v.109.105c.211 0 .531-.105.637-.215 2.023-.426 3.727.215 5.004 1.809.32.32.746 1.066.957 1.387l.32.316c.531.32 1.172.32 1.703.426 1.492.32 3.086.852 3.832 2.234.215.852.32 1.492.426 2.129.531.32.852.746 1.172 1.277.32.637.531 1.383.957 1.914.32.426.746.641 1.277.957l.109.109c1.277.742 2.34 1.703 2.766 3.191v.105c.105.215.32.957.105.852.32.105.641.105.746.215.957.316 1.703.742 2.234 1.699.426.641.426 1.387.535 2.023v.32.211.105c.211.109.316.109.531.215.746.426 1.277 1.277 1.277 2.129a1.78 1.78 0 0 1-.32 1.063c.215.215.32.531.426.746.215.531.215 1.168.105 1.809-.105.746-.211 1.383-.426 2.02-.105.215-.105.641-.211.852.211.32.32.641.32.957-.109.535-.32 1.066-.746 1.387-.215 1.063-.746 2.234-1.172 3.086-.105.105-.105.211-.211.316.105 3.512-.215 7.129-.215 10.75 0 3.828.105 7.766.215 11.598.211 6.383 1.063 12.98-.852 19.258-1.598 5.109-4.684 9.469-8.836 12.875-4.258 3.406-9.371 5.426-14.797 5.641-2.77.105-5.645-.215-8.305-.852l-.32-.105c-2.555-.746-5.641-1.809-7.559-3.727-.957-.957 0-3.191 1.492-2.551 1.488.531 2.766 1.488 4.258 2.02 1.277.531 2.66.957 4.043 1.277a22.44 22.44 0 0 0 8.41.32c10.113-1.383 17.992-9.789 19.484-19.687.426-2.766.426-5.531.426-8.297v-3.086l.105-7.664c.105-3.297.32-6.598.637-9.789l.215-1.703c.211-2.02.426-4.043.746-5.957-.32 0-2.664-4.148-4.047-6.383-.531-.426-.852-.852-1.062-1.492 0-.105 0-.211-.109-.426-.316-.426-.637-.852-.957-1.383h-.105c-.109 0-.109 0-.109-.105a4.38 4.38 0 0 1-1.703-1.703c-.105-.211-.211-.531-.316-.746-.535-.531-1.172-1.062-1.812-1.594-.105 0-.105-.105-.211-.105-.852-.32-1.492-.746-2.023-1.387-.211-.105-.426-.211-.637-.426-.641 0-1.277-.105-1.918-.422-1.172-.535-2.129-1.492-3.301-1.918-1.277-.426-2.555.641-3.937.426-.32 0-.641-.105-.957-.32-.746.746-1.598 1.492-2.449 2.234-1.277.961-2.555 1.387-4.047 1.813-.746.742-1.598 1.383-2.555 1.488a43.59 43.59 0 0 1-7.344 4.789c-.426.211-.852.316-1.172.316-.852.535-1.703.852-2.66 1.172-.32.105-.641.105-.852.105l-.852.641c-.535.426-1.172.637-1.703.637-.32.32-.746.531-1.066.746-.426.211-.957.32-1.383.32-.746.742-1.809.852-2.664.531-.105.105-.211.105-.426.211s-.426.215-.531.215c-.852.957-2.234 1.488-3.512 1.383-.957.637-2.129.957-3.195.852-.211.852-.316 1.703-.426 2.555v.637.211l.32 8.301v.215c.105 2.445.746 6.809-2.875 6.703-1.277 0-2.66-1.066-3.727-1.809l-.105-.109c-.105-.105-.211-.105-.211-.211-.746-.105-1.492-.32-2.344-.32-.957 0-2.023.109-2.875.32-1.703.426-3.301 1.172-4.363 2.555-.105.105-.215.211-.215.316-.105.215-.211.535-.426.746-1.062 2.34-.426 5.32.746 7.449 1.383 2.555 3.516 4.258 6.176 5.105h.105c1.809.535 2.555 1.703 3.512 3.195s2.023 2.766 3.195 4.043c2.234 2.445 5.324 4.469 6.602 7.66.211.641-.535 1.172-1.066 1.063-2.34-.422-3.937-2.125-5.535-3.723-1.172-1.062-2.234-2.234-3.301-3.512-.211.105-.426.215-.746.215-1.062.105-2.234.105-3.191-.535a2.04 2.04 0 0 1-1.277-.426c-.32-.316-.531-.637-.852-.957h-.957c-.109 0-.32-.105-.426-.105-.215-.105-.535-.211-.746-.531-.426-.531-.641-1.172-.535-1.809-.105 0-.211 0-.316-.105-.641-.215-1.066-.641-1.387-1.172-.531-.32-1.062-.746-1.383-1.172-.426-.531-.746-1.062-.957-1.809l-.641-.32c-1.383-.957-2.129-2.66-1.594-4.254 0-.105.105-.215.105-.32v-.32-.316l-.32-.109c-1.383-.531-2.234-1.273-2.449-2.766 0-.316.109-.637.32-.852v-.105c-.105 0-.211-.105-.211-.105-.746-.426-1.172-1.277-1.172-2.234 0-.746.531-1.383.957-2.023l.105-.211-.316-.105c-.215-.109-.426-.109-.535-.215a3.7 3.7 0 0 1-1.277-1.277c0-.105-.105-.105-.105-.211a3.22 3.22 0 0 1-.215-2.234c0-.109.109-.215.109-.215-.961-.32-1.812-1.062-1.812-2.445 0-.535.109-1.066.32-1.492-.105-.316-.105-.637 0-.957-.32-.32-.637-.746-.746-1.172-.211-.957.215-1.809.852-2.551-.211-.641-.211-1.383 0-2.023-.105-.32-.105-.637-.211-.957 0-.746.211-1.383.637-1.914-.531-.641-.742-1.492-.426-2.344.215-.531.535-1.062.746-1.594-.105-.426-.211-.746-.211-1.277 0-.852.316-1.488.742-2.023-.211-.957.215-2.234 1.172-2.66.32-.211.852-.316 1.387-.426.211-.637.426-1.168.637-1.809.32-.957.746-1.914 1.066-2.766-.215.215-.426.426-.641.531-.746.957-1.809 1.809-2.555 2.344-1.703.957-3.621.426-4.363-1.277-.746.531-1.703.957-2.664.852-1.168-.109-2.129-.852-2.445-2.023 0-.211-.109-.32-.109-.531-.637.426-1.277.852-2.02 1.168-.961.32-1.918-.422-2.023-1.383 0-.316 0-.637.211-.957h-.105c-.531-.211-.852-.637-1.066-1.168-1.062.426-2.34-.109-2.66-1.277-.426-1.383-.426-2.875-.105-4.152-1.172-.852-1.918-2.234-2.023-3.617-.105-1.062.105-2.02.641-2.871-1.066-.426-1.492-1.809-.961-2.875-.637-.426-1.168-1.168-1.168-2.02-.32-.426-.426-1.066-.109-1.703.32-.852.961-1.598 1.813-2.129-.32-.637-.641-1.277-.746-1.914-.641-.215-1.172-.746-1.277-1.492-.105-.957.531-1.809 1.383-2.02.105-.32.215-.641.32-.852-.426-1.066-.32-2.34.211-3.406.535-.957 1.277-1.594 2.238-2.02-.215-.852.105-1.703.852-2.234.957-.746 2.02-1.387 3.191-1.703-.105-1.383.426-2.77 1.813-3.191.316-.109.742-.215 1.063-.215.32-.637.746-1.062 1.383-1.488.961-.641 2.555-.215 3.09.742 0 .109.105.109.105.215.105-.531.32-.957.746-1.383.957-.957 1.914-.957 2.871-.531l.641-1.277c.957-1.383 2.555-1.598 3.621-.852.531-.426 1.063-.746 1.594-.957zm6.813 83.422c1.918-.746 4.262-.531 6.07.211l.105.105c1.703.641 4.363 2.129 4.684 4.047.215.957-.746 1.809-1.703 1.273-.852-.426-1.277-1.383-1.914-2.02s-1.387-1.172-2.129-1.598c-1.598-.957-3.301-1.277-5.219-1.594-.105-.109-.105-.426.105-.426zm0 0"/></g><g class="B"><path d="M199.746 173.008c.105 0 .32.211.215.316-.535.426-.852 1.387-1.277 1.918l-1.066 1.703c-.32.637-.746 1.273-.957 2.02l-.105.105c.105.215.105.426.211.535.426 1.383-.531 2.66-1.703 3.086-1.918.637-3.621-1.066-3.621-2.875 0-1.488.961-2.871 2.023-3.832.852-.852 1.918-1.594 3.09-2.125.531-.215 1.063-.426 1.594-.535.426-.211 1.066-.105 1.598-.316zm-3.727 5.426c.109.105.215.211.32.426 0-.105-.105-.32-.32-.426zm1.277-20.75c1.703 1.066 4.258 3.406 2.449 5.961-2.129 2.234-5.215-.32-6.812-1.492-1.383-.957-2.98 1.383-1.703 2.449 11.07 8.191 15.543-6.703 6.918-8.195-.957-.105-1.277.957-.852 1.277zm-13.945-10h.32c1.277-.109 2.66-.32 3.938 0 1.703.426 1.598 2.871 0 3.402-1.383.426-2.98.215-4.469.215h-.641c0 .531-.211 1.063-.531 1.488-.215.32-.531.641-.746.957-.531.746-1.914.746-2.555 0-.426-.531-.746-1.062-.746-1.809 0-.211 0-.32.109-.531h-.746c-1.918 0-3.937 0-5.855-.32-.641.105-1.277-1.062-.32-1.488 2.555-.957 5.43-1.277 8.09-1.598l4.152-.316zm21.609-.961c1.703-.211 3.621-.426 5.324-.316 2.555.211 2.555 3.617 0 3.938-.957.105-1.914 0-2.875 0 .535 1.063-.105 2.34-1.277 2.445-1.062.105-2.234-.957-1.914-2.129.105-.211.105-.426.211-.637h-.426c-1.172-.215-2.766-.426-3.301-1.383-.105-.32 0-.531.109-.746.852-1.062 2.98-1.062 4.148-1.172zm-17.883-7.871c1.172-.426 2.449.637 2.66 1.809.215 1.383-.742 2.234-2.02 2.34l-.109.105c-2.766.32-5.43.852-8.09 1.172-1.277.105-2.449.211-3.727.211h-.852c-1.062 0-2.234 0-3.301-.316-.316-.109-.426-.426-.105-.641 1.066-.742 2.555-1.062 3.727-1.383 1.277-.32 2.555-.746 3.832-.957 2.66-.746 5.43-1.383 7.984-2.34zm11.285.316c.32-1.699 2.766-1.914 3.617-.637.535.211 1.387.426 1.918.531.957.32 1.809.531 2.766.746 1.918.531 3.727 1.168 5.539 1.809.211.105.105.32 0 .32-2.555.316-5.109.531-7.773.426h-.531c-2.344 0-6.176.211-5.535-3.195zm0 0"/><path d="M397.484 251.82l-7.176-4.035c-1.68-1.012-.223-3.477 1.461-2.582l2.578 1.348c-.672-.562-1.348-1.234-1.906-1.906-2.133-1.906.672-5.609 3.141-4.039 2.129 1.57 4.371 3.141 6.836 4.262 5.16 2.242 10.879 2.582 16.484 2.582 2.02-.113 3.926.223 5.941.559-.785-3.141-2.691-5.496-3.699-8.41-.785-3.027 3.59-5.16 5.156-2.133.34.676.785 1.461 1.125 2.133 3.363 3.027 8.969 2.805 12.332 6.055 1.906 1.684 2.914 4.039 3.25 6.395.227 1.57-.109 3.141.785 4.598 4.598 6.504 11.887 16.934 15.586 24.109 2.578-17.156 9.645-38.242 16.934-53.941 2.352-5.047 5.156-9.867 8.746-14.129-.449-1.461 1.008-3.926 1.906-3.141 2.801-3.477 7.848-4.375 11.77-6.059 5.383-2.352 9.867-7.176 12.113-12.559 2.801-10.43 9.754-11.777 19.508-11.215 9.309 0 16.145 3.926 18.164 13.344 4.148 7.18 13.793 5.945 20.742 7.852 5.16 1.121 10.094 3.027 14.801 5.27 5.273-4.934 23.996 15.926 25.68 21.309-.785 0-1.797.227-2.805.563-.898.223-.559 1.57.336 1.344 1.121-.223 2.242-.445 3.363-.559 0 .113.113.223.113.336h.336a3.57 3.57 0 0 0-.785.559c-.672.563.227 1.57.898 1.125s1.457-.449 2.242-.562c0 1.457 5.605-.336 6.391-.785 3.926-.449 7.848 0 11.438-1.793a293.99 293.99 0 0 0 14.238-3.367c1.234.449 2.469 2.246 1.461 3.477-.562.563.109 1.57.895 1.125 2.355-1.348 4.148-3.59 5.719-5.832.672-.785 2.02-.562 3.027-.898.113.223.223.449.223.785 4.152.672 1.234 5.16-.895 6.617 1.121.672 1.121 2.129 1.008 3.25.227.336.227.898 0 1.348-.785 1.793-2.465 3.25-3.699 4.711-1.457 1.57-2.691 3.25-4.375 4.484-6.5 5.047-14.461 7.852-22.648 8.859-2.914.449-7.062 1.121-8.855 3.59.445 2.914 1.23 5.719 2.016 8.523 1.012 3.813 1.012 7.738 1.012 11.551.109-.113.445-.113.445.113.227 1.566.449 3.25 1.348 4.484.895 2.469 1.457 5.16 1.68 7.738 1.234 12.336 1.57 25.008-1.23 37.121-1.121 4.484-2.918 8.746-5.27 12.672-.676 1.121-1.906 1.57-2.918 1.234-3.477 1.793-7.961 2.355-11.66 1.906-12.895-3.703-8.41 5.156-26.461 2.465-31.172-3.922-62.68 3.816-93.852-.785-.785 5.945-10.762 4.262-14.238 1.684-10.43-7.738-15.699-32.41-20.855-44.859-3.59-9.867-9.645-27.25-17.605-33.867-2.352-1.906-5.27-2.805-8.07-3.59l-32.184-8.074c-1.793-.449-1.457-3.59.449-3.363 2.355.449 4.934.785 7.512 1.008zm0 0" class="D"/></g><g clip-path="url(#C)" class="B"><path d="M635.867 249.914c.672-.113 1.457-.336 2.129-.559 1.121-.336 2.133-.676 3.141-1.121 2.129-.898 4.262-1.91 6.168-3.141 3.137-2.02 5.941-4.598 8.07-7.738l.113-.227c1.234-1.793 3.363-5.941.898-7.289 1.57-1.344 3.137-3.699 3.027-5.605-.113-2.582-3.363-2.582-5.047-1.461-1.121.676-1.906 1.797-2.691 2.805-.898 1.121-1.906 2.133-2.914 3.254l-.785.785-.227.223c0-.113.113-.223.113-.336.563-1.684-.113-3.926-1.793-4.82-1.008-.449-2.133-.227-3.141.223l-.113.113c-1.344.559-2.801 1.121-4.258 1.457-5.832 1.684-12 1.906-17.941 2.805-2.355.336-4.711.672-6.953 1.344-.895-3.699-3.027-7.289-5.379-10.203-11.215-14.02-29.602-18.617-46.422-21.645-1.57-.227-2.805 1.793-3.699 1.23-1.684-.895-3.141-2.242-4.484-3.586-2.805-3.027-4.824-6.504-7.066-9.871-1.121-1.68-3.812-.223-2.691 1.57l.563.898c2.129 3.59 4.484 7.176 7.625 9.867 1.68 1.461 3.477 2.582 5.492 3.367 1.57.559 3.813 1.008 5.496.445l.223-.336c-.113.113-.113.227-.223.336-4.484 6.508-10.203 12-16.148 17.273-6.055 5.27-12.445 9.98-18.949 14.578l-.559.336c-10.652-7.738-19.625-17.832-25.902-29.383 1.348-.109 2.578-1.008 3.699-1.68 1.348-.785 2.582-1.684 3.59-2.918 2.129-2.691 1.906-6.055 2.242-9.309 0-.223-.223-.223-.336-.109-1.121 1.008-1.57 2.578-2.133 3.922-.559 1.57-1.121 2.805-2.352 3.813-1.121 1.012-2.582 1.684-3.926 2.355-.672.34-4.148 1.234-4.598 1.906-6.055-1.457-11.887 1.012-16.371 5.16-4.371 4.039-7.512 9.195-10.316 14.355-3.027 5.496-5.492 11.215-7.512 17.047-2.129 5.941-3.812 12-4.707 18.277-.785 5.273-1.234 10.656-1.57 16.039v.672l-13.68-20.859c1.008-2.805-.113-5.719-2.129-7.961-2.246-2.469-5.273-3.59-8.187-4.824l-.336-.223c-1.457-.672-2.805-1.348-4.035-2.355-1.121-.898-2.02-2.242-3.254-3.027-1.793-1.234-5.043-1.012-5.156 1.793 0 1.457.559 3.141 1.234 4.488.672 1.566 1.566 2.914 2.578 4.148 0 .109.113.109.113.109-1.461.227-2.918.449-4.488.563-3.027.113-6.164-.113-9.082-.785-3.027-.672-6.055-1.684-8.746-3.25-2.352-1.234-4.484-2.918-7.176-3.367-.223 0-.449-.109-.785-.109-.445 0-.895.445-.672.895l.336.672c.898 2.02 2.355 4.039 4.148 5.496l.113.113c-.672-.227-1.234-.449-1.793-.785-3.59-1.57-6.73-4.039-10.539-4.934-.227 0-.34-.113-.562-.113-1.234-.223-1.793 1.008-1.121 1.906.113.113.223.336.336.449 1.684 2.129 3.59 4.035 5.605 5.832l2.133 1.793c.336.227.672.449.895.672l.113.113c-.336-.223-.785-.559-1.121-.785-2.355-.672-4.598-1.57-6.84-2.465-.898-.34-1.57.559-1.684 1.23-.336 2.469 2.469 4.262 4.262 5.496s3.813 2.133 5.832 2.805c3.922 1.457 8.074 2.02 12.109 2.578l2.02.227c7.848 1.121 16.145 2.465 21.75 8.523 3.141 3.477 5.27 7.734 7.289 11.887a163.73 163.73 0 0 1 5.27 12.895c1.684 4.488 3.141 9.086 4.711 13.57 1.457 4.148 3.137 8.301 4.82 12.336l.223.676c3.59 8.633 7.961 16.82 13.906 23.996 1.008 1.234 2.578-.445 1.68-1.68-6.277-8.074-10.652-17.719-14.352-27.254-1.68-4.371-3.027-8.859-4.598-13.23l-.895-2.582-3.812-10.316c-1.684-4.375-3.477-8.637-5.609-12.785l-.223-.449c-2.02-4.035-4.484-7.961-7.848-10.988-6.055-5.496-14.129-6.73-21.977-7.852l-2.469-.336c-3.25-.449-6.613-.898-9.867-1.793-1.906-.562-3.699-1.125-5.383-2.02-.672-.336-1.344-.785-2.016-1.121 1.793.559 3.699 1.008 5.605 1.344a10.95 10.95 0 0 0 2.691.336c2.355.227 4.707.227 7.063.113a.17.17 0 0 0 0-.336c-1.68-.336-3.363-.672-5.043-1.121l-.449-.113c0-.223-.113-.559-.336-.898-.785-1.008-2.355-1.57-3.477-2.242-1.121-.785-2.242-1.57-3.363-2.465-1.012-.785-1.906-1.57-2.805-2.469l-.223-.223.223.223c2.469 1.121 4.711 2.578 7.176 3.477 2.02.672 4.148 1.234 6.168 1.348h.223c2.242.109 4.484.109 6.617.559.223 0 .336-.223.113-.336-1.906-.785-3.926-1.121-5.832-1.457 0-.113-.113-.336-.336-.336l-.562-.227c-1.57-.785-2.914-1.457-4.262-2.691-1.121-1.008-2.016-2.242-2.801-3.59 2.801.563 5.27 2.691 7.848 3.926 2.805 1.348 5.719 2.242 8.746 2.805l.336.113c5.605.895 12.445.785 17.492-2.133.113-.109 0-.336-.113-.336-1.457.227-2.801.563-4.258.785.223-.223.445-.672.109-1.121-1.23-1.457-2.242-3.141-2.914-4.934l-.113-.336c-.336-.898-.785-2.133-.336-2.918.449-.672 1.684-.672 2.355-.336 1.457.672 2.355 2.242 3.59 3.254 1.344 1.008 2.801 1.793 4.371 2.578l.336.113c2.691 1.23 5.496 2.242 7.512 4.262 1.121 1.121 2.133 2.578 2.355 4.148.113.672.113 1.457 0 2.242-.113.563-.449.898-.336 1.457.223.785 1.121 1.57 1.57 2.242.559.785 1.008 1.57 1.57 2.246l3.027 4.598 6.055 9.195c.672 1.008 1.344 2.02 1.906 3.027l1.008 1.457.563.785.895 1.348v.336c.113.449.449.672.785.898h.113l15.023 24.109c.227 2.469.563 4.934.785 7.289.449 5.496.785 11.105.898 16.711 0 2.691-.113 5.383-.227 8.074-.109 1.234-.109 2.578-.223 3.813l-.113.898c-.109 1.234-.109 2.469.336 3.699.449 1.012 1.57 1.234 2.355.449l28.145-.898c16.82-.336 33.527-.223 50.344 0l25.23.676 12.445.336c2.242 0 5.719-.785 5.941-3.254v-.109c.227.109.563.109.898.223h.336.113c3.363 1.008 7.512-.449 10.762-1.234l.227-.113c3.027-.781 5.492-1.906 7.398-4.371 3.59-3.812 4.82-9.758 5.383-15.141.559-5.16.559-10.316-.113-15.477.449-4.148 0-8.41-.449-12.559-.223-2.02-.559-4.039-.785-6.168l-.672-3.367-.336-1.344v-.227c.336 0 .785 0 1.234-.223.895-.562 1.234-1.57 1.234-2.578 0-3.031-.34-6.168-.676-9.199a127.6 127.6 0 0 0-1.344-9.082l-.113-.785c-.449-2.242-.895-4.598-1.793-6.617 3.363-.559 6.727-1.121 9.867-2.242 1.57-.562 3.027-1.234 4.598-2.02zm-174.469 31.852h.113l4.035 1.008c2.355.563 4.598 1.234 6.727 2.242.449 5.719 1.121 11.441 1.797 17.16l.109 1.121-3.027-5.383-9.754-16.148zm160.563.559c0 .676.113 1.348.227 2.02l.336 3.141.672 6.391c.113 1.348.227 2.691.227 4.152-1.348-5.047-3.141-9.984-4.824-14.805.336 0 .563-.113.898-.223l.449-.113c.336 0 1.344-.227 2.016-.562zm-164.824-4.711v.227c0 .785.449 1.234 1.012 1.344-.34-.445-.676-1.008-1.012-1.57zm153.727-37.793c-1.457.113-2.805.449-4.148.898h-.113c-1.008.336-2.355.898-2.691 1.906-.113.336.113.563.449.563 1.008.109 2.355-1.012 3.25-1.461 1.121-.445 2.242-.785 3.363-.895 2.582-.336 5.383-.113 7.738.895.113.113.223-.223.113-.223a14.05 14.05 0 0 0-7.961-1.684zm29.938 6.73c.109-.113.336-.336.449-.449 1.23-1.234 2.352-2.578 3.25-4.148l.223-.449c.676-1.348 1.461-3.141-.109-4.148-.898-.449-2.02-.336-3.141 0-.113 0-.113 0-.223.109-.449.113-.898.34-1.348.563-1.793.785-3.363 2.02-4.934 3.027-1.793 1.121-3.477 1.906-5.605 2.242h-.223c-1.906.336-4.039.676-5.383 2.246-.336.445 0 1.121.559.895 3.699-1.234 7.625-1.57 10.988-3.586 1.457-.898 2.691-1.797 4.148-2.582.785-.449 1.57-.785 2.355-1.008l.449-.113c.223-.113.559-.113.785-.113.449.113.223.34.113.785-1.012 3.141-3.812 5.723-6.504 7.402-.562.449-1.234.785-1.906 1.121-4.262 2.242-9.082 3.367-13.68 4.598-1.793.449-3.027.898-3.59 1.012-.672-.113-1.793.223-2.578.672s-1.344 1.008-1.793 1.57c0 0-.449.336-.562.898-.223.559-.336 1.121-.449 1.68 0 .336 0 .563.227.785-.449 7.402 1.57 14.805 3.813 21.871l.223.672.113.449c2.465 7.512 5.27 14.914 6.504 22.766.785 5.27.785 10.652.223 15.922v.34c-.559 4.934-1.793 10.539-4.934 14.465-1.57 2.02-3.477 2.918-5.941 3.59h-.113c-2.242.559-4.484 1.457-6.727 1.68-2.129.227-3.926-.559-5.719-1.23-4.035-3.59-5.832-8.75-7.176-13.906-3.477-13.457-3.027-27.477-1.121-41.047 1.008-7.176 2.465-14.242 3.813-21.309.672-3.59 1.457-7.066 2.02-10.652l.336-2.133c.223-1.121.445-2.355.559-3.477a32.93 32.93 0 0 0 .336-4.707c1.906-3.141 4.711-5.832 7.961-7.629 2.355-1.344 4.711-2.242 7.289-2.914 7.176-1.906 15.023-1.797 22.313-3.254 2.469-.449 4.711-1.234 7.066-2.129l.336-.113c1.008-.449 2.129-.672 2.691.563.336.895.109 1.793-.449 2.578-1.348 1.793-4.148 2.691-6.281 3.363-1.23.449-2.578.672-3.812.898s-2.578.336-3.812.785c-.445.223-.559.898 0 1.121 1.57.336 3.141 0 4.711-.223 1.684-.34 3.363-.785 5.047-1.461.336-.109.672-.223.895-.336l.227-.113c-.227.227-.449.34-.785.563-.113 0 0 .223.113.113 3.809-1.461 7.398-4.039 10.09-7.18l.113-.109c1.008-1.125 3.137-4.375 4.934-3.477 1.68.895-1.234 4.262-2.355 5.605l-.113.113c-1.234 0-2.465.785-3.586 1.457-1.797 1.121-3.703 2.02-5.609 2.914-3.812 1.797-7.848 3.031-11.547 4.938v.109c2.355-.336 4.707-1.008 7.063-1.793h.227c1.457-.449 2.914-1.008 4.258-1.57 1.57-.672 3.027-1.344 4.598-2.129 1.348-.785 2.805-2.02 4.375-2.246h.449c1.793.113.336 3.141-.227 3.926-.785 1.457-1.793 2.805-2.914 4.039-2.242 2.465-5.047 4.484-8.074 5.941-.785.449-1.793 1.012-2.914 1.348zm0 0"/></g><path d="M527.848 93.684c-13.453 0-33.188 8.973-34.645 17.605-1.797 10.207-5.609 48.563-3.477 61.008 2.016 12.563 10.316 21.871 28.48 21.871s31.73-9.98 34.871-13.348c2.129-2.242 4.371-6.953 6.84-14.016 6.613-1.125 9.977-4.375 9.977-9.645s-1.68-8.75-5.043-10.43c2.016-21.984 1.008-35.664-2.805-41.047-5.832-8.187-20.742-12-34.199-12zm0 0" class="B D"/><g clip-path="url(#D)" class="B"><path d="M531.66 75.18l-7.398.336h-.336c-4.711-.449-9.309 0-14.016.113-4.488.223-9.195.672-13.121 2.801-.559.227-.898.563-1.344.898-.562.113-1.012.227-1.457.449-1.234-.223-2.691.336-3.027 1.793a21.94 21.94 0 0 0-.34 6.617v.113c-.559 2.02-.445 4.262 0 6.391a90.01 90.01 0 0 0-.336 7.738c0 1.797-.109 3.59.113 5.383.113 1.57.785 2.805 1.793 3.926.227.227.563.227.785.227h.227c-.562 1.344-1.121 2.691-1.57 4.035-.785 2.133-1.57 4.262-2.133 6.395-1.121 4.371-1.793 8.859-2.242 13.344-.785 7.961-1.008 16.035-1.121 24.113-.109 7.625.563 15.586 4.824 22.09 3.809 5.723 9.527 9.871 16.031 12.113 3.699 1.234 7.738 1.793 11.551 1.906 2.016.113 4.035 0 5.941-.223s3.926-.227 5.27-1.684c.336-.449.336-1.234-.223-1.457-1.121-.449-1.793-.562-3.027-.336l-3.027.336c-2.133.109-4.262.109-6.391 0-3.926-.336-7.961-1.457-11.438-3.141-5.605-2.691-10.316-6.953-13.008-12.672-3.027-6.617-2.805-14.242-2.691-21.309.113-7.738.449-15.477 1.121-23.215.336-3.699.785-7.516 1.234-11.215.223-2.02.559-3.926.898-5.945l.672-3.137h.449c1.008 0 2.016-.227 2.801-.898a1.9 1.9 0 0 0 1.121.336c4.039.223 8.188 0 12.336 0h12.332l12.336-.113c3.813-.109 7.734 0 11.547-.672 1.234 4.484 1.234 9.422-1.457 13.457-.785 1.121-.113 2.469.785 3.141 1.008.672 2.805 1.793 4.262 1.906.109.336.336.672.449 1.012.672 1.68 1.344 3.363 1.793 5.043.223.898.449 1.797.559 2.805v.449.223c-.109.449-.223.898-.223 1.348-.223 1.121-.336 2.242-.562 3.363-.223 2.133-.223 4.824 1.797 6.059 1.121.672 2.355.559 3.586.109.785-.336 1.457-.672 2.133-1.121.445-.223.895-.449 1.23-.672.113-.113.227-.113.336-.223.785.109 1.57.445 1.906.672 1.125.559 2.133 1.344 2.918 2.355 1.793 2.016 2.355 4.82 2.129 7.402-.223 2.465-1.234 5.156-3.141 6.84-.781.672-1.906 1.121-2.914 1.121-.559 0-1.008-.113-1.57-.227s-1.121-.109-1.57-.336c-.672-.336-1.566.563-1.23 1.234.223.563.336 1.012.559 1.457-1.906 3.254-4.148 6.281-6.391 9.309-2.02 2.691-4.484 4.934-6.727 7.402-1.012 1.121-1.457 3.254.449 3.703 1.793.445 3.137-1.461 4.258-2.695 4.375-4.934 7.625-10.652 9.195-17.043.672.445 1.457.785 2.355.895 1.68.227 3.363-.109 4.82-.895 5.496-3.254 6.84-11.891 4.262-17.273a9.95 9.95 0 0 0-2.691-3.363c.113-.223.113-.336.113-.559-.113-.34-.227-.785-.336-1.125.109-.109.223-.223.223-.336l-.336-3.25c0-1.57.113-3.254.113-4.824 0-2.578-.227-5.156-.227-7.738 0-8.973-.449-18.055-.449-27.027l.113-13.23v-.227c.113-3.477 1.008-8.187-2.465-10.543-.562-.336-1.234-.336-1.906-.109-1.797-1.234-4.039-1.797-6.168-2.133-4.035-.672-8.184-1.008-12.223-1.344-2.129-.227-4.371-.336-6.504-.227-2.016-.109-4.148-.336-6.391-.223zm32.855 78.84c-.785-.785-1.906-.562-2.918-.336-1.344.223-2.578.785-3.699 1.566-1.234.785-2.691 1.91-2.914 3.367-.227 1.344 1.121 2.914 2.578 2.02 1.344-.898 1.906-2.469 3.141-3.59.559-.562 1.121-1.012 1.793-1.457.336-.227.559-.449.895-.562 0 0 1.348-.449 1.125.113-.113.223.109.336.336.223.336-.449.109-.895-.336-1.344zm0 0"/></g><g class="B"><path d="M507.898 172.422c-.336-.672-1.23-1.234-2.016-1.121-3.477.449-3.477 4.598-2.133 6.953 1.121 2.133 3.59 3.363 6.055 3.254 2.582-.227 4.711-1.684 5.719-4.039.676-1.57.898-4.484-.785-5.605h-.109c-.785.895-.785 2.355-1.57 3.363-.672 1.008-1.684 1.793-2.914 1.906-.898.113-1.797-.223-2.133-1.008-.223-.449-.113-.676-.113-1.012l.113-.223c.336-.898.449-1.57-.113-2.469zm-.895-18.277c-1.793 1.121-4.484 3.586-2.578 6.277 2.242 2.355 5.492-.336 7.176-1.57 1.457-1.008 3.137 1.461 1.793 2.582-11.66 8.633-16.371-6.953-7.289-8.523 1.012-.227 1.348.895.898 1.234zm18.949-7.402c-1.121-1.684-3.59-1.461-4.262.559-.336 1.012.113 2.02.113 3.027 0 .898 0 1.906.336 2.805.672 2.02 2.355 3.363 4.484 3.363 2.129-.223 3.926-1.457 4.82-3.363s.676-3.812 0-5.719c0-.113-.109-.113-.223-.113-.785.785-1.348 1.684-1.906 2.582l-.562.895c-.445.676-1.121 1.57-1.906 1.57h-.109c-.227 0-.227 0-.336-.336-.113-.113-.113-.449-.113-.559v-.113-.562-.109c0-1.125.449-2.805-.336-3.926zm-27.922 1.008c.227-2.129-2.801-2.578-3.699-1.008-.559.785-.672 1.793-.785 2.801v.449c-.109 1.012-.109 2.02.227 2.918.672 1.457 2.129 2.242 3.699 2.129s2.914-1.008 3.586-2.355c.676-1.23 1.348-3.477.563-4.82 0-.113-.113-.113-.223 0-.785.672-.898 1.906-1.348 2.691-.449.898-1.121 1.793-2.242 1.906-1.008.113-1.344-.449-1.121-1.348.449-1.121 1.234-2.016 1.344-3.363zm27.137-13.57l-.449-.223c-1.68-.672-3.926-1.348-5.27 0-.785.785-1.008 2.02-.449 3.027.672 1.234 2.02 1.234 3.254 1.457 1.457.227 2.914.563 4.148 1.121 1.457.676 2.914 1.461 4.258 2.242 1.234.785 2.582 2.246 4.148 2.469.113 0 .113 0 .113-.113.336-1.457-.672-3.027-1.457-4.148-1.008-1.457-2.355-2.578-3.699-3.59-1.457-.895-3.027-1.68-4.598-2.242zm-30.164 5.273h-.109c-1.012-.113-1.906-.113-2.691.672-.562.559-.785 1.344-.562 2.242.227.785.785 1.457 1.684 1.684 2.805.559 5.832.449 8.633 0 1.234-.227 2.578-.449 3.813-.785l.563-.113c1.008-.336 2.242-.562 3.027-1.348.223-.223.109-.672-.227-.781-1.344-.562-3.141-.227-4.598-.34-1.68 0-3.25-.223-4.934-.336-1.57-.223-3.027-.559-4.598-.895zm-11.315 19.542c.785-1.012 2.242-2.469 3.59-2.355.223 0 .223.223.109.336-.449.559-1.121 1.008-1.57 1.57a6.77 6.77 0 0 0-1.23 2.355c-.336 1.23-.449 2.578-.113 3.813.559 2.242 2.465 3.813 4.484 4.598s4.484 1.121 6.391-.113c2.805-1.793 5.27-4.262 8.746-4.375.785 0 1.457.34 1.793.898.34-.559.898-.898 1.797-.898 4.035 0 6.949 2.691 10.316 4.375 2.242 1.121 5.156.785 7.512 0 2.242-.672 4.598-2.129 5.383-4.484.445-1.234.336-2.691-.113-3.926-.336-.785-.785-1.57-1.348-2.242s-1.457-1.121-2.016-1.684c-.113-.113 0-.336.109-.336 2.691-.227 5.047 3.027 5.609 5.27.445 2.242-.227 4.598-1.797 6.281-3.027 3.477-8.633 4.711-13.004 3.699-3.59-.785-6.953-2.801-10.652-2.465-.785.113-1.348-.227-1.797-.785-.336.559-.895.898-1.793.785-3.477-.336-6.504 2.129-9.867 2.691-2.691.449-5.605-.113-7.848-1.57-2.355-1.457-4.035-3.926-4.148-6.84 0-1.461.449-3.254 1.457-4.598"/><path d="M490.367 158.207c3.586 1.684 8.52-.785 10.875-3.477.898-1.008 1.57-3.699 1.234-5.496-.898-4.711-4.262-7.625-7.961-8.523-4.934-1.344-9.98 2.02-9.418 6.059.672 3.813 1.457 9.418 5.27 11.438m24.219-9.082c.336 5.156 4.371 9.645 9.418 10.988 7.961 2.242 11.887-3.363 13.68-9.422.223-.559.559-2.465-.562-4.035-4.371-6.168-15.137-5.16-20.406-3.477-1.57 1.57-2.242 3.699-2.129 5.945m-34.762-8.301c.449-5.27 16.934-3.254 18.84-2.805 5.27 1.57 9.754 5.719 15.695 3.926 6.055-6.84 26.574-4.82 30.949-1.344.785-.34 1.793-.113 2.801.109 5.383-.223 29.938 1.684 24.895 8.523-.785.563-1.57 0-1.57-1.121-26.238-9.418-23.66-.559-26.797-1.684-.449.113-1.012.227-1.461.34-2.352.785-3.25.559-3.586 3.25-1.906 20.859-29.715 13.684-27.473-3.477-2.242-.113-4.258-1.121-6.613-.113-1.684 16.152-14.578 16.824-18.5 11.215-2.918-3.922-1.797-9.754-5.832-12.781-1.57 1.23-1.684-3.254-1.348-4.039"/></g></svg>