<svg xmlns="http://www.w3.org/2000/svg" width="937.333" height="918.667" viewBox="0 0 703 689" preserveAspectRatio="xMidYMid meet" xmlns:v="https://vecta.io/nano"><path d="M377 4.1c-57.7 5.5-106.5 39.5-131 91.3-11.3 23.8-14.9 38.7-15.7 64.6-.4 16.1-.2 19.8 1.6 28.5 1.1 5.5 3.3 12.5 4.8 15.6l2.8 5.6-6.7 6.2c-8 7.4-13.3 17-15 27.3-3.2 19.5 7.9 40.8 25.9 49.4 9.2 4.4 18.7 5.7 22.8 3 2.4-1.6 2.5-1.6 2.5.6 0 3.1 9.8 22.4 19 37.6 7.5 12.4 16.2 22.2 33.9 38.2l6.1 5.5-1.5 8.4c-2.1 11.8-2.1 11.8-5.4 11.3-2.4-.3-3.3.3-6.5 4.7-11.4 15.4-25.8 21.8-64.1 28.1-56 9.2-85.2 17.2-114.5 31.1-21.7 10.4-42.6 25.9-54.7 40.8l-4.5 5.6 4.1.7c6.5 1.1 9.6 3 9.6 5.8s-.5 2.9-12.5 1.5l-6.5-.7-4.4 6.8c-2.5 3.8-4.8 7.1-5.1 7.4-2.9 2.3-18.2 32.4-27.1 53.2-11.4 26.6-23 65.4-27.4 91.8l-2.2 11.7-.5 2.3h227.9 227.9l3.3-4.4c3.7-4.9 10.1-9.8 15.7-12.2 9.4-3.9 43.5-8.2 56.5-7.1 3.7.3 8.1 1.3 9.7 2.1 3.2 1.7 11.4 10.2 16.3 17.2 2.9 3.9 3.7 4.4 7.1 4.4 2.1 0 3.8-.3 3.8-.6 0-.9-8.6-13-13.1-18.4-2-2.5-5.5-5.6-7.6-7l-4-2.4 4.9-7.5c4.6-7.1 5.9-11.8 3.3-12.4-.5-.1-3.1 4.2-5.7 9.6l-4.8 9.8-3.7-.6c-2.1-.4-4.4-.8-5-1-.8-.3.7-3.3 4.1-8.2 8.5-12.4 17.9-29 27.7-48.6 10-19.8 13.8-26.2 19.4-32.1l3.6-3.8 18.2.6c24 .9 60.2 3.3 75.4 5.2l12.7 1.4c.3 0 .6-2.9.6-6.5V559h-3.2c-3.2.1-40.7-2.6-51.4-3.6-5.1-.5-5.2-.6-8.2-6.2-1.6-3.1-4.9-10.4-7.2-16.2-5.4-13.3-9.8-19.9-17.3-26.2-5.9-4.9-6-4.9-8.1-3.1-10.9 9.6-10.6 9.4-12.6 8.3-3.4-1.8-2.4-5.2 3-9.5 2.7-2.2 4.9-4.3 5-4.6 0-.3-2.6-1.8-5.7-3.4-3.2-1.5-9.9-5.1-14.8-8.1-10.3-6.1-36.2-18.7-47.8-23.3-13.6-5.4-17.7-7.8-17.7-10.5 0-1.3-1.4-3.5-3.4-5.4-1.9-1.7-4.5-5.4-5.9-8.4-4.5-9.4-4.6-9 3.8-13.3 16.4-8.3 30.9-26.5 38.1-47.9 1.3-3.8 2.4-7.9 2.4-9.1s1.2-3.2 2.6-4.6c3.7-3.5 11-14.7 14.5-22.4 6.7-14.8 9.2-36.8 7-60.5-4.6-47.9-19.2-136.8-24.1-147.5-.5-1.1-1.6-6.2-2.5-11.4C541.2 96.2 527.9 72 506 50 471.4 15.5 426.2-.6 377 4.1zM409 23c33.8 4.1 65 20.2 89.3 46 12.9 13.7 27.2 35.9 35.7 55.4 1.9 4.4 5.1 11.3 7.1 15.5 3.4 7.1 3.7 7.4 4.6 5.2.7-1.8 1.1 1.1 1.6 11.5.7 13.9 2.1 34.7 3.2 45.9l.6 6-3.4-5c-4.9-7.1-12.8-14.2-19.5-17.3-4.9-2.3-7-2.7-14.7-2.7-11.7 0-17.6 2.6-26.3 11.6-10.3 10.7-14.2 20.5-14.3 35.6-.1 10 1.9 16.5 6.6 22.1 1.9 2.2 3.5 4.5 3.5 5.1 0 1.6 4.8 11.1 7.1 14 1 1.3 1.6 2.7 1.3 3.2-.8 1.4-7.8 1.1-15.5-.7-8.9-2-11.6-1.4-13.5 3.3-.9 1.9-1.3 4.1-1 4.8.3.9-1.3 1.5-5.6 1.9-8.8 1-22 5.1-31.9 9.9l-8.8 4.2-1.3-2.9c-.7-1.7-1.9-3.2-2.5-3.4-1.4-.4-1.4-.3-3.4 7.2-.9 3.5-2.3 5.8-5.3 8.5-10.4 9.3-18.1 19.3-21.2 27.8-3 8.4-2.7 8.4-16.5-.3-33.1-21-50.4-38.2-60.9-60.7-2.1-4.5-4.4-10.1-5.1-12.5-3.7-12.7-7.6 3.7-8.8 37.7l-.6 16.4-10.1-11.9c-8.7-10.4-9.9-12.3-9.1-14.2 1.4-3.2-1.3-6.7-6.8-8.6l-9.2-3.3c-5.9-2.1-13.7-9.2-17.1-15.8-3.7-6.9-3.7-17.7-.2-25 3.4-7 10.4-13.6 18.6-17.6 6.2-3 7.8-3.3 15.6-3.4 4.9 0 8.8-.1 8.8-.2 0-.2-1.6-2.1-3.6-4.3-5.3-5.9-15.7-8.5-24-6.1l-3.1.9-.6-11.2c-.4-6.1-.7-17-.7-24.1 0-66.9 38.7-122.2 99.3-142 20-6.5 42.4-8.8 61.7-6.5zm113.6 176.1c5.3 2.5 10.5 8.1 14 15.1 3.3 6.4 4.3 17.4 2.4 24.3-1.6 5.6-7.2 10.9-13.2 12.6-4.6 1.2-18.4.6-27.1-1.2-10.8-2.4-15.5-11.1-14.4-26.9.8-10.2 1.5-13 3.3-13 .8 0 3.1-1.5 5.1-3.4 2.1-1.8 6-4.8 8.7-6.5 4.2-2.6 6-3.1 11-3.1 4 0 7.4.7 10.2 2.1zm33.8 65.9c2 23.4 2 39.5 0 50.1-2.4 13-10.4 31.4-10.4 24.1 0-1.3-1.4-5.9-3.1-10.3-3.8-9.7-12.6-21.9-20.7-28.4-5.6-4.5-18.4-11.5-23.2-12.8-2.4-.6-2.4-.6 1-2.9 6.5-4.4 6.5-10.1 0-17.2l-3.9-4.2 7.2 1.3c10 1.7 21.3 1.6 27.7-.3 9.8-2.9 18-10.3 21.2-19.1 1.2-3.3 1.3-3.3 2-1.1.3 1.3 1.4 10.6 2.2 20.8zm-60.9 44.8l4 .8-4.2 1.7c-7.2 2.8-17.8 4-30.8 3.3-14.9-.8-27.9-2.6-26.8-3.7.5-.5 4.4-1.5 8.8-2.3 8.4-1.6 40.7-1.5 49 .2zm-43.5 17c24.1 5.2 51.3 2.7 61.1-5.5l3.2-2.7 2.3 2.9c3.5 4.3 9 15.2 10.7 21.2 3.5 11.6-4.4 21.4-19 23.8-4.8.8-6.3 0-16.2-8.8-13.2-11.6-21.4-10.1-33.7 6.2-5.5 7.4-6.2 8-10.5 8.6-9.9 1.4-29-2.9-40.9-9.1-10.4-5.5-10.5-5.7-10.4-12.2.1-7.1 2.5-12 6.6-13.4 2.3-.8 3.7-2.5 5.8-6.9 2.5-5.4 5.9-9.2 10.3-11.6 1.4-.7 4.4-.1 11.5 2.3 5.3 1.7 14 4.1 19.2 5.2zm-97.4 71.4c20.6 10.6 44.4 19.7 66 25.2 9.9 2.5 31 6.2 38.9 6.8l4 .4-6 1.9c-9 3-36 2.8-54.5-.3-35-6-47-10.4-65.1-23.6l-7.6-5.5 1.4-7.8c.8-4.3 1.1-9.4.8-11.2l-.7-3.5 6.9 6.5a70.52 70.52 0 0 0 15.9 11.1zM190 467.5c2.5 3.1.8 4.8-7 6.7-4.1 1-8.8 2.2-10.3 2.8-3.7 1.2-5.7.3-5.7-2.6s1.9-3.9 11.3-6.4c8.9-2.3 10.1-2.4 11.7-.5zm152 53.1c1.1 1.1 1.2 1.9.4 3.2-2.2 3.5-21.5 2.5-22.2-1.1-.8-4 1.6-4.9 11.2-4.2 5.6.5 9.7 1.3 10.6 2.1zm-240.6 27.5c9 3.2 11.3 5.6 8.3 8.6-1.3 1.3-2.4 1.1-9.3-1.3-10.6-3.7-13.3-6.1-10.2-9.2 1.6-1.6 1.5-1.6 11.2 1.9zm139.5 9.8c1.9 3.5-.8 4.9-14.5 7.7-7.3 1.5-13.9 2.4-14.8 2.1-.9-.4-1.6-1.8-1.6-3.1 0-2.8-.8-2.5 15.4-6.2 12.7-2.8 14.3-2.8 15.5-.5zm238.9 11.4c.8.9.3 3.6-1.8 9.7-2.6 8-3 8.5-5.6 8.5-2.8 0-2.9-.2-2.8-4.7 0-6.5 4-14.8 6.9-14.8 1.3 0 2.7.6 3.3 1.3zm-132.3 51.3c.9 1 1.3 2.3.9 3.3-.3.9-1.6 6.4-2.7 12.3-2.2 11.1-3.2 12.7-6.9 10.7-1.7-.9-1.9-1.7-1.3-6.2 1.3-8.9 4.2-19.9 5.6-20.8 2-1.2 2.5-1.1 4.4.7zM103 632.8c0 2.5-.9 3.2-9.6 7.5-10.3 5.1-12.4 5.1-12.4 0 0-2.1 1.2-3 8.3-6.3 4.5-2.2 9.4-4 11-4 2.3 0 2.7.4 2.7 2.8zm122.3 35.8c7.2 2.5 7.8 2.9 7.5 5.3s-.7 2.6-4.8 2.5c-5.8-.1-16.4-4.3-16.8-6.7-.5-2.6 1.8-5 4.2-4.3 1.2.3 5.6 1.7 9.9 3.2zm182.2-516.2c-13.9 4.5-26.5 12.4-35.4 22.2-5.9 6.4-8.4 10.6-7.9 13.5.3 1.8 1.3 1.3 8.8-4.1 4.7-3.4 12.1-7.9 16.5-10.1 8.1-3.9 21.4-7.9 26.7-7.9 9.7 0 15.6-8.9 9.2-13.9-3.5-2.7-8.9-2.7-17.9.3zm84 .9c-3.2 1.5-6.1 4.4-5.3 5.3.3.2 4.8 1.6 9.9 3 12.3 3.2 21.6 7.7 31.8 15.3 9.2 6.8 11.9 7.4 15.8 3.5 2-2 2.4-3.1 1.9-5.7-1.2-6.2-11.5-14-24.9-18.9-9.7-3.6-24.1-4.8-29.2-2.5zm-98.9 30.8c-11.2 2.6-24.3 13.8-29.7 25.3-8.2 17.2-7.5 38.3 1.7 50.3 6.2 8.2 15.3 11.3 38.4 13.3 26.1 2.2 37.9-2.9 49.6-21.6 6.6-10.5 8.8-17.3 8.9-26.9 0-7.1-.4-8.8-3.3-14.7-5.8-11.7-18.7-21.5-33.7-25.3-6.6-1.7-25.4-1.9-31.9-.4zM428 196c10.5 4.1 19.3 12.4 22.1 20.7 1.8 5.4.6 14.9-2.6 21.3-6.6 13.1-14.7 21.8-22.6 24-4.9 1.4-20 1.2-30.2-.4-18.2-3-24.1-6.7-27-17.3-3.2-11.1-1.6-23.1 4.4-34.2 4.9-9.2 6.8-10.9 14.9-13.7 13-4.6 30.1-4.7 41-.4zm-19 3.2c-1.4.6-3.9 1-5.7.9-13.1-.6-24.2 15.5-20.4 29.7 1 3.7 1.4 4.1 3.1 3.2 3.5-1.9 8.9-1.2 11.5 1.5 3.3 3.2 3.5 9.7.5 11.8-2 1.4-2 1.5 1.2 2.8 5.2 2.2 15.5 1.7 21.1-1 6.6-3.2 14.4-10.5 17.1-16 3.4-6.8 4-11.3 2.1-17.7-1.6-5.5-2.8-6.7-3.9-3.8-.4 1.1-1.7 1.4-4.3 1.2-3.3-.3-3.8-.7-4.1-3-.2-1.7.4-3.3 1.9-4.7l2.2-2.1-4.4-2c-4.8-2.2-13.7-2.6-17.9-.8zm-158.5 42.7l-3 .8 2.8 1.1c1.6.7 3.1 1.2 3.4 1.2s2.5 1.2 4.9 2.7c3.9 2.5 4.2 2.9 3.6 6.2l-.5 3.4 3.6-.6c3.6-.6 3.7-.4 6.4 4.6 2.4 4.4 3.3 5.2 6 5.5 3.7.4 7.3-2.6 7.3-5.9 0-3-10.5-13.5-16.5-16.4-5.5-2.7-13.2-3.8-18-2.6zM506 202.7c-2.7 1-8.1 6.7-10.1 10.5-1.3 2.6-1.9 5.8-1.9 10.3 0 5.7.2 6.5 1.9 6.5 3.1 0 8.1 3.3 8.7 5.8.4 1.3-.1 3.3-1 4.7-1.7 2.5-1.6 2.6 1.8 4 4.5 1.9 12.9 1.9 16.4.1 4-2.1 9.9-8.6 11.7-12.8 3.6-8.8-.2-26.5-4.8-21.9-2.1 2.1-4.7 1.1-6.8-2.3-1.3-2.2-3-3.7-4.7-4-5.8-1.2-9.8-1.5-11.2-.9zm184.6 409.9c-6.7 14.4-26.9 53.9-28.3 55.4-.2.2-.8-.2-1.2-.9-.7-1.1-2.8-1-12.1.4-18.7 2.7-38.1 9.9-45 16.6l-3.5 3.4 3.7.3c2.8.2 5.9-.7 12-3.7 14.6-7.1 34.5-11.6 48.8-10.9 6.1.3 6.6.5 8.7 3.7 1.3 1.9 2.8 5.1 3.3 7.3.9 3.2 1.5 3.8 3.7 3.8 2.5 0 2.5-.1 1.9-5.3-1.3-10.3-5-18.7-8.2-18.7a2.42 2.42 0 0 1-1.9-1c-.3-.5 3-8 7.3-16.7 16.1-32.2 19.3-39.9 19-45.5l-.3-5.1-7.9 16.9z"/></svg>