<svg xmlns="http://www.w3.org/2000/svg" width="914.667" height="958.667" viewBox="0 0 686 719" preserveAspectRatio="xMidYMid meet" xmlns:v="https://vecta.io/nano"><path d="M369.5 24.6c-36.3 5.3-65.4 20-93.7 47.3-25.1 24.2-43.4 52.6-53.7 83.7-3.9 11.6-8.1 29.7-8.1 34.7 0 2.2-.6 2.6-4.2 3.2-32 4.9-59.4 26.8-76.4 60.9-4.3 8.6-5.7 12.6-6.1 17.2-1 10.5 2.8 16.7 11 18.1l3.2.5-.4 7.5c-.6 13.4 2.7 18.9 10.9 18.1 3.7-.3 4.1-.1 5 2.8 1.3 3.9 4.4 6.8 9.4 8.9 7.3 3.1 16.4-.1 21.3-7.4l2.3-3.4v4c0 14.6 12.3 33.3 25 38 7.5 2.8 13.6 3.6 18.8 2.5 3.9-.9 4.2-.8 4.2 1.2 0 4.2 5.2 21.2 9.2 30.5 10 22.8 29.4 44.7 46.2 52.1 8.5 3.8 16.6 1 16.6-5.8 0-3.9-1.7-6-8.3-9.8-22.3-13-32.7-25-49.3-56.6-8.2-15.6-8.4-16.2-7.2-19.5 1.1-3.1 1.1-3.6-.7-5-1.4-1-3.3-1.3-6-.9-13.4 1.9-14.3 1.9-18.9-.4-6.1-2.9-13-10.8-15.6-17.8-2.7-7-3.6-19-2.1-26.1 3-13.9 14-27.4 27.4-33.6 9.5-4.4 14.8-5.3 18.2-3.1 2.4 1.6 2.5 1.5 2.5-.3 0-4.7-5-6.7-14.4-5.8-20 1.9-38.8 18.7-43.7 39.2-1.9 8.2-1.8 8-3.1 6.7-.7-.7-2.3-1.2-3.6-1.2-1.8 0-2.7 1-4.4 4.9-3.3 8.1-10.3 9.9-13.8 3.8-1.4-2.5-1.3-3 .9-7.3 1.8-3.4 2.2-5 1.5-6.2-2.9-4.5-6.9-4.1-13.2 1.3l-4.2 3.7v-3.9c0-6.1 2.6-16.6 5.4-22.1 3-6 3.1-6.6 1-8.6-2.7-2.7-5.4-1.8-10.4 3.5-3.6 3.8-5.3 5-7.1 4.7-2.1-.3-2.4-.9-2.7-4.9-.3-3.9.4-6.1 4.2-13.3 15.2-29.1 35.7-47.4 60-53.6 9.6-2.4 25.2-2.7 34.4-.5 12.5 3 25.9 12.2 32.4 22.4 4.1 6.5 3.8 7.1-3.4 7.1-10.2 0-47 6-59.8 9.7-13.1 3.7-22.2 10.6-23.6 17.8-1.7 9.4 2.7 22.7 7.7 23.3 4.7.5 6-2 5.3-9.9l-.7-6.9 3.6-3.3c6.4-6.1 32.3-14.4 54-17.2 11.2-1.4 24.7-2 24.7-1 0 1.9 4.3 29.7 5 32.4 1.2 4.3.8 4.8-3.8 5.6-8 1.3-16.9-5.1-19.3-13.7-2.1-7.7-1.9-7.5-3.1-5.4-.6 1-.8 4.2-.6 7.2 1.2 14.2 16.7 22.4 30.8 16.3 5.6-2.4 6.2-3.3 5-8.5-1.2-5.4-4.3-33.4-3.8-34 .3-.2 3.9-.1 8.2.2 6.3.6 8.3 1.2 11.1 3.4 1.9 1.5 5.6 3.3 8.2 3.9 7.1 1.8 9.9 4.4 12.4 11.2 1.6 4.3 3 6.4 4.9 7.4 2.4 1.3 2.8 2.1 3.3 8.3 2.2 23.5 17.3 42.5 39.7 50.3 7.9 2.7 22.2 3.6 30.4 1.9 3.1-.6 9.2-2.9 13.5-5.1 17.3-8.6 27.2-25.3 32.2-53.9 1.2-7.1 1.5-7.8 6.5-12.6 6.8-6.7 12.3-8.8 20.9-8.2 10.8.9 10.8.9 11 18.4.1 10.6.6 16.3 1.7 19.7l1.6 4.8-2.1-1.6c-6.4-4.7-14.1-6.2-16.1-3.2-.9 1.5-.3 2.5 4.5 6.7 6.4 5.6 8.9 10 8.9 15.7 0 4.5-2 7.7-6 9.8-5.6 2.9-12.3 1-22.2-6-6.5-4.7-10.1-4.6-12.7.3-1.9 3.5-.6 6.7 3.6 9.4l3.8 2.3-9.5.6c-10.1.7-14.3 1.9-22.9 6.5-13.7 7.4-40 42.8-37.5 50.6.7 2.4 3.6 2.3 10.9-.6 7.1-2.9 14.8-4.2 29.5-5.2l10.5-.6 4 3.2c5.7 4.6 14.9 8.8 21 9.5 9.3 1.2 21.9-2.8 28.6-9.1 2.4-2.3 2.8-2.4 7.9-1.3 5.2 1.1 12.3 1 37.5-.6 5.3-.4 9.6-.2 10.4.4 3 2-16.2 23.6-31.4 35.2-9.3 7.1-18 12.3-31.5 18.8-22.4 10.7-41.5 15.8-63.5 16.8-20.6.9-36.7-2.6-51.7-11.3-4.3-2.4-8.9-4.4-10.2-4.4-3.1 0-6.6 4.3-6.6 8.1 0 4 2.8 6.4 13.3 11.5 22.7 10.8 46.4 13.6 74.7 8.8 4.7-.8 9.2-1.7 10.1-2 1.4-.4 1.8.6 2.4 5.8 1.5 14.9 5.9 22.8 12.6 22.8 1.8 0 4.1-.8 5.2-1.8 1.9-1.7 2-1.7.3 1.5-.9 1.8-8.4 17.5-16.7 35l-31 63.2c-9.3 18.5-15.9 32.6-15.9 34.3 0 3.2-.6 3.5-3.1 1.2-1-.9-11.4-6.5-23.1-12.5-46.2-23.7-45.8-23.5-56-20.5-9 2.6-40 23.8-62 42.5l-3.6 3.1-.7-10.3c-.4-5.6-.4-35.2-.1-65.7s.1-58.2-.3-61.5c-.7-5.2-.6-6.2 1-7.3 1.9-1.3 3.4-5.3 4.4-12.2.8-5.2 2.5-8.7 6.9-14.9 4.8-6.7 7.6-9.1 13.9-12.1 5.8-2.8 18.3-5.8 19.4-4.6.6.6-2.3 16.6-3.3 17.5-.3.3-1.4-.5-2.5-1.8-2.9-3.5-3.2-2.1-1 4 1 3 2.1 7.4 2.4 9.9.4 3.1 1.3 5.2 3.1 6.6 1.4 1.2 4.4 6 6.7 10.5 14.1 28.2 43.5 67.5 70.1 93.7 8 7.9 10.1 9.4 13.4 9.9 5.1.7 6.9-1.2 6.1-6.3-.5-2.9-3.3-6.3-14.9-18.3-22-22.6-42.2-47.5-62.2-76.8l-7.6-11.1 1.7-3c1.5-2.6 1.6-3.6.5-6.4-.7-2-1.2-8.6-1.2-16v-12.5l-3.7-1.6c-2.9-1.2-6.6-1.6-15.8-1.4l-12 .2-9.3 4.7c-12.2 6.3-16.8 11.6-21.2 24.4-2.4 6.8-2 13.3 1.1 17.7 1.7 2.3 1.8 3.3 1 6.5-1.4 5.4-5.8 42.8-8.2 70.2-2.6 30.4-3.6 66.5-2 78.5 1.4 10.3 3.1 12.9 8.4 12.9 2.9 0 4.9-1.4 13-8.6 13.8-12.5 28.5-24 42.2-33.1 14-9.3 20.5-12.7 23.9-12.7 2.6 0 14.6 5.9 44.6 22 14 7.4 18.5 9.4 22.7 9.8l5.2.4-.5 8.2-2.4 64.9v3.7h5.6 5.7l-.6-40.7-1.2-42.9c-.6-1.8-.3-2.1 1.7-1.7 2.9.6 9.3-2.2 21-9 10.4-6.1 30.6-17 50.6-27.2 10-5.1 14.2-6.7 17.2-6.7 3 .1 9.2 2.6 24 9.9 19.2 9.4 20 9.9 19.5 12.4-2.1 9.8 11.4 13.4 15.2 4 .7-2 1.9-4.6 2.5-5.8.8-1.7.6-2.7-1.1-5.1-1.1-1.6-3.7-9-5.6-16.3-4.3-15.9-13.2-44.8-18.1-58.5-2-5.5-4.2-12.2-4.9-14.9-2.5-8.9-15.3-39.6-18.8-44.9-1.9-2.8-5.3-6.5-7.7-8.1-3.8-2.6-5.4-3-12.6-3.3-5.8-.3-9.2 0-11.5 1.1-1.9.9-4.4 1.8-5.6 2.2-5.7 1.6.7 4.5 9.9 4.5 7 0 11.8 2 14 5.8 3.6 6 19.2 48.2 27.6 74.2 5.6 17.5 13.4 46 12.6 46-.3 0-7.5-3.5-16.1-7.7-16.8-8.3-23.2-9.8-30.7-7.3-6.3 2.1-41.2 24-63.9 40.3-3.8 2.6-7 4.7-7.2 4.5s4.2-10.2 9.7-22.3c19-42.2 39.1-90.4 45.6-109.7 1.2-3.7 1.3-5.2.4-7.3-1.5-3.3-3.9-3.3-3.9.1-.1 3.6-2 5.2-2.1 1.7-.1-1.5-1.5-6.5-3.2-11.1-4.1-11.1-4-12.7.8-14.2 6.2-2 26.2-11.8 34.2-16.7 13.4-8.3 25.3-17.9 36-29 19.6-20.2 29.9-40.2 33.1-63.9 1.2-8.9.7-28.6-1-38.8-.7-4.2-.5-5.5 1.5-9.1 5.3-9.3 9.1-24.1 10.1-38.9.4-6.1 1.1-9.7 2.1-10.9s1.6-3.8 1.7-7.3c0-5.3.2-5.8 4.3-9.2 4.8-4.1 6.2-8.9 4-13.2-1.8-3.3-9.1-5.4-23.9-7.1l-11.5-1.2-1.8-14.1c-3.9-31.3-10.1-53.7-21-76.1-24.4-50.2-71.3-87-125.6-98.5-10.1-2.1-33.9-3.5-41.5-2.4zm38 13.9c19.2 3.9 41.2 13 58.5 24.2 10.5 6.9 16.3 11.5 26.3 21.2 30.9 29.9 47 62.5 53.6 108.6 3.4 23.9 3.4 24.5 1.4 24.5-1 0-5.1.5-9.1 1-6.9.9-7.5.8-11.4-1.6-2.2-1.4-6.1-3.5-8.7-4.6-5.1-2.2-21.6-6.8-24.4-6.8-2.9 0-6.7 4.5-6.7 7.9 0 4.7 2.9 6.5 13.7 8.6l9.7 1.8-9 4.2c-9.8 4.6-15.5 9.4-17.5 14.9-1.1 3.1-1.8 3.6-5.7 4.2-7.1 1.1-21.5-.4-22.7-2.3-5.1-8.3-14.8-13.8-30.2-17.4l-9.5-2.2 3.1-2.4c4-3.1 4-6.5.2-10.4-2.7-2.6-3.6-2.9-9.5-2.9-8.1 0-22.6 4.4-31 9.5-5.1 3.1-6.6 3.5-12.5 3.5-25.3 0-57.1 7.2-61.2 13.9-1 1.5-1.9 1.6-5.3 1-2.3-.5-6.7-.8-9.8-.9h-5.7l-3.7-7.3c-5.8-11-16.6-21.3-28.5-27-9.4-4.6-15-6.1-26.6-7.3-3.5-.4-6.3-1-6.3-1.4 0-3.5 11.6-33.7 17.9-46.5 16.6-33.7 37.5-59.2 65.6-80.2 21.9-16.4 41.2-25 65-28.9 9.9-1.7 29.1-1.1 40 1.1zm142.9 197.7c.3 1.8 1.5 12.5 2.6 23.8s2.9 25.9 4 32.5c1.7 10.6 1.8 12.2.4 14.2-2.4 3.7-11.2 8.1-18.7 9.3-16.5 2.8-28.9-3.6-36.7-19-3.1-6.1-6.4-18.6-7.3-27.3-.4-4.1-.2-4.7 1.5-4.7 1.1 0 2.8-.4 3.8-1 1.6-.8 1.9-.5 2.5 2.3 1.9 8.7 6.7 13.6 11.9 12.3 3.9-1 6.3-4.2 8.1-11.1 3-11.1 0-19.7-7.5-21.2l-3.1-.6 2.1-2.2c4.5-4.8 20.8-10.2 31.7-10.4 4-.1 4.2.1 4.7 3.1zm17.6 10.4l4.2 8.4-1.1 10.8c-.6 5.9-1.7 12.9-2.5 15.7-1.5 5.5-1.3 5.7-3.5-5.5-1-5.2-4.1-34-4.1-38.3 0-3.4 2.5-.2 7 8.9zm-149-1.7c10.1 3.1 26 15.6 26 20.3 0 3.8-5.7 26.2-8.4 32.7-7.7 19-24.1 31-42.3 31.1-24.6 0-47-18.7-54-45.1l-1.7-6.6 4.3-8.9c6.5-13.7 6.6-13.7 11.7-17.2 5.5-3.7 14.9-6.8 24.5-8.2 10.7-1.5 32.4-.5 39.9 1.9zm96.5 78.6c11.3 5.3 25.3 4.6 38.7-2.1l6.6-3.3.7 7.5c.8 8.4-.6 22.3-3.4 32.9-1.9 7.3-3.8 12.5-4.4 12.5-.2 0-2.1-2.8-4.2-6.1-8-13-22.2-25.3-34.1-29.4-6.2-2.2-17.7-3-22.7-1.7-4 1.1-4.9.4-1.8-1.5 3.4-2.1 7.1-11.1 7.1-17.4v-5.7l5.8 5.7c3.3 3.3 8.2 6.9 11.7 8.6zM470.2 342l6.8 2.1 8.5-2.7c17.3-5.4 31.9-1.6 45.5 11.8 5.5 5.4 16 19.9 16 22 0 .4-2.6.6-5.7.6-3.2-.1-12.3.2-20.3.6-16.9 1-23.8-.2-35.2-5.9-7.4-3.8-11.5-4.4-12.5-2-.3.9-2 2.3-3.7 3.2-2.6 1.4-7.7 1.8-29.6 2.4-18.9.5-28.7 1.1-34.4 2.3-4.3 1-8 1.6-8.2 1.3-1-1 10.8-18 16.6-23.8 14.8-14.8 33.6-18.8 56.2-11.9zm-78.5-93.9c-3 2.3-4.2 6.3-5.2 16.6-.7 8.5.6 14.6 3.8 16.8 5.2 3.7 10.5.3 13.2-8.6 3.4-11.2 3.2-21.2-.6-25-2.5-2.5-7.9-2.5-11.2.2zm-165 52c-5 1.2-10.7 4.2-13.1 6.8-2.7 3-1.6 3.5 4.3 1.5 7.2-2.3 11.9-1.3 23.2 5.1 5.2 3 10.7 5.5 12.1 5.5 6.1 0 7.9-8 2.8-12.4-5.7-4.7-21.8-8.4-29.3-6.5zm4.3 192c-27.3 1.9-39.8 5.2-62.5 16.4-23.9 11.7-43.1 25.7-64.4 46.8-37.2 36.8-66.2 85.8-90 152.5L10 719.1l8.2-.3 8.2-.3 5.6-15c21.9-58.1 48.7-102.7 82.5-137.3 28.5-29.3 53.5-46 91-61 16.4-6.5 28.6-10.6 35.3-11.7 2.3-.4 4.2-1.1 4.2-1.6s-.6-.8-1.2-.8c-.7.1-6.5.6-12.8 1zM537.5 520c-.7 1.1.3 1.9 9.5 7.8 38.9 25 68.4 68.7 89.5 132.7 3.6 10.8 10.4 34.7 15.5 54.2l1.1 4.3h7.9c4.4 0 8-.3 8-.7 0-1.4-6.4-24.6-10.7-38.8-19.7-64.8-49-111.8-88.2-141.3-12.9-9.7-31.4-20.1-32.6-18.2zM420.4 698.9c-6.7 2.9-8.5 12.1-3.5 17.2 2.5 2.4 3.8 2.9 7.8 2.9 4.1 0 5.4-.5 7.5-2.8 1.4-1.5 2.9-3.7 3.3-5 .8-2.8-1-8.4-3.5-10.7-2.2-2-8.6-2.9-11.6-1.6z"/></svg>