<svg xmlns="http://www.w3.org/2000/svg" width="892" height="958.667" viewBox="0 0 669 719" preserveAspectRatio="xMidYMid meet" xmlns:v="https://vecta.io/nano"><path d="M311 30.5c-33 6-63.1 22.5-89.5 49-31.2 31.2-52.6 71.7-61.6 116.3-3.3 16.6-3.8 48.5-1 65.1 5 29.4 17.6 54.8 37.4 75.7l6.4 6.8-4.3 5.9c-5.3 7.1-6.7 11.9-6.2 21.2 1.6 32.4 55.3 58.8 87.1 42.8 5.9-2.9 11.9-8.3 15.9-14.1 2.7-3.9 3.2-4.2 4.6-2.9 1 .8 3.4 2.3 5.4 3.3l3.7 1.9-3.5 4.5c-2 2.5-4.3 6-5.2 7.8-1.5 3-1.5 3.4.5 6 4.3 5.7 8.3 3.6 14-7.5 8.1-15.6 7.8-17.3-4.7-24.4-15.7-9-28.1-25.4-37.6-49.9-2-5.2-3.6-11-3.6-12.7.2-4.2-2.3-5.9-9.8-6.8-15.4-1.8-22.6-5.6-27.8-14.3-2.4-4.2-2.7-5.7-2.7-13.7 0-7.9.4-9.7 2.9-14.8 6.6-13 19-20.3 30.3-17.8 3.7.9 5.9 2.1 7.5 4 3.8 4.7 8.8 6.3 8.8 2.9 0-.6-2-2.8-4.5-5s-4.5-4.3-4.5-4.7 4.6-1.7 10.3-2.8c17.2-3.4 32.7-10.7 50.7-24.1 10.8-8.1 51-48.6 90.9-91.7 4-4.4 7.8-9 8.4-10.3 2.5-5.3 4.7-3.6 32.9 25.5 21 21.5 37.7 40.5 40.8 46.2 1 2 1 2-3.7 0-6.2-2.6-18-5.9-21.5-5.9-1.7 0-3.4 1-4.7 2.7-3.7 4.7-.5 9.5 7.1 10.7 9.8 1.5 17.8 4 26 7.9l8.7 4.2 3.5 8.5c7.2 18.1 8.1 27.4 5.8 64.5-3.5 59.3-4.2 64.5-9.6 80.7-8 23.7-20.8 35.9-47.2 44.6-33.4 11.2-66.6 10.1-91-2.8-4.2-2.2-8.5-4-9.6-4-4.9 0-7.1 3.6-4.8 7.9 1.5 2.8 10.9 8.8 18.1 11.5 14 5.2 25.6 7 47.6 7 19.6.1 20.3.2 22.5 2.4l2.3 2.2-9.2 18.3c-14.2 28-32.3 58.7-44.9 75.8-5.2 7-6.8 7.3-13.3 2.5-15.8-11.8-69.5-72.7-91.4-103.9-2.7-3.7-5.2-6.7-5.8-6.7-.5 0-.9-.7-.9-1.5s-.2-1.5-.5-1.5c-1.3 0-7.7 3.7-18.2 10.6-9.9 6.5-11.7 7.4-15.9 7.4-8.8 0-25.8 3.1-37.3 6.9-32.9 10.8-64.1 33-89.3 63.2C90.4 553.7 58 624.5 36.6 705.7L33.1 719h8.4 8.4l1.1-4.3c17.7-69.1 43.7-131.4 73.2-175.4 18.8-28.1 41.7-51.4 66.9-68 16.4-10.7 44.2-22.9 57.2-25l3.7-.6-8.6 8.4c-17.7 17.3-27.3 34.7-30.4 55.4-1.7 11.4-.1 21.3 7.5 44.5 12.6 38.7 12.4 44.5-2.6 67.5-12.1 18.5-15.2 26.9-16.8 45.4-.9 9.7-.1 31.7 1.5 46.3l.7 5.8h7 7l-.6-3.8c-.3-2-1.1-11-1.8-19.9-2.1-29.7 1.2-46.2 12.9-64.6 12.5-19.7 16-29.9 14.8-43.2-.9-9.5-2.6-15.8-9.5-34.2-3.3-8.7-6.7-19.6-7.7-24.2-3.7-18.8 1.8-38.7 16.6-59.1 6.3-8.7 35.3-38 37.6-38 2 0 2.7 7.7 1.5 16.5-1.3 10-4.7 49.6-6.1 71.5-2.5 40.6-3.8 105.1-3.2 169.2l.2 29.8h120.3 120.3l-1.3-13.8c-2.1-22.4-7.2-67.6-9.4-82.7-8.2-57.5-17.7-116.1-26.4-162.9-4.4-23.6-5.3-30.1-4.3-30.8.7-.4 1.7-.6 2.3-.5 1.5.5 19.6 27.7 26.2 39.5 6.8 12 12.5 25.7 14.4 34.7 2.3 10.9 1.6 25.5-2 38.9-3.3 12.5-3.9 21.4-2 29.6.6 2.5 4.3 11.5 8.3 20 12.3 26.1 17 40.1 20.5 61.1 2.9 17.4 4.1 32.8 4.1 51.1V719h9 9v-12.4c0-28-4-59.3-10.5-82.2-4-14.2-8.2-24.8-16.3-41.9-9.1-18.9-9.6-22.5-6.3-39.8 4.8-24.9.7-45.4-13.8-69.1-2.3-3.7-4.1-7-3.9-7.1.7-.7 16.2 7.6 23.6 12.7 12.3 8.4 30.4 27.2 39.8 41.4 14 21.2 25.1 46.5 33 75.4 4.6 16.7 13 55.6 20.1 92.7l5.7 30.3h8.3c4.6 0 8.3-.3 8.3-.6 0-2-12-63-16.5-84.4-8.4-39-15.5-62.7-26.3-88-13.2-30.6-36.4-57.3-63.5-72.8-7.6-4.3-25.1-10.9-33.7-12.6-1.6-.3-5.1-3.7-9.7-9.3-4-4.8-10.6-12.1-14.7-16.2l-7.5-7.4 5.9-2.8c20.4-9.6 36.3-26.4 42.3-44.6 3.6-11 5.5-22.6 6.7-41.2.5-8.6 2.3-26.6 4-40.1l3-27.7c0-1.9 1.3-5.3 2.9-8 4.7-7.7 9.2-19.9 12-32.8 2.4-11.6 2.5-13.2 2.6-47.5 0-35.2 0-35.6-2.7-46.7-6.7-28.2-19.3-50.2-39.7-69.5-19.8-18.7-43-29.6-70.1-32.9-10.9-1.3-23.8-.7-39 1.7-9 1.5-11.9 1.5-20.3.5-5.5-.7-12.7-2.1-16-3.1-3.4-1.1-9.1-2.4-12.7-2.9-9-1.5-36-1.2-45 .4zm58.1 15.9l18.5 3.6 16-1.6c23-2.4 42.7-2.2 53.5.4 11.2 2.7 27.1 9.8 37.3 16.6 9.1 6.1 22.3 19.1 28.3 28.1 9.3 13.8 16.4 31.1 20.6 50.6 4.2 18.9 5.1 28.9 5.1 53.4 0 22-.1 23.3-2.6 30.7-4 11.9-9.8 20.8-9.8 14.8 0-4.3-8.3-26.9-13.7-37.2-11-20.8-30.1-43.3-53.5-62.9-6.2-5.2-16.5-14.7-23-21.2-10.5-10.4-11.8-12.1-11.8-15.2 0-2.5-.6-3.7-2.2-4.6-2.6-1.4 1.4-5.6-36.6 38.5-14.6 17-32.2 36.7-39.1 43.9-27.9 28.7-56.1 49.8-82.9 61.8-10.5 4.6-10.7 4.7-13.7 3.1-5-2.8-15.8-2.2-22.5 1.2-10.9 5.6-19.9 18.3-22.1 31.3-2.2 13.6 3 29.3 13.2 39.6 7.7 7.6 13.2 10.1 22.9 10.2 4.1 0 9-.4 10.8-.8 3-.8 3.2-.7 3.2 1.6 0 3.4 4.5 18.7 8 27.1 2.7 6.5 9.7 18 15 24.8l2.1 2.8-5.2 5.5c-15.2 16.1-39.3 17.1-61.7 2.5-16.1-10.4-22.8-26.1-17.6-41.3 2.3-6.8 3.2-7.2 9.5-3.7 6.4 3.6 18.4 7.5 25.6 8.4 4.5.6 5.5.4 7.3-1.4 4.6-4.6 1.5-9.2-7.2-11-9.2-1.8-18.1-5.4-25.7-10.4-38.3-25.5-54.3-88.3-38.5-151.7 15.8-63.8 62-116.4 119.1-135.5 16-5.4 22.6-6.4 39.8-6 12.1.3 18.5 1 33.6 4zm18.4 151.5c-10.3 3.6-13 5-19.7 10.5-6 4.8-12.3 13.5-11 14.8.5.5 4.5-1.4 9.1-4.1 11.3-6.8 19.3-9.3 32.3-10.1 8.4-.5 11.1-1 12.8-2.5 2.7-2.4 2.6-6.6-.3-9.3-3.4-3.2-12.7-2.9-23.2.7zm0 31.2c-3.7 1.8-4.7 4.9-5.3 16.1-.5 10.3-.4 11 1.8 13.3 2.8 3 7 3.2 9.4.6 2.6-2.9 5.6-13.5 5.6-20.1 0-9.2-4.7-13.2-11.5-9.9zm102 3.1c-3.7 4.4-4.8 7.6-4.1 12.4 2.3 17.1 15.4 17.7 18.5.9 1.8-9.7-1.6-16.5-8.3-16.5-2.6 0-4 .7-6.1 3.2zm-27.7 36.9c-2.8 1.6-2.2 3.1 3.1 7.6 6 5.2 8.5 10.2 7.6 15-1.9 10.4-12.8 11.2-25.5 1.8-5.7-4.2-7.2-4.3-10-.8-2.9 3.7-2.2 6.2 2.7 9.9 9.9 7.5 23.8 9.6 31.9 4.9 10.8-6.3 13.5-22.6 5.4-31.9-4.4-5-12.2-8.3-15.2-6.5zm-218.2 12.7c-1.5.7-1 1.1 2.5 2.1 3.1.9 6.5 3.4 11.9 8.7 8.1 7.9 11.9 9.3 14 5.5 2.5-4.7-.3-9.3-8.1-13.5-5.4-3-16.3-4.5-20.3-2.8zm228.9 57.3c-5.1 5.2-8.9 7.5-14.6 8.9-6.9 1.7-11.6.1-18.8-6.5-4.4-4.2-6.6-5.5-8.9-5.5-3.5 0-7.2 3.9-7.2 7.5 0 5.7 9.9 14.2 19.8 17.1 14.1 4.1 30.7-2.7 36.8-15.2 2.2-4.6 2.5-5.9 1.6-7.9-1.6-3.6-4.2-3.1-8.7 1.6zm-304.9 327c-.3.8-1.9 12-3.6 24.9l-3.7 25.7c-.5 2.1-.1 2.3 3.1 2.3s3.6-.3 3.7-2.8c0-1.5.4-13.5.9-26.7.8-22.6.7-26.7-.4-23.4z"/></svg>