<svg xmlns="http://www.w3.org/2000/svg" width="1705.333" height="1700" viewBox="0 0 1279 1275" preserveAspectRatio="xMidYMid meet" xmlns:v="https://vecta.io/nano"><path d="M497.5 2.9c-2.2 1-5.3 3.3-7 5-2.9 3.2-3 3.5-2.7 12.1l.2 8.8-8.7.6c-11.4.9-26.2 3.4-33.8 5.6-3.3 1-8.2 2.1-10.9 2.4-5.6.7-14.4 4.4-19.4 8.2-1.8 1.4-8 4.8-13.7 7.5-9.2 4.3-11.2 4.9-17.2 5-3.7 0-8.9.4-11.5.8-4.5.7-5 .6-10-3.2-7.2-5.4-14.5-8.7-19.3-8.7-9.2.1-17.5 6.9-23.3 19.2-2.8 5.9-4.4 8.1-6.6 9-3.1 1.3-8.6 8.1-8.6 10.8 0 2.5-1.7 3.5-8.5 4.9-13.5 2.8-27.5 12.4-35.1 23.8-2.1 3.2-6.2 8.5-9.1 11.8-3 3.3-6.6 7.8-8 10.1-2 3.1-3.7 4.5-6.7 5.4-17.1 5.1-30.7 18.1-35.7 33.9-2.6 8.4-2.9 20.7-.5 27.8l1.7 5.1-6.1 8.3c-7 9.8-15.6 26.6-16.5 32.5-.5 2.7-.2 5.2.9 7.9 1.5 3.6 1.5 4.2-.1 8.9-1.2 3.6-1.8 8.1-1.7 15.1 0 11 2 17.9 7.2 25.1l2.8 3.8-3.7 7.1c-10.5 19.9-12.3 39.9-5.4 59.8 2.8 8.4 7.1 13 13.5 14.7 4.2 1.1 13.5-.1 27.4-3.6 3.2-.8 6-1.3 6.2-1.1s-2.1 3.5-5.1 7.3c-3.1 3.8-6.7 9.1-8 11.8-5.5 11-1.2 24.7 8.8 28.5 8.9 3.4 40.7-1.5 60.5-9.3l6.2-2.5 5 2.2c2.7 1.2 5 2.6 5 3.1s1 3 2.1 5.4c3 6.2 9.5 10.2 16.5 10.2 7.4 0 9.2-.9 19-9.6l8.5-7.6 2.2 2c4.7 4.2 8.7 5.5 15.4 4.8l6.4-.7-3.1 4.2c-1.7 2.4-3 5.5-3 7.1 0 3.7 4.8 8.8 8.3 8.8 3.7 0 15.4-3.8 22.1-7.2l5.9-3-.8 3.9c-1 5.2-1 5.3-6.3 5.3-13.3.1-25.1 14.4-22.3 26.9.6 3 .5 6.5-.5 11.9-1.8 10.1-1.7 24 .1 32.7 2 9.6 1.9 12.2-1 17.9-1.9 3.7-2.5 6.5-2.5 11.1 0 7.2 1.5 11.4 6.5 17.9 1.9 2.5 3.5 5 3.5 5.4s-1.1 2.9-2.5 5.6c-3.6 7-3.4 13.3.6 21.6 2.5 5.1 3.1 7.6 2.9 11.5-.9 15.7-.4 23 1.8 27.9 1.3 2.9 2.2 6.9 2.2 9.8 0 4.4-.2 4.9-1.7 4.3-4.8-1.8-13.7-2.5-19.6-1.5-18.7 3.4-28.8 18.3-21.4 31.5 4.3 7.8 13.4 10.1 27.6 7.1 6.4-1.3 6.4-1.3 11.2 1.7 2.7 1.6 6.8 3.2 9.3 3.4l4.5.6.6 4.6c1.3 9.3 2.6 15.7 4.6 21.4 1.9 5.3 1.9 6 .5 8.1-2.6 4-17.7 22.9-22.2 27.8-6.9 7.4-7.2 14.2-.8 19.7 4.8 4.3 8.3 4.1 16.9-1 3.9-2.3 10.6-5.9 15-8.1 4.4-2.3 10.5-5.7 13.5-7.6s6-3.5 6.6-3.5c.8 0 7.9 4.3 11.2 6.9.2.1-1.9 3.5-4.6 7.6-6.2 9.1-16.6 19.1-30 28.8-11.4 8.3-13.1 11-9.1 14.2 8.9 7.3 35.6-14.1 47.2-37.9 1.1-2.3 2.6-4.4 3.3-4.7 1.6-.6 7.3 5.9 14.9 16.9 4 5.8 7.1 9.3 9.5 10.5 3.9 2 8.7 8.6 13.9 18.7 4.2 8.4 7.2 10.6 13.5 10 4-.3 5.5-1.1 7.8-3.6 2.9-3.2 3.8-9 1.9-12-.5-.8-.7-2-.4-2.7.2-.7 3 2.4 6 6.9 17 25 31.9 37.9 47.8 41.3 11.3 2.5 17 1.2 20-4.6 4.4-8.5-1-16.6-23-34.2a229.88 229.88 0 0 1-46.4-49.7l-5.1-7.5 2.4-2.5c4.1-4.6 7.6-10.5 7.6-13.1 0-3.1-.8-4.4-3.7-5.9-2.3-1.2-9.3.1-18 3.2-14.9 5.5-28.2 1.9-41.4-11.2-19.8-19.8-28.3-51-20.7-76.1 5.4-17.7 19.1-31.9 35.6-37 7.7-2.4 13.8-2.5 21.7-.5 14.9 3.9 26.9 15.6 31.1 30.2.2.7 1.1 1.3 2 1.3 1.7 0 1.6-3.2-.2-13.7l-.6-3.3 6.3 3c6.2 2.8 21.2 7.1 29.5 8.4 3.2.4 4.7.2 6.4-1.2 2.1-1.7 2.1-1.9 1.1-16.7l-1.8-21.3-.6-6.3 3.4.5c1.9.3 6.9.8 11.2 1.1 7.2.6 8.3.9 12.9 4.5 3 2.4 7.2 4.6 10.6 5.5 8.6 2.3 16.4 6.6 18.9 10.3 1.2 1.8 3.1 6.1 4.3 9.6 2.1 6.4 5.6 10.8 9.9 12.4 2.1.8 2.4 1.5 2.7 9 2 41 29.4 74 71 85.4 6.5 1.7 10.6 2.1 22.9 2.1 13.4 0 15.9-.2 23.8-2.6 26.6-8.1 45.5-25.1 56-50.2 4.2-10.1 6.7-19.2 10.6-38.4 2.7-12.9 4.2-18.6 5.4-19.2.8-.5 4.3-3.6 7.6-6.9 7.5-7.6 14.8-11.1 24.4-11.8 10-.7 20.2 1.3 23.3 4.7 2.4 2.4 2.5 3 1.8 9.6-1.8 18 .1 39 4.7 50.9l1.9 5.5c0 .2-1.8-1.3-4.1-3.4-8-7.2-21.1-11.4-24.9-8-3.5 3.1-2.5 6.1 3.3 10.3 16.7 12.4 21.7 26.7 13.5 38.5-4.7 6.7-15.7 8.6-25.8 4.4-3-1.3-9.9-5.3-15.4-9-5.4-3.7-10.7-6.7-11.8-6.7-5.4 0-10.8 6.3-10.8 12.6 0 4.1 6.7 9.6 19.4 15.9 12.5 6.1 20.4 8 30.5 7.3 20.6-1.5 35.7-20.1 33.8-41.7l-.7-6.6 2.7 3.5c13.5 18 34 27.8 55.9 26.8l9.5-.4-.6 8.6c-3.4 49.4-10.9 82.7-25.5 112.5-19.3 39.5-47.6 63.9-90.3 78-25.2 8.3-49.8 12-74.7 11.2-23.8-.7-42.8-4.2-73.3-13.4-12.4-3.7-15.2-3.8-18.7-.3-4.5 4.5-.9 12 7.9 16.4 19.4 9.8 55.1 18.5 83.4 20.6 13.7.9 39.8 0 45-1.6 1.1-.3 1.9.1 2.3 1.3 7.2 20.7 17.1 35.3 32.3 47.5 8.6 6.9 18 11.8 22.9 11.8 1.7 0 3.2.4 3.2.9 0 1.5-9.4 10.4-17.3 16.4-11.8 9-22.8 15.2-36.6 20.6-55.8 21.7-132 28.1-190.6 15.9-46.6-9.6-88-31-120.2-62.1l-10.7-10.4 7.9-1.8c37-8.2 72.8-34.8 92.7-68.8 3.4-5.9 11.8-23.8 11.8-25.2 0-.3-1.2-1.1-2.7-1.9-1.6-.8-7.7-4.8-13.6-9-6.4-4.5-10.9-7-11.1-6.3-12.2 41.9-39.4 76.9-75.6 97.2l-8.4 4.8-1.6-2.4c-5.9-9.2-14-13.9-25.1-14.7-8.6-.6-18.2 1.6-32.4 7.3-6 2.4-11.2 4-11.3 3.4-1.2-3.4-11.3-5.1-14.2-2.4-1 .9-6.6 3.3-12.6 5.4-28 9.8-67.3 30.4-99.9 52.1-81.6 54.6-153.9 131-207.8 219.8-4.8 7.8-8.7 14.4-8.7 14.7s236.7.5 526 .5l526-.4c0-1.6-18.6-41.8-27.7-60.1-21.7-43.3-41.2-74.3-66.2-105.5-9.5-11.8-39.1-41.7-49.1-49.6-12.1-9.5-33.6-23.5-46.1-29.9-11.1-5.7-11.6-6.1-12.7-10-2.9-10.9-11-17.1-27.8-21.4-2.8-.8-4.4-1.9-5.2-3.6-1.5-3.3-7.5-5.9-11.8-5-4.7.8-7.4 4.7-7.4 10.6 0 2.7-.3 4.9-.6 4.9-.4 0-2.2-1.4-4.1-3-1.8-1.7-6.2-4.4-9.6-6.1-9.3-4.7-17.5-10.6-24.3-17.4-5.9-5.9-14.4-17.6-14.4-19.9 0-.6 5-2.6 11.1-4.4 28.9-8.5 56-24.6 79.3-47.2 45-43.7 65.5-97.3 65.6-171.5v-17l3.9-2.2c4.6-2.6 14.5-14.7 19.5-23.5 7.7-14 13.4-32.7 16.1-53.5 1.1-8.3 1.8-10.9 3.2-11.6 1-.6 3.5-2.8 5.6-4.9 2.7-2.9 3.7-4.7 3.7-7.1 0-3.5-2.4-7.7-4.3-7.7-.8 0-1.3-2.4-1.4-7.1-.3-8.7 1.5-13.1 6.6-16.4 6-3.8 7.4-6 7.9-12.3.6-8.4-1.8-11-12.9-13.9-14-3.6-20.6-4.5-39.1-5l-17.7-.5-.6-6.7c-.3-3.6-1.2-12.7-2-20.1-1.9-16.7-1.9-16 .4-16 2.7 0 7.1-5.6 7.1-9 0-1.6.9-9.9 2-18.5l2-15.6-3.1-12.2c-5.3-21.2-16.3-47-28.3-66.7L949 370.4c-2.6-4.4-7.2-11.6-10.1-16-5.2-7.7-5.4-8.1-5.4-15-.1-5.1-.6-8-2.1-10.5-2-3.6-15.3-12.9-47.4-33.6-22-14.2-29.2-18-38.1-19.9-6.6-1.5-8-2.2-12.6-6.7-11.7-11.4-20-14.5-48.3-18.2-12.7-1.6-24.6-3.8-34-6.3-21.7-5.8-22.9-6.1-34.7-7.1-14.6-1.3-27.8 0-39.4 3.9-7.5 2.5-10.6 3-18.4 3-5.2 0-13.9.5-19.5 1.1l-10 1.2-2.2-2.9c-1.2-1.6-4.6-5.3-7.5-8.1-3-2.9-5.2-5.7-4.8-6.3.3-.5 2-1 3.7-1 6.7 0 11.2-2.3 18.5-9.6 8.8-8.6 12.8-16.3 14.4-27.9 1.5-10.4.2-15.4-5.2-20.8-2.1-2.2-3.9-4.4-3.9-4.9 0-1.6 7.6-16.7 11.7-23.2 3-4.8 3.8-7.1 4.1-12.1.5-7.1-.8-10.3-6-15.1-5.9-5.6-14.8-7-21.6-3.5-4.6 2.4-6.7 4.6-13.1 14.1-2.8 4.1-6.2 8.8-7.6 10.5l-2.5 3v-10.3c0-11-1-14.3-5.7-19.4l-2.5-2.6 3.8-15.9c3.5-14.2 3.9-17.1 3.9-28.8 0-12.4-.1-13.3-2.9-19-9-18.2-30.8-28.5-54.5-25.6-5.2.6-12.5 2.2-16.2 3.5l-6.8 2.4-2.6-6.9c-5-12.9-15.2-18-26-13zm81.9 244c3.3 1.7 7.6 4.5 9.4 6.4l3.2 3.3-10.2 3.8c-40.7 15-78.5 43.4-114.2 86-14.3 17-33.2 44.8-39 57.3-3.2 6.7-4.1 8-5.5 7.3-.9-.5-2.9-1.3-4.6-2-1.6-.6-4.1-1.9-5.4-2.9l-2.4-1.9 2.1-5.8c1.2-3.3 2.6-8.8 3.2-12.4 1.4-8.3 3.1-14.2 8.7-31.5 4.3-13.1 5.1-14.6 12.2-24 4.2-5.4 13.5-16 20.6-23.3 32.4-33.5 69-55.9 100.5-61.7 11.4-2 14.5-1.8 21.4 1.4zm295.8 156.6c2 1.8 5.1 3.5 7.3 3.9 2.5.5 5.6 2.3 8.6 5 5.8 5.2 15.5 10 23.4 11.6 6.3 1.3 19.2.8 22.4-.9 2-1.1 2.8.2 8.2 13.3 6.6 15.6 9 26.2 10 42.6 1.9 33.3 2.8 75.4 1.6 76.2-3.1 2-8.7.7-14.9-3.2-8.2-5.2-23.2-11.1-38.6-15-14.2-3.7-18-3.5-22.4 1.2-2.3 2.5-2.8 3.9-2.8 8 0 4.3.4 5.4 3.3 8.2 2.9 3 4.1 3.4 15 5.1 6.5.9 13.9 2.3 16.4 2.9l4.7 1.2-6.5 2.3c-21.4 7.8-33.1 16.9-37.9 29.5-1 2.7-2.3 4.2-4 4.7-3.3.9-18.2 1-30.2.2l-9.8-.6-2.1-4.3c-5.8-12-25.1-22-53.9-27.8-6.1-1.2-10.7-2.5-10.3-2.9.3-.4 1.4-.7 2.4-.7s3.4-1.4 5.4-3.1c3-2.6 3.5-3.7 3.5-7.4 0-5.2-2.8-9-8.4-11.6-11.8-5.4-43.3 2.2-62.6 15-5.7 3.8-6.6 4.1-13.1 4.1-11.3 0-35.3 2-50.1 4.1-26.2 3.7-44.9 9.9-51.2 17L585 586l-6.7-1c-3.8-.5-9.8-1-13.4-1h-6.6l-1.7-8.8c-1.9-9.4-8.3-35.4-11.5-46.5-2.3-7.9-2.8-8.1 8.4 2.1 8.2 7.5 14 11.1 20.8 12.9 15 3.9 27.3-8.3 27-26.7-.1-6.6-2.2-14.8-12.1-47.8-2.7-8.9-4.5-16.2-4-16.2s2.7.9 5 2.1c6.4 3.3 16.9 5.1 22.4 3.9 6-1.4 9.2-3.1 13.1-7.2 6.2-6.4 9.3-17.5 9.3-33.1 0-4.2.3-7.7.6-7.7s3.6 2.7 7.2 6.1c14.6 13.3 30.1 20.2 45.7 20.1 13 0 22.6-3.5 33.2-11.9l4.3-3.4 12.2 2c34.6 5.8 66.7 7.8 80.8 5.1 21.5-4.1 36.8-13.8 47-29.8l4.5-7 .6 4c.4 3 1.6 5 4.1 7.3zm129.9 192.2c3.9 4.1 5.9 8.7 5.9 13.3 0 2.2-.1 4-.3 4s-2.6-.7-5.5-1.5c-3.4-1-5.3-2.2-5.7-3.5-.4-1.2-2.4-4.1-4.5-6.5-4.4-5-4.3-8 0-10.2 2.8-1.4 6.1 0 10.1 4.4zM771.4 600c13.5 5.1 21.3 15.3 16.1 21-3.1 3.4-6.2 2.5-11.8-3.4-3.7-3.9-6.4-5.8-9.4-6.5-7.5-2-9.4-6.1-4.8-10.6 2.9-3 3-3 9.9-.5zM489.8 992.5c5.6 2.6 6.8 3.9 2.5 2.9-2.1-.6-2.5-.4-2.1.8.4.8-.2 2-1.3 2.6-2.7 1.7-2.3 3.2.9 3.2 2.3 0 3.5 1.2 7.9 7.7 2.8 4.3 9.5 12.3 15 17.8 54.9 55.8 140.5 78.9 241.6 65.4 43.2-5.7 77-15.9 102.3-30.6 21.5-12.6 40.1-32.6 40.7-43.6l.2-3.3 6 1.7c3.3 1 7.3 2 8.9 2.4 1.6.3 4.2 2 5.9 3.6 2.9 2.9 2.9 3.3 2.5 10.3-.8 12.7-7.6 24.1-25.1 42.2-19.9 20.7-36.6 32.9-62.2 45.5-93.2 45.6-218.9 36.1-307.4-23.2-34.1-22.8-66.8-59.1-80.7-89.4-3.1-6.7-2.9-7.1 6.4-11.5 15.1-7.1 28.9-8.8 38-4.5zM452.5 659c-.9 1.5.2 2.8 4.4 4.9 7.6 3.9 21 14.8 33.1 26.9 7.2 7.2 14.2 13.3 16.5 14.3 14.3 6.5 21.5-6.1 11.5-19.9-7.8-10.9-33.2-23.5-51.5-25.7l-9.2-1.1c-2.3-.3-4.4 0-4.8.6zm427.4 139.4c-23.3 21.6-42.2 22.1-62.5 1.7-7.6-7.5-8.5-8.1-12.3-8.1-8.2 0-14.1 5.8-14.1 13.8 0 9.9 19.5 26.2 36.6 30.7 7.7 2 22.5 1.9 29.5-.1 19.9-5.8 36.9-22.6 38.7-38 .4-4.1.2-4.9-1.9-6.5-1.3-1-3-1.9-3.6-1.9-.7 0-5.4 3.8-10.4 8.4z"/></svg>